<?xml version="1.0" standalone="no"?>
<!DOCTYPE svg PUBLIC "-//W3C//DTD SVG 20010904//EN"
 "http://www.w3.org/TR/2001/REC-SVG-20010904/DTD/svg10.dtd">
<svg version="1.0" xmlns="http://www.w3.org/2000/svg"
 width="260.000000pt" height="260.000000pt" viewBox="0 0 260.000000 260.000000"
 preserveAspectRatio="xMidYMid meet">
<metadata>
Created by potrace 1.11, written by Peter Selinger 2001-2013
</metadata>
<g transform="translate(0.000000,260.000000) scale(0.100000,-0.100000)"
fill="#000000" stroke="none">
<path d="M2105 2331 c-52 -33 -403 -394 -410 -422 -4 -17 -1 -38 8 -55 9 -16
103 -116 209 -221 186 -185 196 -193 234 -193 38 0 47 8 247 208 199 199 207
209 207 247 0 37 -8 47 -192 233 -181 182 -228 222 -260 222 -7 0 -26 -9 -43
-19z m237 -238 c104 -103 188 -195 188 -203 0 -20 -360 -380 -380 -380 -8 0
-101 86 -205 190 l-190 190 195 195 c107 107 197 195 200 195 3 0 89 -84 192
-187z"/>
<path d="M275 2308 c-11 -6 -28 -20 -37 -32 -16 -19 -18 -69 -18 -656 0 -572
2 -638 16 -659 36 -51 41 -51 659 -51 l575 0 0 -35 0 -35 -433 0 -434 0 -21
-23 c-19 -20 -22 -35 -22 -107 l0 -85 -103 103 c-141 141 -132 142 -304 -31
-109 -109 -133 -138 -133 -162 0 -23 24 -53 132 -162 172 -173 163 -172 305
-31 93 92 103 100 103 76 0 -17 10 -34 26 -47 23 -18 41 -21 125 -21 l99 0 0
75 0 75 180 0 180 0 0 -75 0 -75 150 0 c144 0 150 -1 150 -20 0 -12 11 -32 25
-45 l24 -25 354 0 c334 0 356 1 378 19 l24 19 3 339 c2 186 0 353 -3 370 -7
38 -45 63 -95 63 l-30 0 0 125 c0 85 -4 136 -14 158 -7 18 -81 98 -163 180
-137 135 -152 147 -186 147 -24 0 -45 -8 -64 -24 l-28 -24 -3 -281 -3 -281
-35 0 -34 0 0 593 c0 546 -2 594 -18 613 -9 12 -27 27 -39 33 -30 15 -1260 15
-1288 -1z m143 -113 c-5 -60 -28 -95 -62 -95 -31 0 -50 -16 -43 -34 9 -22 55
-20 95 4 40 24 62 73 62 135 l0 45 74 0 75 0 6 -47 c9 -59 38 -130 68 -162 46
-49 148 -78 161 -45 4 11 -5 19 -32 31 -88 36 -141 106 -142 186 l0 37 103 0
c57 0 107 -3 110 -7 4 -3 0 -14 -9 -24 -11 -12 -12 -19 -4 -24 8 -5 8 -10 0
-20 -8 -10 -8 -15 0 -20 8 -5 8 -11 -1 -21 -10 -12 -8 -18 7 -29 18 -14 18
-14 1 -15 -26 0 -84 29 -91 45 -2 7 4 15 15 18 15 4 20 12 17 29 -2 18 -10 24
-35 26 -36 4 -59 -24 -48 -58 9 -30 71 -78 115 -90 l40 -11 0 -428 0 -428 -40
-12 c-45 -13 -106 -62 -115 -91 -9 -28 12 -60 38 -60 44 0 64 44 27 58 -17 7
-19 10 -8 25 14 18 89 49 98 40 3 -2 -4 -11 -14 -19 -15 -11 -17 -16 -7 -28 9
-11 9 -15 -1 -18 -11 -4 -11 -8 0 -20 10 -13 10 -18 1 -24 -9 -5 -7 -11 5 -20
34 -25 7 -34 -100 -34 l-104 0 0 35 c0 43 23 101 53 134 12 13 46 34 74 47 38
17 51 28 47 39 -9 23 -60 18 -114 -11 -48 -26 -49 -26 -96 -10 -26 9 -70 33
-98 55 -28 22 -64 42 -81 46 -27 6 -28 5 -10 -6 11 -6 52 -43 91 -80 40 -38
76 -69 80 -69 28 -1 34 -17 20 -51 -7 -19 -17 -55 -20 -82 l-7 -47 -167 2
c-150 3 -167 5 -170 21 -3 16 9 17 152 17 l155 0 -14 46 c-24 81 -31 84 -172
84 l-123 0 0 25 c0 25 0 25 95 25 98 0 105 3 85 41 -11 20 -54 26 -65 9 -12
-20 -45 -10 -55 16 -14 36 -12 128 2 142 19 19 51 14 89 -14 109 -82 205 -99
294 -53 168 86 131 317 -57 358 -104 24 -210 -32 -247 -130 -31 -81 -51 -99
-111 -99 -23 0 -30 5 -30 20 0 14 7 20 24 20 66 0 84 34 95 183 13 180 18 185
222 189 133 3 149 1 168 -16 30 -27 41 -77 41 -183 0 -50 5 -95 10 -98 6 -4
10 47 10 145 0 147 -1 152 -25 175 -24 25 -27 25 -192 25 -183 0 -236 -9 -255
-43 -6 -12 -14 -76 -16 -142 -4 -122 -16 -165 -47 -165 -8 0 -15 9 -15 20 0
11 5 20 10 20 6 0 10 14 10 31 0 22 -5 32 -20 36 -19 5 -20 14 -20 134 l0 129
43 0 c56 0 137 24 172 52 52 41 89 177 51 191 -20 8 -36 -13 -36 -45 0 -80
-68 -139 -177 -153 l-53 -7 0 55 c0 54 1 56 35 67 37 12 65 43 65 72 0 25 -33
23 -45 -4 -6 -11 -20 -25 -32 -29 -22 -8 -23 -6 -23 35 0 23 3 46 7 49 3 4 35
7 71 7 l64 0 -4 -55z m737 8 c-11 -77 -42 -122 -110 -159 -72 -40 -78 -59 -18
-58 88 2 168 95 180 209 l6 55 71 0 72 0 11 -67 c15 -87 50 -126 115 -127 58
-1 59 24 1 42 -34 11 -44 20 -57 53 -9 22 -16 53 -16 69 l0 30 70 0 70 0 0
-45 c0 -39 -3 -45 -20 -45 -13 0 -24 10 -30 25 -12 32 -40 33 -40 2 0 -27 23
-51 63 -66 25 -10 27 -15 27 -66 l0 -56 -52 7 c-101 13 -168 68 -168 140 0 16
-6 39 -14 49 -12 17 -16 17 -31 5 -13 -11 -15 -23 -10 -59 9 -59 26 -91 69
-129 35 -31 105 -52 171 -52 28 0 35 -4 35 -20 0 -14 -9 -20 -35 -25 -19 -3
-52 -8 -72 -11 -52 -8 -108 -39 -131 -71 -26 -36 -45 -109 -38 -139 9 -36 43
-32 50 6 3 17 9 43 12 60 11 57 98 110 182 110 l32 0 0 -54 c0 -49 -2 -54 -25
-60 -14 -4 -34 -15 -45 -26 -24 -24 -27 -70 -5 -70 9 0 20 11 25 25 5 14 11
25 14 25 2 0 11 3 20 6 13 5 16 -2 16 -35 l0 -41 -71 0 -72 0 7 43 c10 59 29
83 73 94 47 11 51 37 6 41 -69 7 -115 -40 -128 -131 l-7 -47 -64 0 -64 0 0 39
c0 21 -7 57 -15 80 -14 40 -14 41 12 58 41 27 83 92 83 129 0 75 -105 100
-140 33 -15 -28 13 -73 41 -66 26 7 24 -6 -6 -41 l-25 -30 -51 33 c-54 37
-105 55 -156 55 l-33 0 0 60 0 59 41 13 c79 23 133 100 97 136 -18 18 -56 15
-66 -5 -12 -22 -5 -43 14 -43 24 0 15 -19 -18 -40 -35 -21 -68 -26 -68 -11 0
5 8 12 18 16 16 6 16 7 -1 20 -17 12 -17 13 0 20 17 6 17 7 0 20 -17 12 -17
13 0 20 17 6 17 7 1 19 -39 29 -20 36 93 36 l111 0 -7 -47z m-90 -342 c53 -24
91 -70 110 -133 26 -88 26 -88 -60 -88 -41 0 -75 4 -75 9 0 10 48 51 60 51 4
0 11 -12 14 -26 9 -34 30 -25 34 14 2 23 -2 33 -17 42 -32 17 -68 2 -110 -46
-43 -49 -81 -59 -81 -21 0 14 12 30 35 44 39 26 68 74 63 106 -3 24 -46 44
-72 34 -21 -8 -9 -37 15 -37 28 0 23 -22 -11 -55 l-30 -29 0 77 0 77 43 0 c23
0 60 -9 82 -19z m-365 -213 c86 -44 112 -149 54 -218 -96 -114 -294 -53 -294
90 0 56 30 103 83 129 54 27 102 27 157 -1z m305 -71 c21 -33 79 -77 101 -77
22 0 44 30 44 61 0 36 -27 40 -36 4 -3 -14 -8 -25 -11 -25 -14 0 -42 22 -57
45 l-16 25 81 0 82 0 -7 -47 c-16 -115 -86 -189 -189 -200 l-57 -6 0 78 0 79
30 -29 c34 -33 39 -55 11 -55 -24 0 -36 -29 -16 -36 28 -11 64 5 71 31 8 32
-22 84 -64 110 -44 28 -42 72 3 74 6 0 19 -14 30 -32z m360 -14 c15 -101 58
-148 128 -141 45 4 41 30 -7 43 -47 14 -64 36 -72 99 l-7 47 69 -3 69 -3 3
-42 c3 -38 1 -41 -18 -36 -12 3 -26 16 -31 29 -11 32 -39 31 -39 0 0 -29 23
-55 62 -68 26 -9 28 -14 28 -65 l0 -56 -52 7 c-29 4 -69 15 -88 24 -42 20 -80
74 -80 113 0 40 -10 59 -30 59 -23 0 -31 -23 -24 -70 16 -100 92 -161 210
-168 58 -4 64 -6 64 -27 0 -20 -6 -23 -65 -28 -124 -9 -194 -68 -210 -176 -6
-37 -4 -47 11 -58 16 -12 21 -11 31 4 7 9 13 31 13 48 0 42 37 96 80 117 19 9
59 20 88 24 l52 7 0 -56 c0 -51 -2 -56 -28 -65 -39 -13 -62 -39 -62 -68 0 -31
28 -32 39 0 5 13 19 26 30 29 17 4 20 -1 23 -37 l3 -41 59 -3 58 -3 -6 -42
c-9 -52 -31 -87 -55 -87 -33 0 -51 -11 -51 -31 0 -15 7 -19 30 -19 70 0 112
44 125 133 l7 47 64 0 64 0 0 -89 c0 -87 -1 -90 -27 -103 -34 -17 -67 -62 -60
-82 7 -18 52 -22 63 -4 4 6 -2 17 -12 25 -19 14 -19 14 0 29 32 23 37 17 34
-38 l-3 -53 -43 -3 c-33 -2 -47 1 -58 15 -12 16 -15 16 -24 3 -9 -13 -11 -13
-19 -1 -8 12 -12 12 -24 2 -12 -9 -16 -9 -19 1 -4 11 -8 11 -20 0 -13 -10 -17
-9 -23 5 -6 17 -7 17 -17 -1 -8 -15 -12 -16 -19 -5 -8 12 -12 11 -23 -3 -18
-24 -26 -22 -26 6 0 21 5 24 64 28 88 7 150 39 180 91 42 73 44 147 5 147 -13
0 -20 -10 -24 -37 -18 -107 -56 -142 -172 -158 l-53 -7 0 55 c0 54 1 56 35 67
37 12 55 35 55 69 0 29 -28 27 -39 -3 -5 -13 -19 -26 -30 -29 -18 -4 -21 -1
-21 29 l0 34 -60 0 -60 0 1 33 c1 67 20 100 69 118 53 20 59 43 13 47 -70 7
-115 -44 -129 -146 l-7 -52 -73 0 -74 0 0 33 c0 50 -25 123 -56 164 -30 40
-101 76 -142 71 -43 -5 -32 -27 33 -61 68 -36 101 -84 111 -161 l7 -46 -112 0
c-88 0 -111 3 -111 14 0 8 8 17 18 21 16 6 16 7 -2 20 -18 14 -18 15 -1 21 17
7 17 8 1 20 -16 11 -16 13 1 23 17 10 17 12 1 21 -29 18 -21 29 13 20 50 -15
91 -60 55 -60 -22 0 -28 -17 -16 -40 12 -22 49 -27 68 -8 36 36 -12 108 -89
135 l-49 18 0 57 c0 57 0 58 28 58 47 0 122 27 168 59 l42 31 26 -27 c31 -30
34 -53 7 -46 -23 6 -51 -30 -44 -58 7 -25 41 -49 69 -49 12 0 33 9 48 21 48
37 30 108 -43 171 l-40 34 14 40 c8 21 14 55 15 75 0 20 3 39 7 42 3 4 32 7
64 7 l57 0 7 -47z m569 -92 c157 -158 157 -157 148 -311 l-5 -90 -158 0 -159
0 0 263 c0 145 3 267 7 270 15 16 35 0 167 -132z m-1458 -362 c24 -6 44 -15
44 -19 0 -15 -33 -20 -136 -20 l-104 0 0 25 c0 24 2 25 76 25 41 0 95 -5 120
-11z m1554 -144 c0 -81 46 -138 113 -139 52 -1 58 24 9 40 -47 15 -64 36 -69
88 l-6 46 67 0 66 0 0 -40 c0 -22 -3 -40 -6 -40 -3 0 -19 14 -35 32 -22 23
-33 28 -41 20 -19 -19 7 -61 47 -78 34 -14 35 -16 35 -70 l0 -56 -47 7 c-104
14 -156 59 -171 147 -6 34 -12 43 -27 43 -47 0 -20 -132 36 -179 35 -30 116
-56 171 -56 35 0 38 -2 38 -27 -1 -27 -1 -27 -15 -9 -11 15 -17 17 -29 7 -11
-9 -15 -9 -18 1 -4 11 -8 11 -20 0 -13 -10 -17 -10 -20 0 -4 11 -8 11 -20 0
-13 -10 -17 -10 -21 0 -4 10 -9 8 -20 -5 -15 -18 -16 -17 -23 5 l-7 23 -10
-23 c-9 -20 -16 -23 -61 -20 l-51 3 -3 53 c-3 58 10 68 43 32 16 -18 16 -20 2
-20 -20 0 -22 -23 -4 -39 10 -8 19 -7 33 3 28 21 9 66 -39 91 l-37 20 0 88 0
87 70 0 70 0 0 -35z m-560 -370 l0 -175 -115 0 -115 0 0 55 c0 42 -5 60 -20
75 -19 19 -33 20 -228 20 -251 0 -252 0 -252 -91 l0 -60 -57 3 -58 3 -3 160
c-1 87 0 165 2 172 4 10 92 13 426 13 l420 0 0 -175z m-1032 52 l112 -112
-115 -115 -115 -115 -115 115 -115 115 112 112 c62 62 115 113 118 113 3 0 56
-51 118 -113z m1118 -19 c6 -20 7 -21 19 -4 13 17 14 17 23 -1 10 -17 11 -17
18 1 7 18 8 18 20 1 12 -17 14 -17 20 -1 5 13 9 14 21 4 11 -9 16 -9 24 3 8
12 10 12 19 -1 9 -13 12 -13 24 3 11 14 25 17 58 15 l43 -3 3 -52 c3 -56 -2
-62 -34 -39 -19 15 -19 15 0 29 24 17 13 37 -20 37 -51 0 -34 -64 27 -98 28
-17 29 -18 29 -104 l0 -88 -64 0 -64 0 -7 47 c-13 88 -55 133 -123 133 -38 0
-51 -27 -19 -39 73 -28 76 -31 86 -68 20 -72 19 -73 -59 -73 l-70 0 0 39 c0
35 2 39 21 34 11 -3 26 -16 31 -29 14 -29 38 -31 38 -3 0 34 -18 57 -55 69
-34 11 -35 13 -35 66 l0 55 53 -7 c28 -3 68 -14 87 -23 40 -20 80 -73 80 -107
0 -12 4 -34 10 -49 9 -22 13 -24 31 -15 18 10 20 17 14 58 -17 117 -101 181
-237 182 -34 0 -38 3 -38 25 0 31 16 33 26 3z m447 2 c13 -19 15 -19 21 -4 5
14 9 14 23 3 13 -11 17 -11 21 -1 3 10 7 10 19 1 12 -10 16 -10 23 1 7 12 10
11 16 -4 7 -18 8 -18 20 -1 13 17 14 17 20 0 6 -16 9 -15 25 6 l19 24 0 -27
c0 -26 -3 -28 -38 -28 -52 0 -133 -25 -167 -52 -51 -40 -84 -155 -53 -186 16
-16 38 4 38 36 0 14 9 45 21 68 23 49 73 78 152 89 l47 6 0 -55 c0 -54 -1 -56
-35 -70 -40 -17 -66 -59 -47 -78 8 -8 19 -3 41 20 16 18 32 32 35 32 3 0 6
-18 6 -40 l0 -40 -66 0 -67 0 6 46 c5 52 22 73 69 88 42 14 44 40 3 44 -65 6
-125 -62 -125 -143 l0 -35 -70 0 -70 0 0 88 0 88 35 17 c58 28 76 103 23 95
-27 -4 -38 -38 -12 -38 16 0 16 -1 -1 -20 -31 -34 -45 -25 -45 28 0 27 3 52 7
55 3 4 26 7 49 7 32 0 47 -5 57 -20z"/>
<path d="M564 1626 c-36 -16 -74 -61 -74 -87 0 -16 5 -17 33 -11 17 4 74 7
125 7 61 0 92 4 92 11 0 21 -43 66 -76 80 -41 17 -60 17 -100 0z"/>
<path d="M551 1510 c-53 -11 -55 -13 -46 -39 18 -57 130 -84 184 -43 31 23 58
68 48 79 -12 11 -135 13 -186 3z"/>
<path d="M837 463 c-10 -9 -8 -85 1 -101 7 -9 44 -12 153 -10 l144 3 3 58 3
57 -149 0 c-82 0 -152 -3 -155 -7z"/>
</g>
</svg>
