<?xml version="1.0" encoding="utf-8"?>
<!-- Generator: Adobe Illustrator 16.0.3, SVG Export Plug-In . SVG Version: 6.00 Build 0)  -->
<!DOCTYPE svg PUBLIC "-//W3C//DTD SVG 1.1//EN" "http://www.w3.org/Graphics/SVG/1.1/DTD/svg11.dtd">
<svg version="1.1" id="レイヤー_1" xmlns="http://www.w3.org/2000/svg" xmlns:xlink="http://www.w3.org/1999/xlink" x="0px"
	 y="0px" width="381.672px" height="46.111px" viewBox="0 0 381.672 46.111" enable-background="new 0 0 381.672 46.111"
	 xml:space="preserve">
<polygon fill="#171F55" points="83.603,12.526 83.603,14.387 76.018,14.387 76.018,34.438 70.643,34.438 70.643,14.387 
	63.056,14.387 63.056,12.526 "/>
<path fill="#171F55" d="M92.081,12.051l10.261,22.39h-5.494l-2.736-5.99h-8.506l-2.877,5.99h-3.665l10.696-22.39H92.081z
	 M86.6,26.402h6.604l-3.249-7.078L86.6,26.402z"/>
<polygon fill="#171F55" points="109.304,24.004 109.304,34.438 103.936,34.438 103.936,12.526 109.304,12.526 109.304,22.126 
	118.123,22.126 118.123,12.526 123.444,12.526 123.444,34.438 118.123,34.438 118.123,24.004 "/>
<rect x="127.572" y="12.526" fill="#171F55" width="5.374" height="21.912"/>
<polygon fill="#171F55" points="156.451,12.526 156.451,14.387 148.866,14.387 148.866,34.438 143.493,34.438 143.493,14.387 
	135.907,14.387 135.907,12.526 "/>
<rect x="159.412" y="12.526" fill="#171F55" width="5.368" height="21.912"/>
<path fill="#5A4D77" d="M177.041,12.28h7.467c1.209,0,2.332,0.126,3.386,0.375c1.051,0.263,1.961,0.645,2.726,1.143
	c0.77,0.5,1.395,1.131,1.832,1.881c0.438,0.763,0.668,1.638,0.668,2.634c0,1.024-0.221,1.899-0.652,2.651
	c-0.453,0.754-1.021,1.383-1.746,1.894c-0.718,0.498-1.542,0.875-2.47,1.12c-0.912,0.252-1.861,0.381-2.816,0.381h-3.107v9.367
	h-5.282V12.281L177.041,12.28L177.041,12.28z M182.323,22.412h1.717c0.595,0,1.105-0.106,1.559-0.317
	c0.457-0.227,0.817-0.52,1.12-0.892c0.291-0.36,0.513-0.798,0.651-1.282c0.156-0.49,0.224-0.997,0.224-1.522
	c0-0.646-0.097-1.227-0.282-1.724c-0.188-0.503-0.461-0.923-0.789-1.271c-0.34-0.334-0.74-0.603-1.185-0.772
	c-0.448-0.181-0.931-0.277-1.45-0.277h-1.563L182.323,22.412L182.323,22.412z"/>
<path fill="#5A4D77" d="M197.486,12.28h8.057c1.387,0,2.604,0.142,3.645,0.432c1.045,0.301,1.908,0.697,2.605,1.228
	c0.689,0.515,1.215,1.138,1.557,1.851c0.346,0.713,0.516,1.487,0.516,2.33c0,0.604-0.109,1.176-0.355,1.726
	c-0.23,0.548-0.563,1.046-0.996,1.507c-0.428,0.457-0.945,0.862-1.553,1.223c-0.602,0.359-1.27,0.65-2,0.881l7.631,10.271h-5.709
	l-7.207-9.721h-0.938v9.721h-5.25V12.28H197.486z M202.736,22.151h1.148c0.645,0,1.244-0.09,1.785-0.267
	c0.543-0.18,1.018-0.435,1.422-0.782c0.398-0.326,0.715-0.74,0.949-1.229c0.225-0.479,0.334-1.028,0.334-1.646
	c0-0.564-0.08-1.08-0.258-1.555c-0.168-0.475-0.42-0.88-0.725-1.226c-0.311-0.346-0.682-0.619-1.109-0.807
	c-0.424-0.192-0.896-0.294-1.41-0.294h-2.137V22.151L202.736,22.151z"/>
<path fill="#5A4D77" d="M229.787,34.201c-1.164,0-2.262-0.127-3.318-0.389c-1.055-0.252-2.037-0.621-2.932-1.09
	c-0.91-0.473-1.738-1.045-2.48-1.713c-0.73-0.678-1.375-1.432-1.891-2.277c-0.518-0.842-0.916-1.76-1.209-2.746
	c-0.297-0.984-0.434-2.033-0.434-3.132c0-1.093,0.137-2.115,0.434-3.084c0.293-0.966,0.691-1.865,1.209-2.673
	c0.516-0.817,1.156-1.549,1.891-2.204c0.738-0.656,1.568-1.218,2.48-1.668c0.895-0.453,1.877-0.806,2.932-1.05
	c1.059-0.246,2.154-0.364,3.318-0.364c1.145,0,2.256,0.118,3.311,0.364c1.049,0.244,2.031,0.601,2.936,1.06
	c0.902,0.455,1.721,1.013,2.469,1.658c0.744,0.655,1.375,1.387,1.896,2.204c0.525,0.808,0.928,1.697,1.215,2.662
	c0.285,0.968,0.422,1.979,0.422,3.056c0,1.138-0.137,2.203-0.422,3.208c-0.289,1.008-0.689,1.93-1.215,2.771
	c-0.521,0.842-1.152,1.604-1.896,2.262c-0.748,0.672-1.564,1.238-2.469,1.701c-0.904,0.467-1.887,0.83-2.936,1.068
	C232.043,34.078,230.93,34.201,229.787,34.201 M229.787,32.385c1.031,0,1.953-0.246,2.76-0.725c0.801-0.473,1.469-1.139,2.014-1.984
	c0.539-0.85,0.951-1.854,1.223-3.02c0.283-1.16,0.422-2.436,0.422-3.799c0-1.365-0.139-2.604-0.422-3.736
	c-0.271-1.128-0.684-2.1-1.223-2.915c-0.545-0.812-1.213-1.448-2.014-1.901c-0.805-0.45-1.729-0.668-2.76-0.668
	c-1.064,0-1.98,0.218-2.785,0.668c-0.807,0.453-1.48,1.093-2.016,1.901c-0.541,0.817-0.943,1.787-1.227,2.915
	c-0.27,1.135-0.41,2.37-0.41,3.736c0,1.364,0.141,2.639,0.41,3.799c0.279,1.166,0.686,2.172,1.227,3.02
	c0.531,0.85,1.209,1.516,2.016,1.984C227.803,32.141,228.719,32.385,229.787,32.385"/>
<polygon fill="#5A4D77" points="246.172,12.28 251.299,12.28 258.709,26.928 266.02,12.28 271.037,12.28 271.037,33.723 
	265.787,33.723 265.787,19.75 258.777,33.723 256.74,33.723 249.506,19.581 249.506,33.723 246.172,33.723 "/>
<path fill="#5A4D77" d="M287.432,34.201c-1.156,0-2.26-0.127-3.316-0.389c-1.043-0.252-2.033-0.621-2.936-1.09
	c-0.9-0.473-1.721-1.045-2.469-1.713c-0.738-0.678-1.373-1.432-1.895-2.277c-0.523-0.842-0.928-1.76-1.209-2.746
	c-0.293-0.984-0.439-2.033-0.439-3.132c0-1.093,0.146-2.115,0.439-3.084c0.281-0.966,0.686-1.865,1.209-2.673
	c0.521-0.817,1.156-1.549,1.895-2.204c0.748-0.656,1.566-1.218,2.469-1.668c0.898-0.453,1.893-0.806,2.936-1.05
	c1.061-0.246,2.16-0.364,3.316-0.364c1.152,0,2.264,0.118,3.316,0.364c1.043,0.244,2.033,0.601,2.936,1.06
	c0.9,0.455,1.713,1.013,2.467,1.658c0.748,0.655,1.371,1.387,1.896,2.204c0.52,0.808,0.928,1.697,1.219,2.662
	c0.281,0.968,0.43,1.979,0.43,3.056c0,1.138-0.148,2.203-0.43,3.208c-0.291,1.008-0.697,1.93-1.219,2.771
	c-0.523,0.842-1.146,1.604-1.896,2.262c-0.754,0.672-1.564,1.238-2.467,1.701c-0.902,0.467-1.893,0.83-2.936,1.068
	C289.695,34.078,288.586,34.201,287.432,34.201 M287.432,32.385c1.041,0,1.959-0.246,2.764-0.725
	c0.799-0.473,1.467-1.139,2.008-1.984c0.551-0.85,0.953-1.854,1.229-3.02c0.283-1.16,0.414-2.436,0.414-3.799
	c0-1.365-0.131-2.604-0.414-3.736c-0.271-1.128-0.678-2.1-1.229-2.915c-0.541-0.812-1.209-1.448-2.008-1.901
	c-0.805-0.45-1.723-0.668-2.764-0.668c-1.055,0-1.975,0.218-2.789,0.668c-0.809,0.453-1.467,1.093-2.004,1.901
	c-0.545,0.817-0.949,1.787-1.227,2.915c-0.273,1.135-0.41,2.37-0.41,3.736c0,1.364,0.139,2.639,0.41,3.799
	c0.277,1.166,0.682,2.172,1.227,3.02c0.537,0.85,1.195,1.516,2.004,1.984C285.459,32.141,286.379,32.385,287.432,32.385"/>
<polygon fill="#5A4D77" points="320.529,12.28 320.529,14.096 313.109,14.096 313.109,33.723 307.85,33.723 307.85,14.096 
	300.428,14.096 300.428,12.28 "/>
<rect x="324.518" y="12.28" fill="#5A4D77" width="5.254" height="21.441"/>
<path fill="#5A4D77" d="M346.389,34.201c-1.143,0-2.262-0.127-3.307-0.389c-1.055-0.252-2.033-0.621-2.941-1.09
	c-0.895-0.473-1.717-1.045-2.465-1.713c-0.748-0.678-1.375-1.432-1.898-2.277c-0.52-0.842-0.926-1.76-1.219-2.746
	c-0.273-0.984-0.424-2.033-0.424-3.132c0-1.093,0.146-2.115,0.424-3.084c0.293-0.966,0.697-1.865,1.219-2.673
	c0.523-0.817,1.15-1.549,1.898-2.204c0.748-0.656,1.568-1.218,2.465-1.668c0.908-0.453,1.889-0.806,2.941-1.05
	c1.043-0.246,2.164-0.364,3.307-0.364c1.162,0,2.264,0.118,3.316,0.364c1.053,0.244,2.031,0.601,2.936,1.06
	c0.902,0.455,1.734,1.013,2.469,1.658c0.744,0.655,1.379,1.387,1.9,2.204c0.516,0.808,0.922,1.697,1.209,2.662
	c0.287,0.968,0.428,1.979,0.428,3.056c0,1.138-0.141,2.203-0.428,3.208c-0.287,1.008-0.693,1.93-1.209,2.771
	c-0.521,0.842-1.156,1.604-1.9,2.262c-0.73,0.672-1.564,1.238-2.469,1.701c-0.904,0.467-1.883,0.83-2.936,1.068
	C348.652,34.078,347.551,34.201,346.389,34.201 M346.389,32.385c1.049,0,1.971-0.246,2.764-0.725
	c0.799-0.473,1.469-1.139,2.014-1.984c0.539-0.85,0.947-1.854,1.229-3.02c0.277-1.16,0.414-2.436,0.414-3.799
	c0-1.365-0.137-2.604-0.414-3.736c-0.277-1.128-0.688-2.1-1.229-2.915c-0.545-0.812-1.215-1.448-2.014-1.901
	c-0.793-0.45-1.715-0.668-2.764-0.668c-1.045,0-1.979,0.218-2.785,0.668c-0.799,0.453-1.473,1.093-2.006,1.901
	c-0.537,0.817-0.938,1.787-1.213,2.915c-0.285,1.135-0.428,2.37-0.428,3.736c0,1.364,0.143,2.639,0.428,3.799
	c0.273,1.166,0.676,2.172,1.213,3.02c0.533,0.85,1.207,1.516,2.006,1.984C344.41,32.141,345.346,32.385,346.389,32.385"/>
<polygon fill="#5A4D77" points="362.793,12.28 366.156,12.28 378.373,25.92 378.373,12.28 381.672,12.28 381.672,34.049 
	379.395,34.049 366.113,18.993 366.113,33.723 362.793,33.723 "/>
<path fill="#FFFFFF" d="M13.449,34.256c-0.23,0.004-0.417,0.193-0.417,0.422v7.189c0,0.229,0.19,0.422,0.421,0.422h2.337v-2.182
	c0-0.59,0.481-1.068,1.072-1.068h0.004h8.609h0.004c0.287,0,0.553,0.109,0.755,0.313c0.203,0.201,0.313,0.469,0.313,0.756v2.182
	h5.364v-8.031H13.449V34.256z"/>
<path fill="#FFFFFF" d="M45.375,24.916c0.024-0.902,0.059-2.408-0.392-3.027l-5.916-5.913c-0.104-0.107-0.247-0.171-0.396-0.181
	c-0.523,0.099-0.58,0.269-0.58,0.617v11.66h7.273v-2.598C45.365,25.309,45.372,25.119,45.375,24.916"/>
<path fill="#FFFFFF" d="M11.563,39.773c0.101-0.098,0.101-0.26,0-0.355l-4.869-4.873c-0.065-0.063-0.134-0.074-0.175-0.074
	c-0.043,0-0.116,0.014-0.18,0.074l-4.966,4.967c-0.064,0.064-0.075,0.145-0.075,0.184c0,0.037,0.01,0.113,0.075,0.178l4.87,4.871
	c0.064,0.063,0.138,0.074,0.176,0.074c0.041,0,0.114-0.014,0.176-0.074L11.563,39.773z"/>
<path fill="#FFFFFF" d="M55.169,10.1c0.166-0.164,0.166-0.432,0-0.596l-8.193-8.195c-0.081-0.08-0.188-0.123-0.297-0.123
	c-0.107,0-0.215,0.043-0.293,0.123L38.19,9.504c-0.163,0.164-0.163,0.432,0,0.596l8.196,8.195c0.078,0.08,0.186,0.123,0.293,0.123
	c0.109,0,0.215-0.043,0.297-0.123L55.169,10.1z"/>
<path fill="#171F55" d="M56.093,8.586L47.9,0.392c-0.328-0.324-0.758-0.503-1.215-0.503c-0.463,0-0.893,0.179-1.219,0.503
	l-8.193,8.194c-0.672,0.672-0.672,1.763,0,2.433l8.193,8.196c0.326,0.321,0.756,0.504,1.219,0.504c0.457,0,0.887-0.183,1.215-0.504
	l8.193-8.196C56.763,10.348,56.763,9.258,56.093,8.586 M55.175,10.1l-8.194,8.194c-0.079,0.08-0.187,0.124-0.295,0.124
	c-0.007,0-0.007-0.001-0.007-0.001c-0.107,0-0.215-0.043-0.293-0.123L38.19,10.1c-0.163-0.164-0.163-0.432,0-0.596l8.196-8.195
	c0.078-0.08,0.186-0.123,0.293-0.123c0,0,0,0,0.006,0c0.109,0,0.217,0.043,0.296,0.123l8.194,8.195
	C55.341,9.669,55.341,9.936,55.175,10.1"/>
<path fill="#171F55" d="M24.1,41.072h-5.924c-0.16,0-0.288,0.127-0.288,0.283v1.914c0,0.152,0.127,0.281,0.288,0.281H24.1
	c0.158,0,0.291-0.129,0.291-0.281v-1.914C24.391,41.199,24.257,41.072,24.1,41.072"/>
<path fill="#171F55" d="M46.671,28.072v-2.598c0-0.148,0.002-0.336,0.006-0.525c0.033-1.23,0.074-2.921-0.688-3.886l-0.021-0.033
	l-5.978-5.978c-0.362-0.366-0.86-0.563-1.381-0.556h-0.047l-0.048,0.008c-1.42,0.234-1.719,1.167-1.719,1.906v11.66l-4.883,4.883
	H13.454c-0.948,0-1.716,0.775-1.716,1.723v3.066l-4.121-4.117c-0.292-0.293-0.684-0.453-1.095-0.453
	c-0.416,0-0.808,0.16-1.101,0.453l-4.967,4.967c-0.605,0.605-0.605,1.59,0,2.195l4.87,4.869c0.296,0.293,0.687,0.455,1.1,0.455
	c0.415,0,0.803-0.162,1.095-0.455l4.219-4.215v0.422c0,0.945,0.769,1.719,1.716,1.719h3.641v-3.25h8.156v3.25h6.662L46.671,28.072z
	 M11.568,39.773l-4.967,4.969c-0.063,0.064-0.141,0.072-0.178,0.072c-0.001,0-0.003,0-0.003,0c-0.039,0-0.113-0.01-0.177-0.072
	l-4.87-4.871c-0.064-0.063-0.075-0.141-0.075-0.178c0-0.041,0.01-0.117,0.075-0.182l4.966-4.969c0.064-0.063,0.137-0.072,0.18-0.072
	h0.004c0.037,0,0.113,0.01,0.175,0.072l4.872,4.873C11.669,39.516,11.669,39.676,11.568,39.773 M39.072,15.975l5.917,5.911
	c0.45,0.621,0.415,2.127,0.389,3.03c-0.002,0.203-0.007,0.393-0.007,0.561v2.596h-0.006h-7.274v-11.66c0-0.35,0.058-0.52,0.58-0.617
	l0,0C38.826,15.805,38.968,15.864,39.072,15.975 M26.548,42.287v-2.182c0-0.287-0.109-0.555-0.313-0.756
	c-0.202-0.203-0.468-0.313-0.755-0.313h-0.004h-8.609c-0.59,0-1.07,0.479-1.07,1.068v2.182h-0.005h-2.337
	c-0.23,0-0.421-0.193-0.421-0.422v-7.189c0-0.229,0.186-0.418,0.417-0.422c0,0,0,0,0.004,0h18.459l0,0v8.031L26.548,42.287
	L26.548,42.287z"/>
<path fill="#171F55" d="M15.675,18.254c-0.751-0.194-2.618-0.485-5.359,0.273c0.292,1.098,1.366,1.91,2.655,1.91
	C14.358,20.438,15.503,19.487,15.675,18.254"/>
<path fill="#171F55" d="M15.678,17.626c-0.168-1.239-1.316-2.198-2.708-2.198c-1.507,0-2.726,1.114-2.733,2.489
	C11.001,17.676,13.304,17.069,15.678,17.626"/>
<path fill="#171F55" d="M31.911,43.584v0.563c0,0.75,0.609,1.355,1.36,1.355h14.712c0.754,0,1.362-0.605,1.362-1.355V29.432
	c0-0.752-0.607-1.357-1.362-1.357H35.039V2.821c0-1.322-1.072-2.398-2.398-2.398H6.662c-1.328,0-2.4,1.076-2.4,2.398v25.98
	c0,1.324,1.072,2.398,2.4,2.398h25.249v1.756L31.911,43.584L31.911,43.584z M19.979,6.227c0.636-0.076,2.366-0.402,3.188-1.813
	c1.022-1.75-1.562-2.188-1.625-0.854c-0.016,0.56,0.855,0.77,0.855,0.207c0.082,0.202,0.144,1.461-2.419,1.821V5.151l0.835-0.447
	l-0.835-0.45V4.242l0.835-0.448l-0.835-0.451V3.33l0.835-0.446l-0.835-0.455V2.368c0-0.316,0.258-0.573,0.571-0.573h4.412
	c0.006,3.526-1.723,4.27-2.398,4.657c-0.688,0.396-1.397,0.5-1.496,0.729c-0.104,0.23,0,0.729,0.707,0.627
	c4.098-0.541,4.27-4.863,4.244-6.014h3.404c0.012,2.359,0.299,4.468,3.092,4.468c0.26-0.028,0.427-0.168,0.427-0.438
	c0-0.359-0.407-0.455-0.628-0.479c-0.365-0.039-2.088,0.081-1.883-3.554h2.654c0.313,0,0.57,0.256,0.57,0.573v1.729
	c-1.391-0.189-1.343-0.75-1.366-0.927c-0.022-0.139-0.101-0.392-0.409-0.392c-0.231,0-0.352,0.104-0.375,0.267
	c0,1.229,0.904,1.679,2.15,1.841v2.461c-5.15,0.282-5.13-3.213-5.13-3.526c0-0.314-0.085-0.913-0.459-0.913
	c-0.376,0-0.563,0.237-0.604,0.616c0,4.032,2.926,4.729,6.193,4.762v1.02c-3.27,0.033-6.193,0.729-6.193,4.765
	c0.041,0.375,0.229,0.613,0.604,0.613c0.374,0,0.459-0.598,0.459-0.912c0-0.313-0.022-3.81,5.13-3.524v2.46
	c-1.246,0.164-2.15,0.613-2.15,1.841c0.023,0.163,0.144,0.266,0.375,0.266c0.31,0,0.387-0.25,0.409-0.388
	c0.023-0.178-0.024-0.735,1.366-0.927v1.636h0.031l-0.399,0.343h-2.87c-0.087-3.298,1.543-3.195,1.896-3.231
	c0.221-0.021,0.629-0.117,0.629-0.476c0-0.271-0.167-0.404-0.427-0.439c-2.666,0-3.051,1.925-3.09,4.146h-2.901
	c-0.015-1.559-0.323-2.742-0.806-3.646c0.804-0.458,1.569-1.104,2.107-2.027c1.734-2.97-2.652-3.712-2.757-1.45
	c-0.036,0.955,1.451,1.311,1.451,0.354c0.097,0.244,0.178,1.403-1.364,2.271c-1.657-2.027-4.337-2.039-5.176-1.982L19.979,6.227
	L19.979,6.227z M19.979,14.321c0.595-0.271,1.442-0.776,1.93-1.62c0.806-1.412-0.034-1.94-0.849-1.996
	c-0.812-0.056-0.827,0.838,0.064,0.851c0.783,0.013,0.039,1.33-1.146,1.854V9.904c5.561-0.183,5.655,4.61,5.614,5.572h-3.539
	c0.524-1.185,1.838-1.925,1.851-1.145c0.012,0.895,0.906,0.88,0.849,0.067c-0.057-0.814-0.584-1.655-1.994-0.851
	c-0.845,0.483-1.347,1.324-1.617,1.927H20.55c-0.315,0-0.572-0.259-0.572-0.572L19.979,14.321L19.979,14.321z M19.979,18.087
	c1.186,0.522,1.93,1.843,1.146,1.854c-0.893,0.011-0.876,0.903-0.064,0.851c0.813-0.056,1.654-0.584,0.849-1.996
	c-0.485-0.844-1.334-1.351-1.93-1.622v-0.58c0-0.313,0.258-0.571,0.571-0.571h0.594c0.27,0.599,0.771,1.438,1.617,1.922
	c1.408,0.809,1.938-0.031,1.992-0.846c0.058-0.813-0.836-0.828-0.848,0.065c-0.014,0.781-1.326,0.04-1.85-1.143h3.539
	c0.039,0.961-0.056,5.752-5.615,5.567L19.979,18.087L19.979,18.087z M5.553,27.699v-0.303V26.68
	c1.409-0.045,4.538-0.061,5.278,0.646c0.787,0.754-3.624,0.688-5.278,0.643V27.699z M19.229,2.432l-0.839,0.452l0.839,0.447v0.012
	l-0.839,0.451l0.839,0.448v0.012l-0.839,0.45l0.839,0.447v0.438c-2.567-0.358-2.504-1.619-2.423-1.821
	c0,0.562,0.875,0.353,0.852-0.207c-0.063-1.336-2.646-0.896-1.626,0.854c0.824,1.409,2.556,1.736,3.197,1.812v1.995v0.772v13.51
	v2.768c-0.641,0.072-2.373,0.398-3.197,1.813c-1.019,1.748,1.563,2.188,1.626,0.854c0.023-0.563-0.852-0.771-0.852-0.207
	c-0.082-0.201-0.144-1.461,2.423-1.824v0.439l-0.839,0.445l0.839,0.453v0.01l-0.839,0.447l0.839,0.451v0.014l-0.839,0.445
	l0.839,0.453v0.061c0,0.318-0.258,0.574-0.576,0.574h-4.41c-0.006-3.527,1.723-4.271,2.396-4.656
	c0.687-0.396,1.395-0.502,1.497-0.729c0.108-0.229,0-0.729-0.707-0.627c-1.14,0.152-1.976,0.598-2.586,1.184
	c-0.841-0.117-2.498-0.646-3.642-1.71c-1.498-1.395-2.753-0.861-2.753-0.861s1.376-0.354,2.651,1.458
	c0.922,1.311,2.248,1.947,2.916,2.203c-0.792,1.42-0.839,3.088-0.828,3.738H8.775H6.124c-0.314,0-0.569-0.256-0.569-0.572v-0.355
	h6.716c0,0-0.307-2.932-1.805-2.932H5.555v-1.184h2.38h1.81c0,0-0.167-1.148-0.78-1.238c-0.616-0.093-0.762,0.496-1.191,0.564
	c-0.434,0.064-1.153,0.021-1.153-2.192v-1.016c0.172-1.209,1.439-1.02,2.263-0.353c0.882,0.715,1.974,1.279,1.974,1.279h-0.003
	c0.664,0.338,1.427,0.527,2.243,0.527c2.561,0,4.64-1.904,4.64-4.254c0-2.354-2.079-4.26-4.64-4.26c-2.259,0-4.137,1.477-4.556,3.43
	c-0.004-0.006-0.004-0.009-0.009-0.016c-0.375,1.774-1.903,1.91-2.977,1.768V18.79V18v-0.106c0.378,0.055,1.015,0.103,1.436-0.119
	c0.637-0.334,1.15-1.203,1.15-4.379c0-3.175,1.377-3.707,3.021-3.707s3.635-0.061,4.13-0.061c0.494,0,2.344-0.062,2.344,2.778
	c0,2.841-0.042,3.908,0.426,4.121c-0.078-0.784-0.119-1.476-0.036-2.856c0.081-1.381,0.595-4.73-1.192-4.81
	c-1.789-0.082-5.978,0-6.475,0c-0.491,0-2.548-0.103-2.771,1.26c-0.227,1.359-0.044,3.709-0.208,4.91
	c-0.165,1.203-1.213,2.152-1.437,1.005c-0.226-1.142,0.432,0.217,0.516-1.201c0.05-0.92-0.506-0.937-0.905-0.836V13.5v-0.791v-2.458
	V9.314V8.292c3.26-0.028,6.192-0.729,6.192-4.762c-0.042-0.379-0.23-0.616-0.605-0.616c-0.376,0-0.458,0.6-0.458,0.914
	c0,0.313,0.02,3.811-5.129,3.526V4.894c1.244-0.162,2.148-0.613,2.148-1.84C7.677,2.89,7.559,2.787,7.327,2.787
	c-0.306,0-0.389,0.252-0.41,0.393C6.892,3.355,6.945,3.913,5.555,4.105V2.375c0-0.316,0.255-0.572,0.569-0.572h2.652
	c0.208,3.635-1.518,3.514-1.885,3.553C6.671,5.377,6.268,5.475,6.268,5.834c0,0.271,0.164,0.408,0.421,0.438
	c2.795,0,3.086-2.108,3.098-4.467h3.4c-0.027,1.146,0.15,5.471,4.242,6.012c0.707,0.102,0.814-0.396,0.707-0.627
	c-0.102-0.229-0.81-0.332-1.497-0.729c-0.672-0.389-2.402-1.13-2.396-4.655h4.41c0.318,0,0.576,0.256,0.576,0.571L19.229,2.432
	L19.229,2.432z M9.421,17.975c0-1.861,1.643-3.369,3.674-3.369c2.023,0,3.667,1.508,3.667,3.369c0,1.855-1.644,3.363-3.667,3.363
	C11.065,21.338,9.421,19.832,9.421,17.975 M40.259,37.436v2.248c-1.412-0.338-1.369-1.115-1.314-1.25c0,0.414,0.645,0.26,0.628-0.15
	c-0.047-0.98-1.942-0.658-1.192,0.625c0.457,0.785,1.293,1.113,1.879,1.248v4.061c0,0.039-0.03,0.072-0.067,0.072h-3.037
	c-0.044-2.195-0.437-4.08-3.069-4.08c-0.255,0.027-0.423,0.164-0.423,0.438c0,0.352,0.405,0.445,0.621,0.471
	c0.354,0.039,1.96-0.068,1.89,3.174h-3.029c-0.041,0-0.072-0.031-0.072-0.072v-1.838c1.266,0.203,1.217,0.73,1.238,0.9
	c0.021,0.137,0.101,0.387,0.406,0.387c0.233,0,0.35-0.102,0.375-0.262c0-1.186-0.843-1.641-2.021-1.813v-2.471
	c5.001-0.217,4.979,3.201,4.979,3.512c0,0.314,0.08,0.904,0.451,0.904c0.377,0,0.562-0.238,0.602-0.611
	c0-3.959-2.836-4.68-6.032-4.727v-1.033c0-0.018,0.005-0.035,0.021-0.051c0.013-0.016,0.027-0.02,0.051-0.02h0.272l0.452,0.832
	l0.441-0.832h0.011l0.448,0.832l0.443-0.832h0.012l0.449,0.832l0.442-0.832h0.011l0.451,0.832l0.441-0.832h0.01l0.453,0.832
	l0.443-0.832h1.969l0.396,0.338H40.259L40.259,37.436z M39.893,36.441h-1.969l-0.443-0.834l-0.453,0.834h-0.01l-0.441-0.834
	l-0.451,0.834h-0.011l-0.442-0.834l-0.449,0.834h-0.014l-0.441-0.834l-0.448,0.834H34.31l-0.442-0.834l-0.452,0.834h-0.271
	c-0.022,0-0.039-0.008-0.051-0.021c-0.017-0.016-0.021-0.027-0.021-0.051v-1.033c3.197-0.043,6.031-0.766,6.031-4.725
	c-0.038-0.375-0.223-0.613-0.6-0.613c-0.371,0-0.451,0.594-0.451,0.908c0,0.305,0.021,3.729-4.98,3.504v-2.465
	c1.179-0.174,2.021-0.631,2.021-1.814c-0.025-0.16-0.143-0.264-0.377-0.264c-0.306,0-0.386,0.252-0.406,0.387
	c-0.021,0.17,0.027,0.699-1.237,0.906v-1.469h-2.64c-0.205-3.629,1.518-3.512,1.883-3.555c0.221-0.021,0.629-0.119,0.629-0.475
	c0-0.271-0.167-0.404-0.426-0.438c-2.795,0-3.082,2.105-3.094,4.465h-3.404c0.023-1.148-0.146-5.469-4.244-6.014
	c-0.707-0.102-0.811,0.398-0.707,0.629c0.099,0.227,0.811,0.33,1.496,0.73c0.676,0.387,2.404,1.127,2.398,4.654h-4.412
	c-0.314,0-0.572-0.254-0.572-0.572v-0.063l0.836-0.453l-0.836-0.445v-0.014l0.836-0.449l-0.836-0.447v-0.012l0.836-0.453
	l-0.836-0.443v-0.439c2.563,0.361,2.5,1.623,2.42,1.822c0-0.563-0.872-0.354-0.856,0.207c0.064,1.336,2.648,0.896,1.626-0.854
	c-0.824-1.41-2.554-1.736-3.189-1.813v-2.767c0.841,0.056,3.521,0.043,5.176-1.98c1.543,0.864,1.462,2.023,1.363,2.271
	c0-0.955-1.485-0.603-1.449,0.353c0.105,2.265,4.49,1.521,2.756-1.448c-0.537-0.925-1.305-1.572-2.105-2.027
	c0.48-0.904,0.789-2.089,0.805-3.645h2.902c0.039,2.223,0.424,4.143,3.088,4.143c0.26-0.032,0.428-0.166,0.428-0.439
	c0-0.354-0.408-0.448-0.629-0.475c-0.354-0.038-1.981,0.068-1.896-3.229h2.87l0.398,0.338h-0.03v1.639
	c-1.392-0.188-1.343-0.751-1.366-0.928c-0.021-0.138-0.102-0.388-0.41-0.388c-0.23,0-0.351,0.101-0.376,0.267
	c0,1.225,0.906,1.679,2.152,1.839v2.459c-5.151,0.284-5.13-3.213-5.13-3.524c0-0.315-0.085-0.911-0.459-0.911
	c-0.376,0-0.564,0.238-0.604,0.614c0,4.034,2.925,4.729,6.193,4.765v1.021c-3.269,0.027-6.193,0.725-6.193,4.756
	c0.04,0.381,0.229,0.617,0.604,0.617c0.373,0,0.459-0.598,0.459-0.914c0-0.311-0.022-3.807,5.13-3.525v2.463
	c-1.246,0.162-2.152,0.613-2.152,1.838c0.025,0.164,0.146,0.27,0.376,0.27c0.311,0,0.389-0.252,0.41-0.389
	c0.023-0.178-0.023-0.738,1.366-0.928v1.729c0,0.045-0.008,0.086-0.015,0.129h2.529c0.071,3.238-1.533,3.135-1.89,3.17
	c-0.215,0.025-0.62,0.119-0.62,0.475c0,0.27,0.168,0.402,0.423,0.436c2.634,0,3.025-1.887,3.069-4.078h3.037
	c0.037,0,0.068,0.029,0.068,0.07v4.059c-0.586,0.139-1.424,0.465-1.879,1.25c-0.75,1.285,1.146,1.604,1.191,0.629
	c0.018-0.414-0.628-0.566-0.628-0.152c-0.054-0.137-0.097-0.916,1.313-1.254v2.25h0.028L39.893,36.441z M48.134,38.199
	c-3.196,0.049-6.035,0.768-6.035,4.729c0.039,0.371,0.229,0.609,0.597,0.609c0.375,0,0.459-0.588,0.459-0.904
	c0-0.309-0.019-3.729,4.979-3.51v2.469c-1.178,0.17-2.021,0.629-2.021,1.813c0.021,0.16,0.144,0.262,0.373,0.262
	c0.302,0,0.392-0.25,0.405-0.385c0.025-0.17-0.021-0.699,1.242-0.902v1.84c0,0.039-0.035,0.072-0.074,0.072h-3.028
	c-0.073-3.242,1.532-3.137,1.886-3.174c0.221-0.023,0.622-0.121,0.622-0.471c0-0.273-0.164-0.408-0.425-0.438
	c-2.632,0-3.021,1.885-3.064,4.08h-3.041c-0.035,0-0.066-0.033-0.066-0.074v-4.061c0.584-0.135,1.422-0.461,1.881-1.246
	c0.749-1.285-1.146-1.605-1.191-0.627c-0.017,0.41,0.627,0.566,0.627,0.152c0.055,0.135,0.096,0.91-1.315,1.25v-2.25h-0.024
	l0.391-0.338h1.972l0.442,0.834l0.447-0.834h0.016l0.437,0.834l0.454-0.834h0.01l0.443,0.834l0.453-0.834h0.006l0.445,0.834
	l0.451-0.834h0.008l0.445,0.834l0.449-0.834h0.274c0.021,0,0.034,0.006,0.049,0.021c0.013,0.014,0.022,0.031,0.022,0.049
	L48.134,38.199L48.134,38.199L48.134,38.199z M48.134,31.164c-1.263-0.207-1.217-0.734-1.24-0.904
	c-0.016-0.137-0.105-0.389-0.406-0.389c-0.23,0-0.354,0.105-0.374,0.266c0,1.182,0.845,1.641,2.021,1.814v2.465
	c-4.998,0.223-4.979-3.199-4.979-3.504c0-0.316-0.084-0.91-0.459-0.91c-0.367,0-0.558,0.238-0.597,0.613
	c0,3.959,2.839,4.682,6.035,4.727v1.033c0,0.021-0.011,0.033-0.021,0.051c-0.016,0.014-0.027,0.021-0.05,0.021h-0.274l-0.449-0.836
	l-0.444,0.836h-0.009l-0.453-0.836l-0.443,0.836h-0.006l-0.453-0.836l-0.443,0.836h-0.01l-0.454-0.836l-0.438,0.836h-0.015
	l-0.447-0.836l-0.442,0.836h-1.972l-0.391-0.34h0.023v-2.25c1.411,0.338,1.37,1.115,1.316,1.254c0-0.412-0.645-0.264-0.629,0.15
	c0.045,0.979,1.942,0.658,1.192-0.627c-0.459-0.783-1.296-1.109-1.88-1.25v-4.061c0-0.041,0.029-0.07,0.066-0.07h3.041
	c0.043,2.191,0.433,4.08,3.064,4.08c0.262-0.033,0.424-0.166,0.424-0.438c0-0.354-0.4-0.445-0.621-0.473
	c-0.354-0.035-1.959,0.068-1.887-3.172h3.029c0.039,0,0.074,0.029,0.074,0.07L48.134,31.164L48.134,31.164z"/>
<path fill="#FFFFFF" d="M48.063,37.098H47.79L47.34,37.93l-0.444-0.832h-0.009l-0.453,0.832l-0.443-0.832h-0.006l-0.453,0.832
	l-0.443-0.832h-0.01l-0.454,0.832l-0.438-0.832h-0.015l-0.447,0.832l-0.442-0.832h-1.972l-0.391,0.338h0.023v2.25
	c1.411-0.34,1.37-1.117,1.316-1.252c0,0.416-0.645,0.26-0.629-0.15c0.045-0.982,1.942-0.658,1.192,0.625
	c-0.459,0.787-1.296,1.113-1.88,1.246v4.063c0,0.039,0.029,0.072,0.066,0.072h3.041c0.043-2.193,0.433-4.08,3.064-4.08
	c0.262,0.029,0.424,0.164,0.424,0.439c0,0.35-0.4,0.443-0.621,0.469c-0.354,0.039-1.959-0.068-1.887,3.174h3.029
	c0.039,0,0.074-0.031,0.074-0.072v-1.838c-1.264,0.203-1.218,0.73-1.242,0.9c-0.012,0.135-0.103,0.385-0.403,0.385
	c-0.229,0-0.354-0.102-0.374-0.262c0-1.184,0.846-1.643,2.021-1.813v-2.469c-4.998-0.219-4.98,3.199-4.98,3.51
	c0,0.314-0.084,0.904-0.459,0.904c-0.368,0-0.557-0.238-0.596-0.609c0-3.961,2.838-4.682,6.035-4.729v-1.033
	c0-0.016-0.012-0.035-0.022-0.049C48.097,37.102,48.083,37.098,48.063,37.098"/>
<path fill="#FFFFFF" d="M48.063,29.254h-3.03c-0.071,3.238,1.533,3.135,1.888,3.17c0.219,0.025,0.62,0.121,0.62,0.475
	c0,0.27-0.163,0.402-0.424,0.436c-2.633,0-3.022-1.887-3.065-4.078h-3.039c-0.037,0-0.067,0.029-0.067,0.068v4.061
	c0.584,0.139,1.421,0.465,1.88,1.25c0.75,1.285-1.146,1.604-1.191,0.629c-0.017-0.414,0.629-0.566,0.629-0.152
	c0.053-0.137,0.094-0.916-1.317-1.254v2.25h-0.024l0.392,0.338h1.972l0.441-0.834l0.449,0.834h0.014l0.438-0.834l0.453,0.834h0.01
	l0.443-0.834l0.453,0.834h0.006l0.445-0.834l0.453,0.834h0.008l0.445-0.834l0.448,0.834h0.273c0.021,0,0.034-0.008,0.05-0.02
	c0.012-0.018,0.021-0.029,0.021-0.053V35.34c-3.196-0.043-6.035-0.766-6.035-4.725c0.039-0.375,0.229-0.613,0.597-0.613
	c0.375,0,0.459,0.594,0.459,0.906c0,0.307-0.019,3.729,4.979,3.506v-2.465c-1.177-0.174-2.021-0.631-2.021-1.813
	c0.021-0.16,0.144-0.264,0.374-0.264c0.301,0,0.391,0.25,0.404,0.387c0.025,0.17-0.021,0.699,1.242,0.904v-1.842
	C48.134,29.283,48.102,29.254,48.063,29.254"/>
<path fill="#FFFFFF" d="M37.925,37.098l-0.444,0.832l-0.453-0.832H37.02l-0.443,0.832l-0.449-0.832h-0.012l-0.443,0.832
	l-0.447-0.832h-0.012l-0.445,0.832l-0.447-0.832H34.31l-0.441,0.832l-0.452-0.832h-0.271c-0.023,0-0.04,0.004-0.053,0.021
	c-0.016,0.014-0.021,0.031-0.021,0.049v1.033c3.196,0.047,6.032,0.768,6.032,4.729c-0.039,0.371-0.223,0.607-0.6,0.607
	c-0.371,0-0.453-0.588-0.453-0.902c0-0.311,0.021-3.729-4.979-3.512v2.471c1.179,0.17,2.021,0.629,2.021,1.811
	c-0.024,0.16-0.142,0.262-0.375,0.262c-0.307,0-0.387-0.25-0.406-0.387c-0.021-0.168,0.027-0.697-1.238-0.9v1.838
	c0,0.041,0.031,0.074,0.072,0.074h3.029c0.07-3.242-1.533-3.137-1.89-3.174c-0.215-0.025-0.62-0.121-0.62-0.471
	c0-0.273,0.163-0.406,0.422-0.438c2.635,0,3.026,1.887,3.069,4.08h3.038c0.035,0,0.066-0.033,0.066-0.072v-4.063
	c-0.586-0.135-1.422-0.461-1.879-1.248c-0.748-1.283,1.146-1.605,1.193-0.625c0.018,0.41-0.628,0.564-0.628,0.152
	c-0.054,0.135-0.099,0.91,1.313,1.25v-2.25h0.027l-0.395-0.34h-1.967v0.004H37.925z"/>
<path fill="#FFFFFF" d="M40.259,33.854c-1.412,0.338-1.369,1.117-1.314,1.254c0-0.414,0.645-0.262,0.628,0.152
	c-0.047,0.977-1.942,0.656-1.192-0.629c0.457-0.785,1.293-1.111,1.879-1.25V29.32c0-0.039-0.03-0.068-0.067-0.068h-3.037
	c-0.044,2.191-0.437,4.078-3.069,4.078c-0.26-0.031-0.423-0.166-0.423-0.436c0-0.355,0.405-0.447,0.621-0.475
	c0.354-0.035,1.96,0.068,1.89-3.17h-2.531c-0.059,0.254-0.283,0.441-0.557,0.441h-0.015v1.471c1.265-0.205,1.217-0.734,1.237-0.904
	c0.021-0.137,0.102-0.387,0.406-0.387c0.234,0,0.351,0.104,0.377,0.264c0,1.182-0.844,1.641-2.021,1.814v2.465
	c5.001,0.223,4.979-3.195,4.979-3.504c0-0.316,0.082-0.908,0.453-0.908c0.377,0,0.561,0.236,0.601,0.611
	c0,3.959-2.835,4.682-6.032,4.727v1.033c0,0.021,0.005,0.035,0.021,0.051c0.012,0.014,0.026,0.021,0.051,0.021h0.271l0.452-0.836
	l0.44,0.836h0.012l0.449-0.836l0.443,0.836h0.012l0.447-0.836l0.443,0.836h0.011l0.451-0.836l0.442,0.836h0.009l0.453-0.836
	l0.444,0.836h1.967l0.396-0.338h-0.028L40.259,33.854L40.259,33.854L40.259,33.854z"/>
<path fill="#FFFFFF" d="M20.552,15.477h0.593c0.27-0.603,0.771-1.441,1.616-1.927c1.41-0.807,1.938,0.034,1.994,0.851
	c0.058,0.813-0.836,0.826-0.849-0.067c-0.013-0.78-1.326-0.04-1.851,1.145h3.539c0.039-0.961-0.055-5.754-5.614-5.572v3.506
	c1.185-0.522,1.929-1.842,1.146-1.854c-0.893-0.014-0.876-0.904-0.064-0.852c0.813,0.056,1.654,0.584,0.848,1.996
	c-0.486,0.844-1.334,1.351-1.929,1.621v0.583C19.979,15.219,20.236,15.477,20.552,15.477"/>
<path fill="#FFFFFF" d="M25.155,10.975c1.542-0.865,1.461-2.024,1.364-2.271c0,0.956-1.487,0.603-1.451-0.354
	c0.104-2.261,4.491-1.519,2.757,1.452c-0.538,0.921-1.305,1.568-2.107,2.026c0.481,0.903,0.791,2.089,0.806,3.646h2.901
	c0.039-2.223,0.424-4.146,3.09-4.146c0.259,0.034,0.427,0.169,0.427,0.44c0,0.355-0.408,0.452-0.629,0.475
	c-0.353,0.037-1.986-0.063-1.896,3.23h2.87l0.399-0.341h-0.031v-1.637c-1.391,0.189-1.343,0.749-1.366,0.928
	c-0.022,0.136-0.101,0.388-0.409,0.388c-0.231,0-0.352-0.104-0.375-0.267c0-1.227,0.904-1.677,2.15-1.841v-2.459
	c-5.148-0.283-5.13,3.212-5.13,3.524c0,0.314-0.085,0.912-0.459,0.912c-0.376,0-0.563-0.238-0.604-0.613
	c0-4.036,2.926-4.729,6.193-4.765V8.284c-3.27-0.03-6.193-0.729-6.193-4.763c0.041-0.377,0.229-0.615,0.604-0.615
	c0.374,0,0.459,0.6,0.459,0.914c0,0.313-0.021,3.809,5.13,3.524V4.883c-1.246-0.159-2.15-0.612-2.15-1.84
	c0.023-0.164,0.144-0.266,0.375-0.266c0.31,0,0.387,0.252,0.409,0.391c0.023,0.178-0.024,0.735,1.366,0.926V2.366
	c0-0.316-0.257-0.573-0.57-0.573h-2.656c-0.203,3.634,1.521,3.516,1.885,3.554c0.221,0.021,0.628,0.119,0.628,0.479
	c0,0.271-0.166,0.407-0.427,0.438c-2.793,0-3.08-2.108-3.092-4.469H26.02c0.023,1.148-0.146,5.474-4.244,6.015
	c-0.707,0.101-0.811-0.396-0.707-0.628c0.099-0.229,0.811-0.334,1.496-0.729c0.676-0.388,2.404-1.13,2.398-4.657H20.55
	c-0.314,0-0.572,0.256-0.572,0.573v0.06l0.836,0.455L19.979,3.33v0.012l0.836,0.451l-0.836,0.448v0.012l0.836,0.45L19.979,5.15
	v0.437c2.563-0.359,2.5-1.618,2.42-1.821c0,0.563-0.872,0.353-0.855-0.209c0.064-1.334,2.648-0.896,1.625,0.854
	c-0.824,1.409-2.554,1.737-3.188,1.812V8.99C20.818,8.938,23.499,8.948,25.155,10.975"/>
<path fill="#FFFFFF" d="M25.595,16.022h-3.539c0.523,1.182,1.836,1.924,1.85,1.143c0.012-0.896,0.904-0.882,0.85-0.065
	c-0.057,0.813-0.584,1.652-1.994,0.846c-0.846-0.483-1.348-1.324-1.617-1.922h-0.594c-0.313,0-0.57,0.256-0.57,0.571v0.58
	c0.595,0.271,1.443,0.777,1.929,1.622c0.806,1.411-0.033,1.938-0.849,1.993c-0.811,0.057-0.826-0.838,0.065-0.848
	c0.783-0.012,0.039-1.33-1.146-1.854v3.505C25.541,21.774,25.634,16.981,25.595,16.022"/>
<path fill="#FFFFFF" d="M33.641,29.254c0.008-0.043,0.015-0.084,0.015-0.129v-1.729c-1.392,0.188-1.343,0.75-1.366,0.928
	c-0.021,0.137-0.101,0.389-0.408,0.389c-0.232,0-0.353-0.104-0.377-0.27c0-1.227,0.905-1.676,2.151-1.838v-2.463
	c-5.151-0.281-5.13,3.215-5.13,3.525c0,0.316-0.085,0.914-0.459,0.914c-0.376,0-0.564-0.236-0.604-0.615
	c0-4.033,2.924-4.73,6.192-4.758v-1.021c-3.269-0.033-6.192-0.729-6.192-4.765c0.039-0.376,0.229-0.614,0.604-0.614
	c0.373,0,0.459,0.596,0.459,0.911c0,0.313-0.021,3.81,5.13,3.524v-2.459c-1.246-0.16-2.151-0.614-2.151-1.839
	c0.024-0.165,0.145-0.267,0.377-0.267c0.309,0,0.387,0.25,0.408,0.388c0.023,0.177-0.023,0.735,1.366,0.928v-1.639h0.03
	l-0.398-0.338h-2.87c-0.092,3.297,1.542,3.188,1.896,3.229c0.221,0.023,0.629,0.119,0.629,0.475c0,0.273-0.167,0.407-0.426,0.439
	c-2.666,0-3.051-1.92-3.09-4.143h-2.902c-0.014,1.556-0.323,2.737-0.805,3.645c0.803,0.455,1.568,1.104,2.106,2.027
	c1.733,2.969-2.651,3.713-2.752,1.448c-0.041-0.954,1.446-1.308,1.446-0.353c0.097-0.245,0.177-1.405-1.365-2.271
	c-1.656,2.024-4.336,2.036-5.175,1.98v2.767c0.636,0.076,2.366,0.4,3.188,1.813c1.022,1.75-1.562,2.188-1.625,0.854
	c-0.016-0.561,0.855-0.77,0.855-0.207c0.082-0.201,0.144-1.461-2.419-1.822v0.439l0.835,0.443l-0.835,0.453v0.012l0.835,0.447
	l-0.835,0.449v0.014l0.835,0.445l-0.835,0.453v0.063c0,0.318,0.257,0.572,0.571,0.572h4.412c0.006-3.525-1.724-4.27-2.398-4.654
	c-0.688-0.396-1.397-0.504-1.496-0.73c-0.104-0.229,0-0.729,0.707-0.629c4.098,0.545,4.268,4.863,4.244,6.014h3.404
	c0.013-2.357,0.299-4.465,3.092-4.465c0.26,0.029,0.428,0.164,0.428,0.438c0,0.355-0.408,0.451-0.629,0.475
	c-0.364,0.043-2.086-0.074-1.885,3.555h2.642h0.017C33.356,29.695,33.582,29.508,33.641,29.254"/>
<path fill="#FFFFFF" d="M10.832,27.326c-0.74-0.709-3.869-0.691-5.278-0.646v0.719v0.303v0.27
	C7.211,28.018,11.619,28.082,10.832,27.326"/>
<path fill="#FFFFFF" d="M18.653,1.797h-4.41c-0.006,3.526,1.723,4.271,2.396,4.657c0.687,0.396,1.395,0.5,1.497,0.729
	c0.107,0.229,0,0.728-0.707,0.627c-4.092-0.541-4.269-4.865-4.242-6.015h-3.4c-0.012,2.359-0.303,4.47-3.098,4.47
	C6.433,6.237,6.269,6.098,6.269,5.828c0-0.358,0.404-0.455,0.623-0.478c0.367-0.039,2.092,0.08,1.885-3.555H6.125
	c-0.314,0-0.569,0.257-0.569,0.573v1.729c1.39-0.189,1.337-0.75,1.362-0.927c0.021-0.139,0.104-0.391,0.41-0.391
	c0.232,0,0.351,0.104,0.376,0.266c0,1.228-0.905,1.681-2.147,1.841v2.461c5.149,0.282,5.129-3.209,5.129-3.524
	s0.082-0.914,0.458-0.914c0.375,0,0.563,0.239,0.605,0.616c0,4.033-2.932,4.729-6.192,4.762v1.021v0.938v2.46v0.791v0.499
	c0.399-0.102,0.955-0.083,0.905,0.837c-0.084,1.417-0.742,0.061-0.516,1.2c0.223,1.148,1.272,0.199,1.437-1.004
	c0.164-1.201-0.019-3.553,0.208-4.911c0.223-1.36,2.279-1.261,2.771-1.261c0.497,0,4.683-0.082,6.474,0
	c1.787,0.078,1.272,3.43,1.192,4.812c-0.083,1.382-0.042,2.071,0.036,2.856c-0.468-0.213-0.426-1.281-0.426-4.121
	s-1.851-2.779-2.344-2.779c-0.495,0-2.487,0.06-4.13,0.06s-3.021,0.534-3.021,3.707c0,3.178-0.513,4.047-1.15,4.379
	c-0.42,0.223-1.057,0.176-1.436,0.121v0.105v0.789v0.108c1.074,0.143,2.602,0.008,2.977-1.769c0.005,0.008,0.005,0.01,0.009,0.019
	c0.418-1.955,2.296-3.433,4.556-3.433c2.561,0,4.64,1.905,4.64,4.261c0,2.348-2.079,4.254-4.64,4.254
	c-0.816,0-1.579-0.19-2.243-0.528h0.003c0,0-1.092-0.563-1.974-1.279c-0.823-0.667-2.091-0.855-2.263,0.352v1.017
	c0,2.216,0.721,2.257,1.153,2.193c0.43-0.066,0.575-0.656,1.191-0.564c0.614,0.089,0.78,1.24,0.78,1.24h-1.81h-2.38v1.182h4.911
	c1.498,0,1.805,2.932,1.805,2.932H5.556v0.355c0,0.318,0.255,0.572,0.569,0.572h2.652h4.412c-0.012-0.65,0.036-2.318,0.828-3.738
	c-0.667-0.256-1.994-0.896-2.916-2.203c-1.274-1.811-2.651-1.459-2.651-1.459s1.255-0.53,2.753,0.862
	c1.145,1.066,2.8,1.593,3.642,1.71c0.61-0.586,1.446-1.029,2.586-1.182c0.707-0.104,0.814,0.396,0.707,0.627
	c-0.102,0.227-0.81,0.332-1.497,0.729c-0.672,0.387-2.402,1.127-2.396,4.654h4.41c0.318,0,0.576-0.254,0.576-0.572v-0.059
	l-0.839-0.455l0.839-0.445v-0.012l-0.839-0.451l0.839-0.447v-0.012l-0.839-0.453l0.839-0.443v-0.439
	c-2.567,0.361-2.504,1.621-2.422,1.822c0-0.563,0.875-0.354,0.851,0.207c-0.063,1.336-2.644,0.896-1.625-0.852
	c0.824-1.414,2.556-1.738,3.196-1.814v-2.766V8.994V8.223V6.227c-0.641-0.074-2.373-0.402-3.196-1.813
	c-1.021-1.75,1.563-2.188,1.625-0.854c0.023,0.561-0.851,0.771-0.851,0.209c-0.082,0.201-0.145,1.461,2.422,1.82V5.153l-0.839-0.446
	l0.839-0.45V4.245l-0.839-0.448l0.839-0.451V3.333l-0.839-0.446l0.839-0.453V2.371C19.229,2.053,18.97,1.797,18.653,1.797"/>
<path fill="#FFFFFF" d="M16.761,17.975c0-1.861-1.644-3.369-3.667-3.369c-2.03,0-3.674,1.508-3.674,3.369
	c0,1.855,1.643,3.363,3.674,3.363C15.118,21.338,16.761,19.832,16.761,17.975 M12.97,15.428c1.391,0,2.54,0.959,2.708,2.198
	c-2.375-0.558-4.678,0.05-5.441,0.291C10.245,16.542,11.463,15.428,12.97,15.428 M10.316,18.528c2.742-0.76,4.609-0.469,5.359-0.273
	c-0.172,1.232-1.317,2.185-2.705,2.185C11.683,20.438,10.608,19.625,10.316,18.528"/>
</svg>
