<?xml version="1.0" encoding="utf-8"?>
<!-- Generator: Adobe Illustrator 16.0.3, SVG Export Plug-In . SVG Version: 6.00 Build 0)  -->
<!DOCTYPE svg PUBLIC "-//W3C//DTD SVG 1.1//EN" "http://www.w3.org/Graphics/SVG/1.1/DTD/svg11.dtd">
<svg version="1.1" id="レイヤー_1" xmlns="http://www.w3.org/2000/svg" xmlns:xlink="http://www.w3.org/1999/xlink" x="0px"
	 y="0px" width="381.672px" height="46.111px" viewBox="0 0 381.672 46.111" enable-background="new 0 0 381.672 46.111"
	 xml:space="preserve">
<polygon fill="#FFFFFF" points="83.723,12.74 83.723,14.6 76.143,14.6 76.143,34.644 70.768,34.644 70.768,14.6 63.185,14.6 
	63.185,12.74 "/>
<path fill="#FFFFFF" d="M92.199,12.264l10.256,22.381h-5.491l-2.737-5.986h-8.501l-2.876,5.986h-3.663l10.693-22.381H92.199z
	 M86.721,26.612h6.601l-3.248-7.077L86.721,26.612z"/>
<polygon fill="#FFFFFF" points="109.414,24.212 109.414,34.644 104.048,34.644 104.048,12.74 109.414,12.74 109.414,22.335 
	118.23,22.335 118.23,12.74 123.551,12.74 123.551,34.644 118.23,34.644 118.23,24.212 "/>
<rect x="127.676" y="12.74" fill="#FFFFFF" width="5.373" height="21.905"/>
<polygon fill="#FFFFFF" points="156.541,12.74 156.541,14.6 148.96,14.6 148.96,34.644 143.591,34.644 143.591,14.6 136.008,14.6 
	136.008,12.74 "/>
<rect x="159.502" y="12.74" fill="#FFFFFF" width="5.368" height="21.905"/>
<path fill="#FFFFFF" d="M177.125,12.494h7.462c1.208,0,2.33,0.126,3.383,0.374c1.05,0.263,1.962,0.643,2.724,1.142
	c0.772,0.499,1.396,1.129,1.835,1.879c0.437,0.761,0.667,1.637,0.667,2.632c0,1.026-0.222,1.899-0.652,2.653
	c-0.452,0.751-1.02,1.381-1.744,1.89c-0.72,0.5-1.544,0.874-2.47,1.121c-0.911,0.252-1.863,0.38-2.816,0.38h-3.107v9.362h-5.28
	L177.125,12.494L177.125,12.494z M182.406,22.622h1.716c0.593,0,1.104-0.108,1.555-0.319c0.456-0.224,0.819-0.517,1.121-0.89
	c0.291-0.36,0.512-0.799,0.652-1.283c0.157-0.491,0.223-0.997,0.223-1.523c0-0.648-0.094-1.224-0.284-1.721
	c-0.187-0.504-0.46-0.922-0.788-1.271c-0.339-0.334-0.74-0.602-1.182-0.772c-0.45-0.181-0.931-0.28-1.452-0.28h-1.562
	L182.406,22.622L182.406,22.622z"/>
<path fill="#FFFFFF" d="M197.563,12.494h8.052c1.388,0,2.604,0.142,3.644,0.431c1.045,0.3,1.91,0.697,2.605,1.224
	c0.689,0.516,1.214,1.138,1.555,1.851c0.345,0.713,0.515,1.487,0.515,2.329c0,0.605-0.108,1.175-0.354,1.723
	c-0.229,0.548-0.563,1.045-0.998,1.506c-0.428,0.457-0.943,0.863-1.552,1.223c-0.6,0.358-1.27,0.65-1.998,0.879l7.628,10.266h-5.708
	l-7.201-9.714h-0.938v9.714h-5.246V12.494H197.563z M202.811,22.362h1.15c0.643,0,1.243-0.089,1.785-0.266
	c0.541-0.181,1.016-0.434,1.419-0.783c0.398-0.327,0.715-0.741,0.948-1.229c0.225-0.481,0.334-1.028,0.334-1.646
	c0-0.564-0.077-1.079-0.257-1.552c-0.168-0.474-0.42-0.879-0.726-1.226c-0.309-0.345-0.679-0.618-1.106-0.806
	c-0.424-0.192-0.895-0.292-1.411-0.292h-2.137V22.362L202.811,22.362z"/>
<path fill="#FFFFFF" d="M229.848,34.407c-1.164,0-2.259-0.128-3.317-0.388c-1.054-0.253-2.035-0.62-2.931-1.09
	c-0.911-0.471-1.738-1.045-2.478-1.714c-0.734-0.675-1.374-1.427-1.888-2.275c-0.52-0.84-0.92-1.757-1.21-2.743
	c-0.296-0.986-0.434-2.034-0.434-3.133c0-1.092,0.138-2.115,0.434-3.084c0.292-0.963,0.69-1.864,1.21-2.669
	c0.514-0.819,1.153-1.548,1.888-2.204c0.739-0.657,1.566-1.216,2.478-1.668c0.896-0.453,1.877-0.803,2.931-1.047
	c1.059-0.245,2.153-0.367,3.317-0.367c1.146,0,2.256,0.12,3.31,0.367c1.046,0.245,2.03,0.599,2.934,1.058
	c0.901,0.455,1.72,1.012,2.47,1.659c0.74,0.656,1.372,1.386,1.893,2.203c0.529,0.806,0.927,1.697,1.214,2.661
	c0.287,0.967,0.423,1.98,0.423,3.053c0,1.139-0.136,2.203-0.423,3.208c-0.287,1.006-0.685,1.929-1.214,2.771
	c-0.521,0.842-1.149,1.6-1.893,2.263c-0.75,0.669-1.568,1.235-2.47,1.698c-0.903,0.469-1.888,0.83-2.934,1.069
	C232.104,34.284,230.994,34.407,229.848,34.407 M229.848,32.592c1.032,0,1.955-0.248,2.758-0.727
	c0.802-0.47,1.467-1.135,2.015-1.982c0.538-0.849,0.949-1.854,1.222-3.019c0.283-1.162,0.419-2.436,0.419-3.8
	c0-1.365-0.136-2.6-0.419-3.733c-0.272-1.128-0.684-2.098-1.222-2.915c-0.546-0.81-1.213-1.447-2.015-1.901
	c-0.803-0.45-1.726-0.667-2.758-0.667c-1.063,0-1.979,0.217-2.784,0.667c-0.803,0.454-1.481,1.091-2.015,1.901
	c-0.54,0.816-0.943,1.787-1.224,2.915c-0.269,1.134-0.41,2.37-0.41,3.733c0,1.366,0.142,2.638,0.41,3.8
	c0.28,1.165,0.684,2.17,1.224,3.019c0.531,0.848,1.21,1.513,2.015,1.982C227.866,32.344,228.784,32.592,229.848,32.592"/>
<polygon fill="#FFFFFF" points="246.229,12.494 251.352,12.494 258.757,27.136 266.069,12.494 271.081,12.494 271.081,33.927 
	265.836,33.927 265.836,19.962 258.827,33.927 256.791,33.927 249.563,19.792 249.563,33.927 246.229,33.927 "/>
<path fill="#FFFFFF" d="M287.472,34.407c-1.156,0-2.259-0.128-3.314-0.388c-1.043-0.253-2.036-0.62-2.937-1.09
	c-0.899-0.471-1.719-1.045-2.465-1.714c-0.739-0.675-1.375-1.427-1.896-2.275c-0.523-0.84-0.927-1.757-1.211-2.743
	c-0.291-0.986-0.437-2.034-0.437-3.133c0-1.092,0.146-2.115,0.437-3.084c0.284-0.963,0.688-1.864,1.211-2.669
	c0.519-0.819,1.156-1.548,1.896-2.204c0.746-0.657,1.565-1.216,2.465-1.668c0.9-0.453,1.894-0.803,2.937-1.047
	c1.056-0.245,2.158-0.367,3.314-0.367c1.152,0,2.263,0.12,3.315,0.367c1.041,0.245,2.034,0.599,2.935,1.058
	c0.901,0.455,1.71,1.012,2.467,1.659c0.746,0.656,1.369,1.386,1.896,2.203c0.52,0.806,0.924,1.697,1.217,2.661
	c0.28,0.967,0.429,1.98,0.429,3.053c0,1.139-0.148,2.203-0.429,3.208c-0.293,1.006-0.697,1.929-1.217,2.771
	c-0.524,0.842-1.147,1.6-1.896,2.263c-0.757,0.669-1.565,1.235-2.467,1.698c-0.9,0.469-1.894,0.83-2.935,1.069
	C289.732,34.284,288.624,34.407,287.472,34.407 M287.472,32.592c1.039,0,1.958-0.248,2.762-0.727
	c0.797-0.47,1.466-1.135,2.007-1.982c0.551-0.849,0.955-1.854,1.229-3.019c0.28-1.162,0.412-2.436,0.412-3.8
	c0-1.365-0.132-2.6-0.412-3.733c-0.275-1.128-0.678-2.098-1.229-2.915c-0.541-0.81-1.208-1.447-2.007-1.901
	c-0.804-0.45-1.723-0.667-2.762-0.667c-1.052,0-1.975,0.217-2.788,0.667c-0.809,0.454-1.466,1.091-2.006,1.901
	c-0.541,0.816-0.946,1.787-1.225,2.915c-0.272,1.134-0.408,2.37-0.408,3.733c0,1.366,0.136,2.638,0.408,3.8
	c0.278,1.165,0.684,2.17,1.225,3.019c0.54,0.848,1.197,1.513,2.006,1.982C285.497,32.344,286.42,32.592,287.472,32.592"/>
<polygon fill="#FFFFFF" points="320.554,12.494 320.554,14.31 313.139,14.31 313.139,33.927 307.881,33.927 307.881,14.31 
	300.463,14.31 300.463,12.494 "/>
<rect x="324.544" y="12.494" fill="#FFFFFF" width="5.249" height="21.433"/>
<path fill="#FFFFFF" d="M346.404,34.407c-1.143,0-2.26-0.128-3.303-0.388c-1.056-0.253-2.034-0.62-2.943-1.09
	c-0.895-0.471-1.714-1.045-2.462-1.714c-0.749-0.675-1.376-1.427-1.899-2.275c-0.519-0.84-0.924-1.757-1.217-2.743
	c-0.277-0.986-0.425-2.034-0.425-3.133c0-1.092,0.147-2.115,0.425-3.084c0.293-0.963,0.698-1.864,1.217-2.669
	c0.525-0.819,1.152-1.548,1.899-2.204c0.748-0.657,1.567-1.216,2.462-1.668c0.909-0.453,1.888-0.803,2.943-1.047
	c1.043-0.245,2.16-0.367,3.303-0.367c1.162,0,2.263,0.12,3.315,0.367c1.053,0.245,2.03,0.599,2.934,1.058
	c0.902,0.455,1.736,1.012,2.47,1.659c0.741,0.656,1.379,1.386,1.898,2.203c0.514,0.806,0.921,1.697,1.207,2.661
	c0.289,0.967,0.43,1.98,0.43,3.053c0,1.139-0.139,2.203-0.43,3.208c-0.286,1.006-0.693,1.929-1.207,2.771
	c-0.52,0.842-1.157,1.6-1.898,2.263c-0.733,0.669-1.567,1.235-2.47,1.698c-0.901,0.469-1.879,0.83-2.934,1.069
	C348.669,34.284,347.568,34.407,346.404,34.407 M346.404,32.592c1.047,0,1.97-0.248,2.764-0.727c0.795-0.47,1.467-1.135,2.009-1.982
	c0.54-0.849,0.95-1.854,1.229-3.019c0.276-1.162,0.416-2.436,0.416-3.8c0-1.365-0.14-2.6-0.416-3.733
	c-0.278-1.128-0.688-2.098-1.229-2.915c-0.542-0.81-1.214-1.447-2.009-1.901c-0.794-0.45-1.717-0.667-2.764-0.667
	c-1.042,0-1.979,0.217-2.783,0.667c-0.8,0.454-1.472,1.091-2.007,1.901c-0.537,0.816-0.936,1.787-1.212,2.915
	c-0.285,1.134-0.427,2.37-0.427,3.733c0,1.366,0.142,2.638,0.427,3.8c0.276,1.165,0.675,2.17,1.212,3.019
	c0.535,0.848,1.205,1.513,2.007,1.982C344.423,32.344,345.36,32.592,346.404,32.592"/>
<polygon fill="#FFFFFF" points="362.799,12.494 366.165,12.494 378.373,26.128 378.373,12.494 381.672,12.494 381.672,34.253 
	379.396,34.253 366.121,19.204 366.121,33.927 362.799,33.927 "/>
<path fill="#FFFFFF" d="M13.601,34.459c-0.231,0.004-0.417,0.194-0.417,0.423v7.184c0,0.229,0.19,0.423,0.421,0.423h2.336v-2.181
	c0-0.59,0.482-1.069,1.072-1.069h0.004h8.605h0.004c0.286,0,0.552,0.11,0.754,0.312c0.202,0.204,0.313,0.469,0.313,0.757v2.182
	h5.362v-8.029H13.601z"/>
<path fill="#FFFFFF" d="M45.511,25.126c0.023-0.903,0.058-2.409-0.392-3.029l-5.915-5.91c-0.104-0.109-0.247-0.17-0.396-0.18
	c-0.523,0.098-0.58,0.267-0.58,0.617v11.656h7.272v-2.596C45.503,25.517,45.508,25.327,45.511,25.126"/>
<path fill="#FFFFFF" d="M11.712,39.979c0.101-0.102,0.101-0.261,0-0.359l-4.867-4.871c-0.064-0.062-0.133-0.073-0.175-0.073
	c-0.043,0-0.116,0.012-0.18,0.073l-4.963,4.968c-0.064,0.062-0.076,0.141-0.076,0.181c0,0.037,0.011,0.113,0.076,0.179l4.869,4.868
	c0.063,0.063,0.138,0.073,0.177,0.073c0.041,0,0.113-0.01,0.177-0.073L11.712,39.979z"/>
<path fill="#FFFFFF" d="M55.303,10.315c0.164-0.164,0.164-0.431,0-0.593l-8.192-8.193c-0.082-0.08-0.187-0.123-0.297-0.123
	c-0.108,0-0.213,0.044-0.292,0.123l-8.194,8.193c-0.164,0.162-0.164,0.429,0,0.593l8.194,8.192c0.078,0.081,0.184,0.123,0.292,0.123
	c0.11,0,0.215-0.043,0.297-0.123L55.303,10.315z"/>
<path fill="#171F55" d="M56.227,8.801L48.035,0.61c-0.327-0.324-0.756-0.502-1.215-0.502c-0.461,0-0.89,0.178-1.217,0.502
	l-8.191,8.191c-0.671,0.671-0.671,1.761,0,2.431l8.192,8.193c0.326,0.322,0.755,0.501,1.216,0.501c0.458,0,0.888-0.181,1.215-0.501
	l8.192-8.193C56.897,10.563,56.897,9.472,56.227,8.801 M55.308,10.315l-8.191,8.192c-0.079,0.081-0.185,0.124-0.296,0.124
	c-0.006,0-0.006-0.001-0.006-0.001c-0.108,0-0.213-0.043-0.292-0.123l-8.194-8.192c-0.164-0.164-0.164-0.431,0-0.593l8.194-8.193
	c0.078-0.08,0.184-0.123,0.292-0.123c0,0,0,0,0.006,0c0.111,0,0.217,0.044,0.296,0.123l8.191,8.193
	C55.474,9.884,55.474,10.15,55.308,10.315"/>
<path fill="#171F55" d="M24.244,41.275h-5.921c-0.16,0-0.287,0.126-0.287,0.285v1.912c0,0.154,0.127,0.28,0.287,0.28h5.921
	c0.159,0,0.292-0.126,0.292-0.28v-1.912C24.535,41.401,24.402,41.275,24.244,41.275"/>
<path fill="#171F55" d="M46.806,28.28v-2.597c0-0.147,0.003-0.335,0.008-0.524c0.032-1.231,0.073-2.921-0.689-3.886l-0.021-0.032
	l-5.974-5.973c-0.363-0.368-0.86-0.566-1.38-0.556h-0.048l-0.046,0.007c-1.421,0.234-1.719,1.166-1.719,1.905V28.28l-4.88,4.881
	H13.604c-0.948,0-1.715,0.773-1.715,1.723v3.065l-4.12-4.116c-0.291-0.293-0.684-0.454-1.094-0.454
	c-0.416,0-0.808,0.161-1.101,0.454l-4.965,4.963c-0.605,0.608-0.605,1.59,0,2.195l4.867,4.868c0.296,0.293,0.687,0.454,1.101,0.454
	c0.415,0,0.802-0.161,1.095-0.454l4.217-4.213v0.42c0,0.944,0.767,1.717,1.715,1.717h3.64v-3.249h8.152v3.249h6.659L46.806,28.28z
	 M11.719,39.979l-4.966,4.964c-0.062,0.066-0.141,0.074-0.177,0.074c-0.002,0-0.004,0-0.004,0c-0.039,0-0.113-0.01-0.177-0.074
	l-4.869-4.867c-0.064-0.065-0.076-0.143-0.076-0.18c0-0.04,0.011-0.117,0.076-0.182l4.963-4.968c0.063-0.061,0.137-0.072,0.18-0.072
	h0.004c0.038,0,0.112,0.011,0.174,0.072l4.871,4.872C11.819,39.718,11.819,39.877,11.719,39.979 M39.21,16.188l5.914,5.911
	c0.451,0.62,0.414,2.126,0.388,3.029c-0.002,0.201-0.006,0.39-0.006,0.558v2.596h-0.005h-7.272V16.625
	c0-0.349,0.057-0.519,0.58-0.617l0,0C38.965,16.016,39.107,16.077,39.21,16.188 M26.692,42.488v-2.181
	c0-0.287-0.11-0.554-0.313-0.756c-0.203-0.201-0.468-0.313-0.754-0.313h-0.004h-8.605c-0.589,0-1.071,0.48-1.071,1.069v2.18H15.94
	h-2.336c-0.229,0-0.421-0.192-0.421-0.422v-7.183c0-0.23,0.186-0.421,0.417-0.423c0,0,0,0,0.003,0h18.451l0,0v8.029h-5.362V42.488z"
	/>
<path fill="#171F55" d="M15.825,18.465c-0.75-0.194-2.617-0.486-5.358,0.274c0.292,1.097,1.365,1.909,2.653,1.909
	C14.507,20.648,15.651,19.697,15.825,18.465"/>
<path fill="#171F55" d="M15.829,17.839c-0.168-1.24-1.316-2.199-2.708-2.199c-1.507,0-2.725,1.115-2.732,2.489
	C11.151,17.888,13.454,17.281,15.829,17.839"/>
<path fill="#171F55" d="M32.053,43.783v0.564c0,0.751,0.609,1.356,1.36,1.356h14.707c0.754,0,1.361-0.605,1.361-1.356V29.641
	c0-0.754-0.607-1.36-1.361-1.36h-12.94V3.039c0-1.323-1.071-2.398-2.397-2.398H6.815c-1.328,0-2.399,1.076-2.399,2.398v25.969
	c0,1.325,1.071,2.399,2.399,2.399h25.237v1.754V43.783z M20.126,6.442c0.636-0.074,2.366-0.402,3.188-1.811
	c1.021-1.75-1.561-2.188-1.625-0.854c-0.015,0.56,0.856,0.77,0.856,0.208c0.081,0.203,0.144,1.462-2.418,1.821V5.37l0.835-0.447
	l-0.835-0.45V4.46l0.835-0.448L20.126,3.56V3.55l0.835-0.448l-0.835-0.453V2.588c0-0.317,0.258-0.572,0.572-0.572h4.409
	c0.006,3.525-1.721,4.268-2.398,4.655c-0.687,0.396-1.396,0.5-1.496,0.729c-0.103,0.231,0,0.729,0.707,0.627
	c4.096-0.541,4.267-4.861,4.242-6.01h3.403c0.012,2.357,0.299,4.465,3.092,4.465c0.258-0.028,0.426-0.167,0.426-0.438
	c0-0.358-0.408-0.455-0.628-0.477c-0.366-0.039-2.087,0.08-1.883-3.552h2.654c0.314,0,0.571,0.255,0.571,0.572v1.728
	c-1.39-0.19-1.343-0.75-1.366-0.925C32.408,3.252,32.328,3,32.021,3c-0.232,0-0.351,0.102-0.376,0.266
	c0,1.226,0.906,1.678,2.151,1.838v2.461c-5.149,0.284-5.127-3.212-5.127-3.524c0-0.314-0.085-0.914-0.458-0.914
	c-0.375,0-0.565,0.238-0.604,0.615c0,4.034,2.922,4.73,6.19,4.761v1.019c-3.268,0.032-6.19,0.727-6.19,4.76
	c0.04,0.376,0.228,0.612,0.604,0.612c0.373,0,0.458-0.595,0.458-0.912c0-0.313-0.022-3.806,5.127-3.523v2.459
	c-1.245,0.163-2.151,0.614-2.151,1.838c0.024,0.165,0.143,0.266,0.376,0.266c0.308,0,0.388-0.252,0.409-0.388
	c0.022-0.177-0.024-0.736,1.366-0.926v1.635h0.031l-0.399,0.341h-2.869c-0.087-3.296,1.542-3.192,1.896-3.229
	c0.22-0.021,0.628-0.118,0.628-0.475c0-0.271-0.167-0.406-0.426-0.44c-2.664,0-3.05,1.924-3.089,4.145h-2.9
	c-0.014-1.556-0.324-2.74-0.805-3.643c0.803-0.46,1.569-1.107,2.106-2.027c1.733-2.969-2.651-3.711-2.755-1.451
	c-0.036,0.956,1.45,1.311,1.45,0.354c0.098,0.245,0.178,1.404-1.363,2.269c-1.656-2.026-4.335-2.037-5.174-1.981V6.442L20.126,6.442
	z M20.126,14.535c0.594-0.27,1.443-0.777,1.929-1.621c0.806-1.411-0.033-1.939-0.847-1.996c-0.811-0.054-0.827,0.838,0.064,0.85
	c0.782,0.014,0.039,1.33-1.146,1.854v-3.505c5.559-0.181,5.652,4.609,5.614,5.571h-3.537c0.523-1.184,1.835-1.924,1.848-1.143
	c0.013,0.894,0.905,0.879,0.848,0.067c-0.056-0.814-0.584-1.655-1.992-0.849c-0.844,0.483-1.347,1.324-1.616,1.924h-0.592
	c-0.314,0-0.572-0.257-0.572-0.572L20.126,14.535L20.126,14.535z M20.126,18.298c1.185,0.524,1.929,1.842,1.146,1.854
	c-0.893,0.01-0.876,0.903-0.064,0.849c0.813-0.055,1.652-0.583,0.847-1.994c-0.485-0.843-1.334-1.35-1.929-1.621v-0.581
	c0-0.315,0.258-0.57,0.572-0.57h0.592c0.27,0.595,0.772,1.437,1.616,1.919c1.408,0.808,1.936-0.032,1.992-0.844
	c0.057-0.814-0.835-0.83-0.848,0.065c-0.013,0.783-1.325,0.041-1.848-1.141h3.537c0.039,0.959-0.055,5.748-5.613,5.567V18.298
	L20.126,18.298z M5.706,27.908v-0.303v-0.718c1.408-0.045,4.536-0.058,5.276,0.646c0.786,0.754-3.622,0.689-5.276,0.642V27.908z
	 M19.376,2.649l-0.837,0.453l0.838,0.448v0.01l-0.838,0.453l0.838,0.448v0.013l-0.838,0.45l0.838,0.447v0.438
	c-2.566-0.359-2.504-1.618-2.421-1.822c0,0.562,0.875,0.352,0.851-0.208c-0.062-1.333-2.644-0.896-1.625,0.855
	c0.824,1.409,2.555,1.736,3.196,1.811v1.995v0.768v13.504v2.767c-0.641,0.073-2.372,0.4-3.196,1.813
	c-1.018,1.747,1.563,2.185,1.625,0.852c0.022-0.561-0.851-0.769-0.851-0.206c-0.083-0.202-0.144-1.46,2.421-1.822v0.437
	l-0.838,0.446l0.838,0.454v0.01l-0.838,0.447l0.838,0.449v0.015l-0.838,0.444l0.838,0.455v0.063c0,0.316-0.257,0.571-0.575,0.571
	h-4.408c-0.007-3.527,1.723-4.265,2.395-4.653c0.686-0.397,1.394-0.502,1.496-0.728c0.108-0.229,0-0.73-0.707-0.628
	c-1.14,0.153-1.976,0.596-2.585,1.182c-0.841-0.116-2.496-0.646-3.641-1.71c-1.497-1.394-2.753-0.86-2.753-0.86
	s1.376-0.352,2.649,1.459c0.922,1.308,2.249,1.944,2.916,2.201c-0.792,1.422-0.838,3.088-0.827,3.738H8.926h-2.65
	c-0.314,0-0.57-0.256-0.57-0.571v-0.357h6.714c0,0-0.307-2.929-1.805-2.929H5.706v-1.183h2.379h1.81c0,0-0.166-1.149-0.779-1.238
	c-0.616-0.092-0.762,0.496-1.191,0.563c-0.433,0.066-1.152,0.023-1.152-2.192v-1.015c0.171-1.208,1.438-1.017,2.261-0.349
	c0.881,0.714,1.974,1.279,1.974,1.279h-0.003c0.663,0.336,1.426,0.529,2.241,0.529c2.561,0,4.638-1.905,4.638-4.253
	c0-2.353-2.078-4.257-4.638-4.257c-2.258,0-4.135,1.475-4.554,3.426c-0.004-0.005-0.004-0.007-0.009-0.014
	c-0.375,1.774-1.902,1.909-2.976,1.764v-0.107v-0.794v-0.107c0.378,0.056,1.016,0.102,1.436-0.119
	c0.637-0.334,1.149-1.202,1.149-4.378c0-3.172,1.376-3.706,3.019-3.706c1.644,0,3.634-0.06,4.129-0.06
	c0.493,0,2.344-0.061,2.344,2.779c0,2.838-0.042,3.906,0.427,4.119c-0.079-0.785-0.12-1.476-0.037-2.855
	c0.08-1.381,0.595-4.73-1.191-4.808c-1.789-0.082-5.975,0-6.473,0c-0.491,0-2.547-0.102-2.77,1.26
	c-0.228,1.357-0.044,3.708-0.208,4.908c-0.165,1.203-1.213,2.152-1.436,1.004c-0.226-1.141,0.431,0.216,0.515-1.2
	c0.05-0.92-0.506-0.938-0.905-0.835v-0.5v-0.791V10.46V9.523V8.504c3.257-0.032,6.188-0.728,6.188-4.762
	c-0.042-0.376-0.229-0.615-0.605-0.615s-0.458,0.598-0.458,0.914c0,0.313,0.02,3.808-5.127,3.524V5.104
	c1.242-0.16,2.147-0.612,2.147-1.838C7.827,3.103,7.709,3,7.477,3C7.171,3,7.088,3.252,7.067,3.391
	C7.043,3.567,7.097,4.125,5.706,4.316V2.588c0-0.317,0.255-0.572,0.57-0.572h2.65C9.134,5.648,7.41,5.529,7.042,5.568
	C6.824,5.59,6.419,5.687,6.419,6.044c0,0.269,0.164,0.408,0.421,0.438c2.793,0,3.085-2.108,3.097-4.465h3.4
	c-0.028,1.148,0.149,5.469,4.24,6.01c0.707,0.101,0.814-0.395,0.707-0.627c-0.103-0.228-0.809-0.333-1.496-0.728
	c-0.673-0.387-2.401-1.13-2.396-4.655H18.8c0.318,0,0.575,0.255,0.575,0.572L19.376,2.649L19.376,2.649z M9.571,18.186
	c0-1.86,1.644-3.367,3.672-3.367c2.022,0,3.667,1.507,3.667,3.367c0,1.857-1.644,3.364-3.667,3.364
	C11.215,21.549,9.571,20.043,9.571,18.186 M40.396,37.637v2.25c-1.411-0.339-1.368-1.113-1.314-1.249
	c0,0.414,0.645,0.259,0.628-0.153c-0.048-0.979-1.941-0.657-1.192,0.627c0.456,0.787,1.292,1.114,1.878,1.246v4.061
	c0,0.038-0.032,0.071-0.068,0.071h-3.037c-0.042-2.194-0.436-4.079-3.067-4.079c-0.255,0.028-0.422,0.163-0.422,0.435
	c0,0.351,0.404,0.446,0.619,0.471c0.355,0.038,1.959-0.069,1.889,3.172h-3.028c-0.041,0-0.071-0.032-0.071-0.071v-1.839
	c1.265,0.205,1.216,0.733,1.237,0.902c0.021,0.136,0.101,0.387,0.406,0.387c0.234,0,0.351-0.102,0.376-0.263
	c0-1.183-0.843-1.641-2.02-1.811v-2.468c4.998-0.219,4.978,3.201,4.978,3.509c0,0.315,0.081,0.904,0.452,0.904
	c0.377,0,0.561-0.237,0.601-0.611c0-3.958-2.834-4.677-6.03-4.725v-1.033c0-0.02,0.005-0.036,0.021-0.052
	c0.011-0.014,0.027-0.02,0.05-0.02h0.272l0.452,0.834l0.442-0.834h0.011l0.449,0.834l0.442-0.834h0.014l0.448,0.834l0.445-0.834
	h0.01l0.45,0.834l0.443-0.834h0.009l0.452,0.834l0.444-0.834h1.967l0.394,0.337h-0.029V37.637z M40.03,36.646h-1.967l-0.444-0.833
	l-0.452,0.833h-0.009l-0.442-0.833l-0.451,0.833h-0.01l-0.444-0.833l-0.449,0.833h-0.014l-0.442-0.833l-0.449,0.833h-0.011
	l-0.442-0.833l-0.452,0.833H33.28c-0.023,0-0.04-0.007-0.05-0.021c-0.016-0.015-0.021-0.027-0.021-0.049v-1.034
	c3.196-0.043,6.029-0.767,6.029-4.725c-0.039-0.373-0.224-0.611-0.6-0.611c-0.371,0-0.452,0.593-0.452,0.907
	c0,0.308,0.021,3.728-4.978,3.505v-2.465c1.177-0.175,2.02-0.632,2.02-1.813c-0.026-0.161-0.143-0.264-0.376-0.264
	c-0.305,0-0.385,0.252-0.406,0.387c-0.021,0.168,0.028,0.698-1.237,0.904v-1.467H30.57c-0.205-3.627,1.516-3.512,1.882-3.554
	c0.22-0.021,0.628-0.119,0.628-0.473c0-0.272-0.167-0.407-0.426-0.437c-2.792,0-3.079,2.106-3.091,4.463h-3.402
	c0.024-1.147-0.146-5.466-4.242-6.009c-0.707-0.101-0.81,0.399-0.707,0.628c0.1,0.225,0.81,0.331,1.497,0.729
	c0.676,0.387,2.403,1.127,2.398,4.652h-4.409c-0.314,0-0.571-0.255-0.571-0.571v-0.063l0.834-0.453l-0.834-0.445v-0.015l0.834-0.449
	l-0.834-0.447v-0.011l0.834-0.454l-0.834-0.443v-0.438c2.563,0.361,2.499,1.62,2.417,1.823c0-0.564-0.871-0.354-0.856,0.206
	c0.064,1.333,2.647,0.896,1.625-0.852c-0.823-1.413-2.552-1.739-3.187-1.814v-2.765c0.839,0.056,3.517,0.042,5.174-1.982
	c1.542,0.866,1.461,2.025,1.363,2.271c0-0.956-1.487-0.604-1.45,0.351c0.104,2.264,4.489,1.52,2.755-1.447
	c-0.538-0.923-1.305-1.571-2.106-2.028c0.481-0.905,0.791-2.088,0.805-3.643h2.9c0.04,2.222,0.425,4.141,3.089,4.141
	c0.258-0.032,0.426-0.166,0.426-0.44c0-0.355-0.408-0.45-0.628-0.473c-0.354-0.04-1.981,0.068-1.896-3.227h2.869l0.399,0.338h-0.031
	v1.639c-1.39-0.189-1.343-0.751-1.366-0.925c-0.022-0.138-0.102-0.388-0.409-0.388c-0.232,0-0.351,0.101-0.376,0.264
	c0,1.225,0.906,1.678,2.151,1.837v2.459c-5.149,0.285-5.127-3.211-5.127-3.524c0-0.315-0.085-0.911-0.458-0.911
	c-0.375,0-0.565,0.24-0.604,0.615c0,4.033,2.922,4.728,6.19,4.761v1.021c-3.268,0.028-6.19,0.724-6.19,4.755
	c0.04,0.377,0.228,0.616,0.604,0.616c0.373,0,0.458-0.597,0.458-0.916c0-0.31-0.022-3.805,5.127-3.523v2.462
	c-1.245,0.161-2.151,0.612-2.151,1.837c0.024,0.164,0.143,0.266,0.376,0.266c0.308,0,0.388-0.251,0.409-0.388
	c0.022-0.177-0.024-0.737,1.366-0.926v1.727c0,0.046-0.007,0.087-0.015,0.131h2.529c0.07,3.236-1.533,3.134-1.889,3.168
	c-0.216,0.024-0.619,0.119-0.619,0.473c0,0.27,0.167,0.402,0.422,0.436c2.632,0,3.025-1.889,3.067-4.077h3.037
	c0.037,0,0.068,0.027,0.068,0.069v4.057c-0.586,0.139-1.423,0.466-1.878,1.249c-0.749,1.285,1.145,1.604,1.192,0.628
	c0.017-0.414-0.628-0.565-0.628-0.152c-0.053-0.136-0.096-0.914,1.314-1.25v2.246h0.028L40.03,36.646z M48.269,38.402
	c-3.196,0.048-6.033,0.769-6.033,4.728c0.039,0.371,0.227,0.609,0.595,0.609c0.375,0,0.459-0.588,0.459-0.903
	c0-0.31-0.018-3.727,4.978-3.509v2.47c-1.176,0.167-2.02,0.627-2.02,1.809c0.021,0.16,0.142,0.263,0.374,0.263
	c0.301,0,0.391-0.25,0.406-0.387c0.024-0.169-0.022-0.697,1.24-0.902v1.839c0,0.039-0.034,0.071-0.072,0.071h-3.029
	c-0.072-3.242,1.532-3.135,1.886-3.172c0.22-0.023,0.622-0.12,0.622-0.472c0-0.271-0.164-0.406-0.424-0.436
	c-2.631,0-3.022,1.887-3.063,4.079h-3.04c-0.037,0-0.066-0.031-0.066-0.071v-4.057c0.584-0.136,1.422-0.463,1.88-1.249
	c0.749-1.281-1.147-1.603-1.192-0.624c-0.017,0.41,0.627,0.567,0.627,0.151c0.053,0.136,0.094,0.912-1.316,1.248v-2.249h-0.024
	l0.389-0.337h1.971l0.443,0.834l0.448-0.834h0.015l0.437,0.834l0.454-0.834h0.01l0.444,0.834l0.453-0.834h0.005l0.445,0.834
	l0.453-0.834h0.008l0.444,0.834l0.45-0.834h0.272c0.021,0,0.036,0.006,0.049,0.021c0.013,0.015,0.023,0.031,0.023,0.051
	L48.269,38.402L48.269,38.402z M48.269,31.371c-1.262-0.205-1.216-0.735-1.24-0.905c-0.016-0.135-0.105-0.387-0.407-0.387
	c-0.23,0-0.353,0.101-0.374,0.264c0,1.182,0.844,1.64,2.021,1.813v2.464c-4.996,0.224-4.978-3.198-4.978-3.503
	c0-0.314-0.083-0.907-0.459-0.907c-0.367,0-0.556,0.237-0.594,0.611c0,3.958,2.836,4.68,6.033,4.724v1.035
	c0,0.021-0.011,0.034-0.023,0.049c-0.014,0.013-0.028,0.021-0.049,0.021h-0.272l-0.45-0.834l-0.444,0.834h-0.01l-0.453-0.834
	l-0.445,0.834h-0.005l-0.453-0.834l-0.444,0.834h-0.01l-0.454-0.834l-0.437,0.834h-0.015l-0.448-0.834l-0.443,0.834h-1.971
	l-0.389-0.339h0.024v-2.247c1.41,0.338,1.369,1.117,1.316,1.253c0-0.413-0.644-0.264-0.627,0.151
	c0.044,0.974,1.941,0.656,1.192-0.629c-0.459-0.785-1.297-1.11-1.88-1.249v-4.057c0-0.041,0.03-0.069,0.066-0.069h3.04
	c0.041,2.188,0.432,4.077,3.063,4.077c0.261-0.031,0.424-0.167,0.424-0.436c0-0.352-0.401-0.448-0.622-0.472
	c-0.354-0.035-1.958,0.067-1.886-3.169h3.029c0.04,0,0.072,0.028,0.072,0.069L48.269,31.371L48.269,31.371z"/>
<path fill="#FFFFFF" d="M48.197,37.302h-0.272l-0.45,0.833l-0.444-0.833h-0.01l-0.453,0.833l-0.445-0.833h-0.005l-0.453,0.833
	l-0.444-0.833h-0.01l-0.454,0.833l-0.437-0.833h-0.015l-0.448,0.833l-0.443-0.833h-1.971l-0.389,0.335h0.024v2.251
	c1.41-0.34,1.369-1.114,1.316-1.248c0,0.414-0.644,0.259-0.627-0.153c0.044-0.98,1.941-0.658,1.192,0.626
	c-0.459,0.787-1.297,1.114-1.88,1.247v4.059c0,0.039,0.03,0.071,0.066,0.071h3.04c0.041-2.193,0.432-4.079,3.063-4.079
	c0.261,0.029,0.424,0.163,0.424,0.436c0,0.351-0.401,0.446-0.622,0.471c-0.354,0.038-1.958-0.069-1.886,3.173h3.029
	c0.04,0,0.072-0.033,0.072-0.071v-1.84c-1.262,0.205-1.216,0.734-1.24,0.902c-0.016,0.136-0.105,0.386-0.406,0.386
	c-0.231,0-0.354-0.101-0.374-0.262c0-1.183,0.844-1.641,2.02-1.81v-2.469c-4.995-0.219-4.978,3.2-4.978,3.509
	c0,0.315-0.083,0.904-0.459,0.904c-0.368,0-0.556-0.238-0.595-0.611c0-3.958,2.836-4.678,6.033-4.726V37.37
	c0-0.019-0.011-0.036-0.023-0.052C48.233,37.306,48.219,37.302,48.197,37.302"/>
<path fill="#FFFFFF" d="M48.197,29.462h-3.029c-0.072,3.235,1.533,3.134,1.886,3.169c0.22,0.024,0.622,0.119,0.622,0.473
	c0,0.269-0.164,0.401-0.424,0.435c-2.632,0-3.022-1.89-3.063-4.077h-3.04c-0.037,0-0.066,0.026-0.066,0.066v4.06
	c0.584,0.138,1.422,0.465,1.879,1.248c0.75,1.285-1.146,1.604-1.191,0.628c-0.016-0.414,0.628-0.565,0.628-0.152
	c0.053-0.135,0.094-0.914-1.316-1.251v2.247h-0.024l0.389,0.338h1.971l0.443-0.833l0.448,0.833h0.015l0.437-0.833l0.454,0.833h0.01
	l0.443-0.833l0.453,0.833h0.006l0.444-0.833l0.454,0.833h0.008l0.444-0.833l0.45,0.833h0.272c0.021,0,0.036-0.007,0.049-0.021
	c0.013-0.014,0.023-0.027,0.023-0.048v-1.035c-3.196-0.043-6.033-0.766-6.033-4.725c0.039-0.373,0.227-0.611,0.594-0.611
	c0.375,0,0.459,0.593,0.459,0.906c0,0.307-0.018,3.729,4.978,3.507v-2.466c-1.177-0.175-2.021-0.631-2.021-1.813
	c0.021-0.161,0.142-0.263,0.374-0.263c0.302,0,0.391,0.252,0.407,0.386c0.024,0.168-0.022,0.698,1.24,0.905v-1.842
	C48.269,29.489,48.237,29.462,48.197,29.462"/>
<path fill="#FFFFFF" d="M38.064,37.302l-0.444,0.833l-0.452-0.833h-0.01l-0.442,0.833l-0.451-0.833h-0.01l-0.444,0.833l-0.449-0.833
	h-0.011l-0.445,0.833l-0.449-0.833h-0.011l-0.442,0.833l-0.452-0.833H33.28c-0.023,0-0.04,0.004-0.05,0.021
	c-0.016,0.014-0.021,0.031-0.021,0.05v1.032c3.196,0.048,6.029,0.768,6.029,4.728c-0.039,0.371-0.224,0.608-0.6,0.608
	c-0.371,0-0.452-0.588-0.452-0.903c0-0.309,0.021-3.728-4.978-3.51v2.47c1.177,0.168,2.02,0.628,2.02,1.81
	c-0.026,0.159-0.143,0.264-0.376,0.264c-0.305,0-0.385-0.251-0.406-0.388c-0.021-0.169,0.028-0.697-1.237-0.902v1.838
	c0,0.04,0.031,0.071,0.071,0.071h3.028c0.07-3.241-1.533-3.134-1.889-3.171c-0.215-0.023-0.619-0.12-0.619-0.471
	c0-0.271,0.163-0.406,0.422-0.437c2.632,0,3.025,1.887,3.067,4.079h3.037c0.037,0,0.068-0.031,0.068-0.07v-4.059
	c-0.586-0.135-1.423-0.462-1.878-1.248c-0.749-1.282,1.145-1.605,1.192-0.625c0.017,0.41-0.628,0.567-0.628,0.153
	c-0.053,0.134-0.096,0.91,1.314,1.247v-2.248h0.028l-0.394-0.337h-1.965V37.302z"/>
<path fill="#FFFFFF" d="M40.396,34.061c-1.411,0.338-1.368,1.117-1.314,1.252c0-0.413,0.645-0.263,0.628,0.151
	c-0.048,0.976-1.941,0.658-1.192-0.628c0.456-0.784,1.292-1.111,1.878-1.248v-4.059c0-0.04-0.032-0.067-0.068-0.067h-3.037
	c-0.042,2.188-0.436,4.077-3.067,4.077c-0.259-0.033-0.422-0.167-0.422-0.436c0-0.354,0.404-0.448,0.619-0.472
	c0.355-0.035,1.959,0.065,1.889-3.169h-2.529c-0.059,0.253-0.285,0.442-0.556,0.442H33.21v1.467
	c1.265-0.205,1.216-0.735,1.237-0.906c0.021-0.135,0.101-0.386,0.406-0.386c0.234,0,0.351,0.102,0.376,0.263
	c0,1.182-0.843,1.64-2.02,1.814v2.465c4.998,0.224,4.978-3.194,4.978-3.503c0-0.315,0.081-0.907,0.452-0.907
	c0.377,0,0.561,0.236,0.601,0.611c0,3.957-2.834,4.679-6.03,4.723v1.036c0,0.02,0.005,0.034,0.021,0.048
	c0.011,0.013,0.027,0.021,0.05,0.021h0.272l0.452-0.835l0.442,0.835h0.011l0.449-0.835l0.445,0.835h0.01l0.448-0.835l0.445,0.835
	h0.01l0.45-0.835l0.443,0.835h0.009l0.452-0.835l0.444,0.835h1.967l0.394-0.34h-0.028L40.396,34.061L40.396,34.061z"/>
<path fill="#FFFFFF" d="M20.698,15.688h0.592c0.27-0.6,0.772-1.44,1.616-1.924c1.408-0.807,1.936,0.035,1.992,0.849
	c0.057,0.812-0.835,0.826-0.848-0.067c-0.013-0.781-1.325-0.041-1.848,1.143h3.537c0.039-0.961-0.055-5.751-5.613-5.571v3.505
	c1.184-0.525,1.928-1.841,1.146-1.854c-0.893-0.012-0.876-0.904-0.065-0.85c0.814,0.056,1.653,0.584,0.847,1.996
	c-0.486,0.844-1.333,1.351-1.928,1.621v0.582C20.126,15.431,20.383,15.688,20.698,15.688"/>
<path fill="#FFFFFF" d="M25.301,11.189c1.541-0.865,1.461-2.024,1.363-2.269c0,0.956-1.487,0.602-1.45-0.354
	c0.104-2.26,4.489-1.518,2.755,1.452c-0.538,0.919-1.305,1.568-2.106,2.026c0.481,0.903,0.791,2.088,0.805,3.644h2.9
	c0.04-2.221,0.425-4.144,3.089-4.144c0.258,0.034,0.426,0.169,0.426,0.44c0,0.356-0.408,0.453-0.628,0.475
	c-0.354,0.037-1.986-0.066-1.896,3.229h2.869l0.399-0.341h-0.03v-1.636c-1.39,0.19-1.343,0.75-1.365,0.927
	c-0.023,0.134-0.103,0.388-0.41,0.388c-0.232,0-0.351-0.102-0.376-0.266c0-1.224,0.906-1.676,2.151-1.838v-2.459
	c-5.148-0.284-5.127,3.21-5.127,3.523c0,0.316-0.085,0.912-0.458,0.912c-0.376,0-0.565-0.238-0.604-0.613
	c0-4.034,2.922-4.728,6.19-4.76v-1.02c-3.268-0.031-6.19-0.728-6.19-4.761c0.04-0.376,0.228-0.615,0.604-0.615
	c0.373,0,0.458,0.598,0.458,0.914c0,0.313-0.021,3.808,5.127,3.524V5.104c-1.245-0.16-2.151-0.612-2.151-1.838
	C31.67,3.103,31.789,3,32.022,3c0.308,0,0.388,0.252,0.41,0.391c0.022,0.177-0.025,0.735,1.365,0.925V2.588
	c0-0.317-0.257-0.572-0.571-0.572h-2.655c-0.204,3.632,1.518,3.513,1.883,3.552c0.22,0.022,0.628,0.119,0.628,0.477
	c0,0.269-0.167,0.408-0.426,0.438c-2.792,0-3.079-2.108-3.092-4.465h-3.403c0.024,1.148-0.146,5.469-4.242,6.01
	c-0.707,0.102-0.81-0.395-0.707-0.627c0.1-0.229,0.81-0.333,1.496-0.729c0.676-0.387,2.404-1.13,2.398-4.655h-4.409
	c-0.314,0-0.572,0.255-0.572,0.572v0.061l0.835,0.453L20.126,3.55v0.01l0.835,0.453l-0.835,0.448v0.013l0.835,0.45l-0.835,0.447
	v0.438c2.563-0.359,2.5-1.618,2.418-1.822c0,0.562-0.871,0.352-0.856-0.208c0.064-1.333,2.647-0.896,1.625,0.855
	c-0.823,1.409-2.552,1.736-3.188,1.811v2.763C20.966,9.153,23.643,9.162,25.301,11.189"/>
<path fill="#FFFFFF" d="M25.739,16.234h-3.537c0.523,1.182,1.835,1.924,1.848,1.142c0.013-0.895,0.905-0.88,0.848-0.065
	c-0.056,0.812-0.584,1.651-1.992,0.844c-0.844-0.482-1.347-1.324-1.616-1.92h-0.592c-0.314,0-0.572,0.256-0.572,0.57v0.581
	c0.594,0.271,1.443,0.778,1.929,1.621c0.806,1.411-0.033,1.939-0.847,1.992c-0.811,0.058-0.827-0.836,0.064-0.847
	c0.782-0.012,0.039-1.328-1.146-1.854v3.503C25.684,21.984,25.777,17.194,25.739,16.234"/>
<path fill="#FFFFFF" d="M33.782,29.462c0.007-0.044,0.015-0.084,0.015-0.13v-1.727c-1.39,0.188-1.343,0.749-1.365,0.925
	c-0.023,0.138-0.103,0.389-0.41,0.389c-0.232,0-0.351-0.103-0.376-0.267c0-1.228,0.906-1.676,2.151-1.837v-2.462
	c-5.149-0.281-5.127,3.213-5.127,3.523c0,0.318-0.085,0.915-0.458,0.915c-0.376,0-0.565-0.238-0.604-0.616
	c0-4.031,2.922-4.727,6.19-4.754V22.4c-3.268-0.033-6.19-0.728-6.19-4.761c0.04-0.375,0.228-0.615,0.604-0.615
	c0.373,0,0.458,0.596,0.458,0.912c0,0.311-0.022,3.807,5.127,3.523V19c-1.245-0.16-2.151-0.613-2.151-1.837
	c0.024-0.166,0.143-0.265,0.376-0.265c0.308,0,0.388,0.25,0.41,0.388c0.022,0.175-0.025,0.735,1.365,0.926v-1.638h0.03l-0.399-0.337
	H30.56c-0.092,3.295,1.542,3.188,1.896,3.227c0.22,0.023,0.628,0.118,0.628,0.473c0,0.274-0.167,0.408-0.426,0.44
	c-2.664,0-3.05-1.92-3.089-4.14h-2.9c-0.014,1.554-0.324,2.738-0.805,3.642c0.803,0.456,1.569,1.104,2.106,2.026
	c1.733,2.97-2.651,3.711-2.751,1.448c-0.041-0.954,1.446-1.307,1.446-0.352c0.098-0.245,0.178-1.404-1.363-2.27
	c-1.656,2.025-4.335,2.038-5.175,1.981v2.767c0.636,0.073,2.366,0.4,3.188,1.813c1.021,1.744-1.561,2.184-1.625,0.852
	c-0.015-0.561,0.856-0.77,0.856-0.207c0.081-0.204,0.144-1.46-2.418-1.822v0.437l0.835,0.444l-0.835,0.454v0.012l0.835,0.447
	l-0.835,0.449v0.017l0.835,0.443l-0.835,0.454v0.062c0,0.315,0.258,0.571,0.572,0.571h4.409c0.006-3.526-1.721-4.266-2.398-4.653
	c-0.687-0.397-1.396-0.503-1.496-0.728c-0.103-0.23,0-0.73,0.707-0.627c4.096,0.542,4.267,4.861,4.242,6.008h3.403
	c0.012-2.356,0.299-4.462,3.092-4.462c0.258,0.028,0.426,0.162,0.426,0.436c0,0.355-0.408,0.451-0.628,0.473
	c-0.366,0.042-2.087-0.073-1.883,3.554h2.64h0.014C33.498,29.903,33.723,29.714,33.782,29.462"/>
<path fill="#FFFFFF" d="M10.982,27.534c-0.74-0.708-3.868-0.691-5.276-0.646v0.718v0.303v0.268
	C7.364,28.226,11.769,28.289,10.982,27.534"/>
<path fill="#FFFFFF" d="M18.801,2.016h-4.409c-0.006,3.524,1.723,4.268,2.396,4.655c0.686,0.396,1.393,0.5,1.496,0.729
	c0.108,0.231,0,0.729-0.707,0.627c-4.091-0.541-4.268-4.861-4.24-6.01H9.938C9.926,4.375,9.635,6.482,6.841,6.482
	c-0.257-0.028-0.42-0.167-0.42-0.438c0-0.358,0.404-0.455,0.622-0.477c0.368-0.039,2.091,0.08,1.884-3.552h-2.65
	c-0.314,0-0.57,0.255-0.57,0.572v1.728c1.389-0.19,1.336-0.75,1.361-0.925C7.088,3.252,7.171,3,7.477,3
	c0.232,0,0.351,0.102,0.375,0.266c0,1.226-0.905,1.678-2.147,1.838v2.461c5.147,0.284,5.127-3.21,5.127-3.524
	s0.081-0.914,0.458-0.914c0.375,0,0.563,0.24,0.605,0.615c0,4.034-2.931,4.73-6.19,4.761v1.019v0.939v2.459v0.791v0.5
	c0.399-0.102,0.956-0.083,0.904,0.835c-0.083,1.417-0.741,0.06-0.516,1.2c0.224,1.148,1.272,0.199,1.437-1.004
	c0.163-1.202-0.02-3.551,0.208-4.908c0.223-1.362,2.278-1.26,2.771-1.26c0.497,0,4.681-0.082,6.472,0
	c1.786,0.078,1.271,3.427,1.191,4.808c-0.083,1.38-0.042,2.071,0.037,2.855c-0.469-0.212-0.427-1.281-0.427-4.119
	c0-2.839-1.851-2.778-2.344-2.778c-0.495,0-2.486,0.059-4.129,0.059c-1.643,0-3.019,0.533-3.019,3.706
	c0,3.176-0.513,4.043-1.149,4.378c-0.42,0.221-1.058,0.175-1.436,0.119v0.107v0.79v0.107c1.074,0.144,2.601,0.009,2.976-1.764
	c0.005,0.007,0.005,0.009,0.009,0.016c0.419-1.954,2.295-3.428,4.554-3.428c2.561,0,4.638,1.905,4.638,4.257
	c0,2.348-2.078,4.253-4.638,4.253c-0.815,0-1.578-0.192-2.242-0.529h0.003c0,0-1.091-0.564-1.974-1.28
	c-0.822-0.667-2.089-0.857-2.261,0.351v1.014c0,2.215,0.719,2.258,1.152,2.192c0.429-0.067,0.575-0.656,1.192-0.563
	c0.613,0.089,0.779,1.238,0.779,1.238h-1.81H5.706v1.182h4.909c1.498,0,1.805,2.931,1.805,2.931H5.706v0.356
	c0,0.318,0.255,0.572,0.57,0.572h2.65h4.411c-0.012-0.65,0.035-2.317,0.827-3.738c-0.667-0.257-1.993-0.896-2.916-2.201
	c-1.273-1.811-2.649-1.459-2.649-1.459s1.255-0.533,2.753,0.861c1.144,1.064,2.799,1.592,3.641,1.709
	c0.609-0.585,1.445-1.029,2.585-1.182c0.707-0.101,0.814,0.399,0.707,0.628c-0.103,0.225-0.81,0.33-1.496,0.729
	c-0.673,0.387-2.402,1.127-2.396,4.652h4.409c0.318,0,0.575-0.255,0.575-0.571V29.27l-0.838-0.453l0.838-0.444v-0.016l-0.838-0.449
	l0.838-0.447v-0.011l-0.837-0.454l0.838-0.444v-0.438c-2.566,0.361-2.504,1.62-2.421,1.823c0-0.564,0.875-0.354,0.851,0.206
	c-0.062,1.333-2.644,0.896-1.625-0.852c0.824-1.413,2.555-1.739,3.196-1.814v-2.765V9.207V8.437V6.442
	c-0.641-0.074-2.372-0.402-3.196-1.811c-1.018-1.75,1.563-2.188,1.625-0.854c0.022,0.56-0.851,0.77-0.851,0.208
	c-0.083,0.203-0.144,1.462,2.421,1.821V5.37l-0.838-0.447l0.838-0.45V4.46l-0.838-0.448l0.838-0.453V3.55l-0.838-0.448l0.838-0.453
	V2.588C19.376,2.271,19.118,2.016,18.801,2.016"/>
<path fill="#FFFFFF" d="M16.91,18.186c0-1.86-1.644-3.367-3.667-3.367c-2.029,0-3.672,1.507-3.672,3.367
	c0,1.857,1.644,3.364,3.672,3.364C15.267,21.549,16.91,20.043,16.91,18.186 M13.12,15.641c1.39,0,2.539,0.959,2.708,2.199
	c-2.374-0.558-4.676,0.049-5.439,0.29C10.395,16.754,11.613,15.641,13.12,15.641 M10.467,18.739c2.741-0.76,4.608-0.469,5.358-0.274
	c-0.173,1.232-1.316,2.183-2.704,2.183C11.833,20.648,10.759,19.836,10.467,18.739"/>
</svg>
