<?xml version="1.0" encoding="utf-8"?>
<!-- Generator: Adobe Illustrator 16.0.3, SVG Export Plug-In . SVG Version: 6.00 Build 0)  -->
<!DOCTYPE svg PUBLIC "-//W3C//DTD SVG 1.1//EN" "http://www.w3.org/Graphics/SVG/1.1/DTD/svg11.dtd">
<svg version="1.1" id="Layer_1" xmlns="http://www.w3.org/2000/svg" xmlns:xlink="http://www.w3.org/1999/xlink" x="0px" y="0px"
	 width="28.158px" height="24px" viewBox="0 0 28.158 24" enable-background="new 0 0 28.158 24" xml:space="preserve">
<g>
	<path fill="#BC2686" d="M0,10.663c0,0,1.892-0.191,1.727-3.537c0,0,2.083-0.493,2.193-1.535c0,0,0.083-0.631-1.015-0.576
		c-1.097,0.055-0.986,0.63-0.986,0.63L2.66,5.673c0,0,0.383,0.522-0.604,0.741c0,0-0.521,0.165-0.521-0.63
		c0-0.795,0.466-1.591,0.466-1.591S1.974,4.796,2.138,4.823c0.165,0.028,0.768-0.027,1.206-0.274c0.44-0.247,1.426,0.193,1.07,1.015
		c-0.356,0.823-1.59,1.371-2.385,1.699c0,0-0.137,0.275,0,0.385c0.137,0.109,0.658,0.137,1.289-0.137s1.535-0.85,1.974-2.331
		c0,0,0.247-0.192,0.521-0.027c0.274,0.164,1.344,0.192,1.344,0.192S6.663,5.921,6.251,5.976c-0.412,0.055-0.658,0-0.576-0.165
		c0,0,0.135-0.079,0.208-0.033c0.073,0.046,0.25-0.059,0.25-0.059S6.068,5.547,5.975,5.474c-0.092-0.072-0.37-0.178-0.554,0.021
		C5.236,5.691,5.137,6.167,5.593,6.352s1.55,0.125,2.125-0.732c0,0,0.378-0.165,1.015,0.46C9.369,6.706,9.485,6.939,9.506,7.3
		c0.022,0.361-0.063,2.493-0.063,2.493s0.054,0.573,0.446,0.795c0,0,0.127,0.138-0.084,0.096c-0.212-0.042-0.605-0.435-0.658-0.913
		c-0.053-0.477,0.085-2.28-0.116-2.535C8.828,6.982,8.223,6.409,7.458,6.483c-0.764,0.075-0.699,0.149-1.219,0.17
		C5.72,6.674,5.487,6.505,5.316,6.558c-0.169,0.053-0.35,0.18-0.933,0.615C3.8,7.608,2.103,7.937,1.858,8.542
		C1.614,9.146,1.921,9.666,1.921,9.666s0.542,0.625,1.305,0.849c0.764,0.222,0.976-0.298,0.785-0.489
		C3.821,9.835,2.76,9.433,2.781,9.029C2.802,8.626,3.789,8,4.553,7.937c0,0,0.074,0.011,0.063,0.149S4.605,9.189,4.605,9.189
		s-0.382,0.01-0.361-0.181C4.267,8.817,4.33,8.744,4.33,8.744V8.435c0,0-0.753-0.169-1.04,0.297c0,0-0.233,0.425,0.096,0.616
		c0.329,0.19,0.53,0.297,1.113,0.329c0,0,0.106,0.159,0.011,0.297c-0.096,0.138-0.491,0.811-0.551,1.072
		c-0.117,0.498-0.011,0.965-0.011,0.965s0.065,0.868,0.986,0.996c0.987,0.138,1.655,0.011,1.655,0.011s0.965-0.17,1.464-0.074
		c0.499,0.095,1.061,0.604,1.061,0.604s-0.923-0.413-1.474-0.381c-0.486,0.028-1.273,0.084-2.197,0.667c0,0-0.147-0.635-0.795-0.742
		c-0.647-0.106-0.828,0.01-1.062,0.414c-0.233,0.403,0.467,0.392,0.467,0.392s0.562,0.042,0.308-0.414c0,0,0.339,0,0.52,0.318
		C5.062,14.122,4.786,14.1,4.627,14.1c-0.16,0-1.348,0.106-1.433-0.106c-0.11-0.275,0.16-0.499,0.287-0.859
		c0.126-0.361,0.318-1.316,0.042-1.91c-0.354-0.764-0.934-0.891-1.326-0.976c-0.393-0.086-0.987,0.265-1.104,0.859
		c-0.116,0.594,0.255,1.156,0.945,1.019c0,0,0.54-0.181,0.328-0.68c0,0-0.202-0.286-0.509-0.222c0,0-0.244-0.18,0.117-0.233
		c0.36-0.053,0.742,0.318,0.774,0.573s0.382,1.104-0.445,2.058c0,0-0.679-0.446-0.701-0.595c-0.021-0.148,0.414-0.158,0.478,0.074
		c0.063,0.234,0.181,0.128,0.244,0.042c0.063-0.084,0.287-0.573,0.096-0.742c-0.191-0.169-0.636-0.011-1.082,0.244
		c0,0-0.106,0-0.17-0.36c-0.063-0.361-0.19-0.816-0.446-1.04C0.469,11.024,0,10.663,0,10.663z"/>
	<path fill="#BC2686" d="M8.964,3.996c0,0,0.323,0.453,0.349,0.685C9.34,4.915,9.508,5.367,9.223,5.393
		C8.938,5.418,8.42,5.095,8.472,4.889C8.524,4.681,8.756,4.927,8.809,5.03C8.86,5.135,9.106,5.199,9.106,5.043
		c0-0.155-0.104-0.595-0.324-0.595S8.55,4.668,8.188,4.707C7.826,4.746,7.308,4.513,6.7,3.879C6.092,3.245,5.755,2.637,5.962,2.417
		c0,0,0.195-0.129,0.246,0.129c0.052,0.258,0.311,0.595,0.466,0.595c0.155,0,0.414-0.297,0.698-0.53
		c0.286-0.233,0.751-0.388,1.242-0.323c0.492,0.064,0.854-0.66,0.854-0.66S9.56,1.536,9.676,1.718
		c0.117,0.181,0.401,0.569,0.725,0.673c0.324,0.103,0.737,0.181,0.958-0.427c0,0,0.078-0.466-0.233-0.803
		c-0.311-0.336-0.466-0.479-0.699-0.375c-0.233,0.104,0.064,0.375,0.064,0.375s0.285,0.389,0.117,0.518
		c-0.168,0.129-0.44,0.026-0.608-0.155C9.831,1.343,9.715,1.213,9.715,1.213s0.504-0.699,0.867-0.892
		c0.363-0.194,0.996-0.285,1.242-0.208c0.246,0.078,0.143,0.208-0.051,0.22c-0.195,0.013-0.531,0.104-0.57,0.427
		c-0.039,0.324,0.415,0.557,0.415,0.557s0.22,0.582-0.232,1.087c-0.453,0.505-1.203,0.233-1.203,0.233S9.74,2.43,9.572,2.159
		c0,0-0.315-0.071-0.479,0.284C9.016,2.611,9.223,2.869,9.223,2.869s0.274,0.515,0.918,0.635c0.636,0.118,0.963,0.061,1.285-0.082
		c0.643-0.284,0.987-1.045,1.081-1.217c0.154-0.284,0.106-0.784,0.106-0.784s0.064-0.12,0.275-0.075
		c0.21,0.046,1.279,0.375,1.354,0.466c0.074,0.092-0.003,0.449-0.003,0.497c0,0.047,0,0.667,0.334,0.827
		c0.334,0.159,0.652-0.144,0.986-0.493c0,0,0.414,0,0.779,0.35c0.367,0.35,1.306,1.193,1.321,1.878
		c0.016,0.684-0.158,0.748-0.286,0.732c-0.127-0.017-0.079-0.064-0.064-0.335c0.016-0.271-0.111-0.445-0.335-0.397
		c-0.222,0.048-0.381,0.302-0.413,0.684c-0.032,0.382,0.016,1.177-0.096,1.384s-0.191,0.35-0.303,0.398
		c-0.111,0.048-0.19,0.159-0.19,0.461c0,0.303-0.112,0.509-0.207,0.367c-0.095-0.143-0.223-0.557-0.032-0.731
		c0.19-0.175,0.445-0.318,0.413-0.638c-0.031-0.317-0.127-0.365-0.286-0.333s-0.461,0.477-0.493,0.684
		c-0.032,0.207-0.398,0.986-0.239,1.305c0.159,0.318,0.159,0.318,0.159,0.318s-0.621,0.27-0.955,1.001
		c-0.333,0.733-0.604,1.163-0.604,1.163s-0.191,0.063-0.063-0.287c0.127-0.349,1.226-2.275,1.543-3.978c0,0,0.668-0.446,1.082-1.193
		c0.414-0.748,0.35-1.751,0.111-2.084c-0.239-0.334-0.7-0.415-0.987-0.255c-0.286,0.159-0.938,0.652-0.875,1.066
		c0.063,0.413,0.494,0.047,0.685-0.144c0.19-0.19,0.7-0.126,0.716,0.271c0.016,0.398,0.175,0.843-0.828,1.543
		c0,0-0.446-0.494-0.43-0.684c0.016-0.191,0.318-0.398,0.367-0.112c0.047,0.287,0.079,0.462,0.19,0.366
		c0.112-0.095,0.287-0.429,0.302-0.557c0.016-0.127,0.016-0.509-0.27-0.525c-0.287-0.015-0.875,0.494-0.875,0.494
		s-0.254-0.207-0.19-0.319c0.063-0.111,0.302-0.812,0.111-0.732c-0.191,0.08-0.446,0.478-0.51,0.605l-0.429-0.287
		c0,0,0.175-1.066-0.143-1.082c-0.319-0.016-0.557,0.208-0.717,0.653l0.223,0.063c0,0,0.032-0.223,0.191-0.096
		c0.159,0.127,0.08,0.382,0.08,0.382l-0.907-0.047c0,0,0.382-1.353,1.194-1.178c0,0,0.413-0.016,0.366,1.034
		c0,0,0.016,0.191,0.175,0.033c0.16-0.16,0.303-0.382,0.303-0.382s-0.016-0.764-0.111-1.035c-0.096-0.271-0.191-0.493-0.494-0.541
		c-0.302-0.048-0.589,0.127-0.875,0.478c-0.286,0.35-1.113,1.384-1.113,1.384s-0.78-0.032-1.098,0.397
		c-0.209,0.284,0.008,0.774,0.207,1.05c0.287,0.398,0.415,0.827,0.351,1.368c-0.063,0.542-0.239,2.339,0.08,3.056
		c0,0,0.032,0.27-0.096,0.079c-0.127-0.19-0.478-0.907-0.382-2.244c0.096-1.337-0.573-1.527-0.573-1.527s0.255-0.716-0.127-1.608
		C9.528,3.471,8.892,2.723,7.793,2.914C6.695,3.104,7.157,3.901,7.157,3.901s0.652,0.97,1.432,0.381c0,0,0.208-0.366-0.112-0.542
		C8.16,3.566,8.096,3.789,8.096,3.789S7.698,3.725,8.048,3.519C8.397,3.312,8.964,3.996,8.964,3.996z"/>
	<path fill="#BC2686" d="M9.402,13.858c0,0-2.504-0.153-4.07,1.412c0,0-0.183,0.707-0.612,1.167C4.29,16.898,3.568,17.343,3,17.312
		c-0.567-0.03-0.69-0.599-0.245-0.675s0.798,0.154,1.213-0.353c0.414-0.507,0.414-0.952,0.414-0.952s-0.69-0.168-0.859,0.062
		c-0.169,0.23,0.092,0.43,0.169,0.338c0.077-0.093,0.276-0.108,0.245,0.077c-0.03,0.185-0.306,0.567-0.629,0.567
		c-0.323,0-0.721-0.275-0.415-0.768c0,0,0.133-0.379-0.175-0.504c-0.348-0.14-0.577-0.088-0.808,0.111
		c-0.231,0.199-0.214,0.655,0.077,0.378c0.292-0.276,0.768,0.108,0.446,0.629c-0.323,0.522-0.286,1.103-0.164,1.21
		c0.123,0.107,0.877,0.11,1.176,0.11c0.396,0,0.891,0.015,1.306,0.431c0.414,0.415,0.368,1.52,0.353,1.734
		c-0.015,0.215,0.077,0.875-0.107,0.952c-0.184,0.077-0.306,0.047-0.291-0.507c0.016-0.552-0.338-0.66-0.384-0.66
		s-0.476-0.139-0.937,0.338c-0.46,0.476-0.559,0.712-0.123,0.952c0.249,0.137,0.813,0.123,0.829,0
		c0.015-0.123-0.154-0.522-0.399-0.353c0,0-0.092,0.077-0.169,0.092c-0.077,0.016-0.354,0.031-0.169-0.23
		c0.185-0.261,0.446-0.552,0.752-0.537c0.307,0.016,0.338,0.614,0.323,0.736c-0.016,0.123,0.031,0.614,0.476,0.614
		c0.445,0,0.415-0.476,0.415-0.476s0.214-0.26,0.383,0.078c0.168,0.337,0.056,0.6,0.149,0.801c0.125,0.271,0.25,0.334,0.542,0.289
		c0.292-0.046,0.376-0.345,0.707-0.519c0.266-0.139,0.569-0.02,0.593,0.222c0.03,0.309-0.081,0.584-0.335,0.439
		c-0.254-0.145-0.307-0.273-0.412-0.096c-0.052,0.088,0.137,0.246,0.137,0.246s0.557,0.375,0.819-0.016
		c0.302-0.453,0.109-0.843-0.077-0.976c-0.185-0.134-0.488-0.243-0.952,0.036c-0.464,0.278-0.479,0.362-0.621,0.343
		c-0.149-0.02-0.205-0.234-0.056-0.456c0.249-0.37,0.531-0.375,0.871-0.636c0.34-0.262,0.396-0.587,0.693-0.536
		c0.3,0.052,1.033-0.04,1.478-0.418c0,0,0.289-0.131,0.367-0.118c0.078,0.013,0.862,0.04,0.862,0.04l-0.17-1.282
		c0,0-0.34-0.027-0.366,0.287c-0.026,0.314,0.25,0.419,0.25,0.419l0.039,0.405c0,0-0.903,0.079-0.837-0.889
		c0.065-0.968,0.85-0.916,0.85-0.916l0.078-0.523c0,0,1.021-1.099,0.995-1.897c0,0-0.197,0.327-0.289,0.484
		c-0.091,0.157-0.992,1.272-1.333,1.651c-0.34,0.379-0.485,1.056-0.511,1.553c-0.027,0.497-0.062,0.705-0.601,0.902
		c-0.785,0.288-0.616,0.013-1.047,0.157c-0.3,0.1-1.02,1.217-1.779,0.654c-0.758-0.563-0.249-1.439-0.183-1.531
		c0.065-0.092,0.092-0.327-0.262-0.615c-0.354-0.287-0.72-0.602-0.549-1.255c0.17-0.654,0.588-0.955,0.719-1.02
		c0.13-0.066,0.968-0.628,1.438-1.243C7.381,14.077,8.14,14,8.14,14L9.402,13.858z"/>
	<path fill="#BC2686" d="M2.58,20.343c0,0-0.587-0.405-0.548-0.654c0.039-0.249,0.17-0.458,0.209-0.34
		c0.039,0.118,0.131,0.405,0.288,0.366c0.157-0.039,0.366-0.379,0.627-0.575c0.358-0.269,0.484-0.17,0.615-0.34
		c0.131-0.17,0.053-0.556-0.064-0.641c-0.145-0.105-0.406-0.171-0.576,0.026c-0.17,0.196-0.062,0.337,0.117,0.301
		c0.196-0.04,0.209,0.144,0.079,0.3c-0.089,0.108-0.432,0.197-0.536-0.262c-0.104-0.457-0.091-0.562-0.091-0.562
		s0.902-0.065,0.98-0.052c0.079,0.014,1.007,0.209,1.06,0.928c0.052,0.719-0.04,0.563-0.04,0.563s-0.196-0.313-0.47-0.353
		c-0.275-0.04-0.615,0.065-0.955,0.353C2.751,19.844,2.58,20.343,2.58,20.343z"/>
	<path fill="#BC2686" d="M7.989,20.529c0,0,1.231-0.744,2.482-0.509c0,0,0.127,0.573-0.191,1.293
		c-0.318,0.722-0.997,1.188-0.997,1.188l-0.043-1.4c0,0,0.318-0.764,0.679-0.148c0,0-0.085,0.148-0.149,0.021
		c-0.064-0.127-0.233-0.063-0.275,0.042c-0.042,0.106-0.212,0.404,0.148,0.573c0.361,0.169,0.722-0.806,0.637-1.167
		c-0.084-0.36-0.53-0.191-0.53-0.191s-0.871,0.255-0.913,0.701s-0.106,1.91-0.106,1.91s-0.446,0.509-1.443,0.361
		c0,0,0.871-0.318,1.062-0.871C8.542,21.781,8.796,20.698,7.989,20.529z"/>
	<path fill="#BC2686" d="M11.639,15.309c0,0,0.042,1.04,0.149,1.358c0.106,0.318,0.7,0.955,0.742,1.336s0.106,1.973,1.124,2.143
		h0.679c0,0,0.234,0.828,1.019,0.806s0.891-0.933,0.891-0.933s-0.127-0.573-0.572-0.191c0,0-0.052,0.354-0.409,0.421
		c-0.357,0.067-0.705-0.328-0.569-0.511c0.135-0.184,0.569-0.222,0.53-0.048c-0.039,0.174-0.173,0.174-0.173,0.174
		s-0.136,0.067-0.048,0.154c0.086,0.087,0.444,0.116,0.53-0.328c0.087-0.444,0.406-0.454,0.513-0.425
		c0.105,0.028,0.656,0.077,0.424,0.868c-0.232,0.792-0.724,1.082-1.168,1.062c-0.444-0.019-0.83-0.27-1.178-0.782
		c0,0-0.134-0.116-0.376,0.077c-0.241,0.193,0.078,0.84,0.078,0.84s0.579,0.733,1.612,0.628c1.033-0.107,1.892-1.004,1.892-1.516
		c0-0.512,0.039-1.333,0.039-1.371c0-0.038,0.348-0.646,0.319-0.897c-0.029-0.25-0.463-1.09-0.946-1.341
		c-0.482-0.251-2.423-1.41-2.528-2.52c0,0,0.086-0.115,0.135,0.029c0.048,0.145,0.443,1.14,1.544,1.486
		c1.1,0.348,1.998,0.425,2.297,1.323c0,0,0.154,0.087-0.029,0.405c-0.184,0.319-0.443,0.966-0.512,1.573
		c-0.067,0.609,0.097,1.487,0.821,1.874c0.724,0.386,1.39,0.019,1.525-0.416c0.134-0.434,0.057-0.936-0.329-1.148
		c-0.387-0.212-0.792-0.126-0.888,0.019c-0.098,0.145-0.136,0.416,0.067,0.569c0.203,0.154,0.357,0.01,0.357,0.01
		s0.077-0.107,0.174-0.03c0.097,0.078,0.019,0.184-0.126,0.232c-0.144,0.048-0.472,0.096-0.743-0.318
		c-0.27-0.415-0.337-1.583,0.319-1.912c0,0,0.512,0.589,0.512,0.733c0,0.145-0.203,0.019-0.242-0.058
		c-0.038-0.077-0.26-0.337-0.337-0.28c-0.078,0.058-0.483,0.463-0.02,0.656s0.927,0.038,0.927,0.038s0.222,0.212,0.444,0.029
		c0.222-0.183,0.173-0.395,0.173-0.395s0.223,0.231,0.232,0.531c0.01,0.299-0.019,1.245-0.416,1.718
		c-0.395,0.474-0.859,0.464-1.071,0.444c-0.212-0.019-1.023-0.299-1.293-0.646c0,0-0.069-0.136-0.338,0.086
		c-0.271,0.223-0.792,0.763-0.686,1.005c0.106,0.241,0.376,0.203,0.483,0.038c0.106-0.164,0.25-0.463,0.511-0.501
		c0.261-0.039,0.502,0.154,0.28,0.222c-0.222,0.068-0.608,0.25-0.676,0.55c-0.067,0.3,0.174,0.551,0.512,0.463
		c0.338-0.086,0.125,0.222-0.019,0.222c-0.145,0-0.55,0.135-1.207-0.27c-0.656-0.405-0.983-0.251-0.983-0.251
		s-0.483-0.04-1.536,0.724c0,0-0.366,0.048-0.182-0.29c0.182-0.338,0.617-0.25,0.617-0.25s0.299,0,0.223-0.261
		c-0.078-0.26-0.454-0.26-0.493-0.26s-0.599,0.048-0.811,0.599c-0.212,0.549-0.048,0.666-0.329,0.82
		c-0.279,0.154-0.936,0.357-1.476-0.116c0,0-0.387-0.329-0.724-0.261c-0.338,0.068-0.367,0.358-0.271,0.454
		c0.098,0.097,0.194,0.126,0.194,0.126s0.105,0.125-0.049,0.125c-0.155,0-0.82-0.327-0.309-1.254
		c0.511-0.926,0.984-1.409,0.984-1.409s0.724,0.251,0.831,0.135c0.105-0.116-0.193-0.657-0.367-0.531
		c-0.173,0.125-0.068,0.125-0.068,0.125s0.011,0.193-0.086,0.184c-0.097-0.01-0.357-0.126-0.126-0.387
		c0.232-0.261,0.483-0.173,0.618-0.049c0.135,0.126,0.725,0.812,0.57,1.256c-0.155,0.443-0.579,0.511-0.859,0.434
		c0,0-0.126-0.155,0.077-0.183c0.204-0.029,0.367-0.184,0.318-0.357c-0.048-0.174-0.298-0.319-0.56-0.27
		c-0.26,0.048-0.628,0.134-0.84,0.636s0.56,0.84,0.56,0.84s1.208,0.405,1.758-0.376c0.55-0.782,0.173-1.583,0.173-1.583
		s-0.434-0.937-1.438-1.516c0,0-0.019-0.164,0.049-0.501c0.067-0.337-0.097-0.878-0.165-0.975c-0.068-0.097-0.425-0.666-0.386-1.39
		C11.545,15.859,11.639,15.309,11.639,15.309z"/>
	<path fill="#BC2686" d="M14.302,10.87c0,0,0.653-1.48,2.259-1.783c1.607-0.302,2.657-0.095,2.657-0.095s2.339,0.382,3.262-0.35
		s1.209-0.812,0.923-1.384c0,0-0.175-0.143-0.445,0.016c-0.271,0.16-0.78,0.843-1.417,0.939c-0.636,0.095-2.212,0.127-2.498-0.063
		c0,0-0.111-0.08,0.127-0.302c0.239-0.224,0.461-0.701,0.461-0.701s0.684,0,0.955,0s0.622-0.271,0.605-0.478
		c-0.017-0.207-0.271-0.51-0.494-0.51c-0.222,0-0.19,0.256-0.19,0.256s0.079,0.222-0.063,0.286
		c-0.144,0.064-0.446,0.127-0.478-0.047c-0.031-0.174,0.621-0.796,0.765-0.875c0.143-0.079,0.955-0.557,0.922-0.398
		c-0.031,0.16-0.605,0.494-0.605,0.494s0,0.239,0.175,0.397c0.175,0.16,0.844,0.096,0.844,0.096S21.78,6.86,21.223,7.163
		c-0.556,0.302-1.464,0.239-1.464,0.239s-0.239,0.588,0.43,0.621c0.668,0.032,1.559-0.16,2.068-0.573
		c0.51-0.414,0.765-0.844,0.765-0.844s0.843,0.334,1.065,1.656c0.224,1.32,0.032,1.289,0.589,1.447c0,0,0.286-0.047,0.365-0.27
		c0,0,0.399,0.031,0.144,0.556c-0.254,0.525-1.035,1.098-0.939,2.244c0,0-2.228,0.351-3.215,2.037c0,0-0.492,0.812-0.031,1.226
		c0.461,0.414,0.764-0.59,0.764-0.59s1.019-1.797,2.817-1.782v1.29c0,0-0.016,0.063-0.175,0.127c-0.16,0.063-0.971,0.174-1.48,0.811
		c-0.509,0.637-0.414,0.685-0.271,0.812c0.144,0.127,0.414-0.333,0.876-0.636c0.46-0.302,0.922-0.286,0.62-0.112
		c-0.302,0.175-0.573,0.605-0.509,0.716c0.063,0.111,0.509,0.08,0.588,0c0,0,0.176-0.19,0.239-0.08
		c0.063,0.111-0.063,0.414-0.366,0.494c-0.302,0.079-1.018,0.27-1.957-0.128c0,0-0.382-0.35,0.318-1.019
		c0.7-0.668,1.846-0.939,1.846-1.161c0-0.224-0.016-0.557-0.382-0.526c-0.366,0.032-1.098,0.175-1.56,0.748
		c-0.462,0.573-0.938,1.639-0.938,1.639l-1.91-1.178c0,0-0.096-0.286,0.111-0.238c0.207,0.047,0.652,0.461,0.716,0.461
		c0.064,0,0.224,0.031,0.224-0.318s-0.303-0.62-0.367-0.652c-0.063-0.032-0.7-0.16-1.001,0.016
		c-0.303,0.175-0.494,0.525-0.701,0.414c-0.207-0.112-1.511-1.003-2.116-1.242c-0.604-0.239-1.751-0.398-1.751-0.398
		s1.306-0.095,1.926,0.159c0.621,0.255,1.543,0.764,2.88,0.764c1.337,0,1.846-0.27,2.164-0.875c0.319-0.604-0.111-1.67,0.048-1.909
		s0.621-0.462,0.652-0.604c0.032-0.143,0.016-0.318-0.111-0.334c-0.127-0.017-0.828,0.095-0.589,0.27c0,0,0.179,0.008,0.217,0.129
		c0.038,0.122-0.249,0.46-0.63,0.094c-0.382-0.365,0.683-0.748,0.683-0.748s1.147-0.318,1.544,0.35
		c0.398,0.668-0.366,1.289-0.557,1.289s-0.191-0.08-0.032-0.191c0.159-0.11,0.35-0.381,0.111-0.62
		c-0.239-0.238-0.572-0.063-0.859,0.207c-0.287,0.271-0.223,0.892,0.016,1.13c0.239,0.238,0.987,0.652,1.623-0.079
		c0.637-0.733,0.78-1.576,0.477-2.197c-0.302-0.621-1.24-0.812-1.797-0.748c-0.557,0.064-1.241,0.573-1.67,0.446
		c0,0-0.287-0.223-0.812-0.191c-0.526,0.032-0.844,0.191-1.401,0.239c-0.557,0.047-1.973,0-2.514,0.175
		C15.463,9.899,15.352,9.788,14.302,10.87z"/>
	<g>
		<g>
			<path fill="#BC2686" d="M6.6,19.243c0,0-0.4-0.333-0.698,0.016c-0.298,0.35,0.109,0.702,0.109,0.702
				c0.08,0.042,0.365,0.249,0.66-0.045S6.6,19.243,6.6,19.243z M6.577,19.846c-0.222,0.223-0.437,0.065-0.498,0.033
				c0,0-0.307-0.265-0.082-0.528s0.526-0.012,0.526-0.012S6.799,19.624,6.577,19.846z"/>
		</g>
	</g>
	<path fill="#BC2686" d="M14.58,2.554c0,0-0.009-0.318,0.261-0.317c0.271,0.001,0.286,0.31,0.286,0.31s-0.021,0.31-0.265,0.289
		C14.615,2.815,14.593,2.606,14.58,2.554z"/>
	<path fill="#BC2686" d="M10.684,12.366c0,0-1.541-0.151-2.614-1.623c0,0-0.138-0.014-0.11,0.138
		c0.028,0.152,1.156,1.155,1.788,1.417c0.633,0.262,0.276,0.509,0.276,0.509s-0.646,0.097-0.963,0.013
		c-0.316-0.082-0.151,0.152,0.082,0.207c0.234,0.055,1.211,0,1.211,0s-1.444,1.748-1.362,2.242c0,0,0.124,0.166,0.234-0.068
		c0.11-0.233,0.839-1.843,1.624-2.201c0,0,0.027,0.537-0.303,0.826c-0.33,0.288-0.578,0.522-0.495,0.632
		c0.083,0.11,0.399-0.192,0.454-0.248c0.055-0.055,0.564-0.44,0.605-0.798c0,0,0.179,0.22-0.192,0.991
		c-0.372,0.77-0.744,1.224-0.647,1.375c0.096,0.151,1.21-1.335,1.251-2.105c0,0,0.207-0.014,0.207,0.166
		c0,0.178,0.041,0.687,0.041,0.687s0.124,0.124,0.124-0.042c0-0.165,0.041-0.55,0.041-0.55s0.537,2.049,1.706,2.586
		c0,0,0.097-0.192,0-0.247c-0.097-0.056-1.486-1.403-1.196-2.601c0,0,0.591,0.262,0.77,0.66c0.179,0.399,0.289,1.005,0.289,1.005
		s0.138,0.068,0.138-0.028c0-0.096-0.014-1.087-0.674-1.692c-0.66-0.605-0.124-0.455-0.124-0.455s2.763,1.021,3.463,1.446
		c0.7,0.424,3.635,2.607,3.635,2.607s1.563,2.039,2.326,2.675c0.765,0.637,1.973,1.655,3.607,1.825c0,0-0.594-0.616-1.082-0.806
		c-0.488-0.191-2.158-0.984-2.921-2.384c-0.765-1.401-1.514-1.944-1.641-2.071c-0.126-0.127-2.588-2.037-3.437-2.271
		c-0.848-0.233-3.522-1.231-3.564-1.378c0,0,0.84-0.496,1.111-1.264c0,0-0.101-0.158-0.214,0.019
		c-0.114,0.176-0.611,0.982-1.404,1.001c0,0,0.202-0.334,0.597-0.681c0.396-0.346,1.166-0.642,1.166-0.642s0.049-0.145-0.215-0.069
		c-0.264,0.075-1.441,0.737-1.7,0.919c-0.258,0.182,0.057-0.177,0.113-0.239c0.057-0.063,0.22-0.397,0.22-0.416
		c0-0.02-0.144-0.063-0.201,0.024c-0.057,0.088-0.246,0.417-0.321,0.46c-0.075,0.044-0.195-0.101-0.057-0.24
		c0.139-0.138,0.472-1.441,0.34-2.177c0,0-0.126-0.138-0.17,0.043c-0.044,0.183,0.031,1.788-0.516,2.204c0,0-0.139,0.038-0.069-0.29
		c0.069-0.327-0.044-1.095-0.044-1.095s-0.089-0.019-0.089,0.107c0,0.125,0.063,0.792-0.043,0.956
		c-0.107,0.164-0.196-0.013-0.176-0.421c0.019-0.409,0-0.97,0.182-1.41c0.183-0.44,0.422-0.837,0.422-0.837s0.013-0.164-0.17-0.025
		c-0.182,0.138-0.566,0.944-0.623,1.29c-0.057,0.347-0.101,1.341-0.101,1.341s-0.056,0.145-0.214-0.101
		c-0.157-0.245-0.533-1.196-0.648-1.718c-0.082-0.372-0.113-0.586-0.19-0.555c-0.155,0.065-0.005,0.812,0.026,1.051
		c0.032,0.24,0.328,1.372,0.453,1.555c0.126,0.183,0.051,0.303-0.075,0.158c-0.126-0.145-0.46-0.642-0.46-0.642
		s-0.213-0.063-0.144,0.164C10.085,11.505,10.684,12.366,10.684,12.366z"/>
	<g>
		<g>
			<path fill="#BC2686" d="M20.732,20.912c-0.32,0-0.582,0.238-0.582,0.533c0,0.295,0.261,0.535,0.582,0.535
				c0.322,0,0.583-0.24,0.583-0.535C21.315,21.15,21.054,20.912,20.732,20.912z M20.732,21.797c-0.223,0-0.403-0.166-0.403-0.37
				c0-0.205,0.181-0.372,0.403-0.372c0.223,0,0.404,0.167,0.404,0.372C21.137,21.631,20.956,21.797,20.732,21.797z"/>
		</g>
	</g>
	<g>
		<g>
			<path fill="#BC2686" d="M22.137,20.241c-0.32,0-0.582,0.239-0.582,0.534c0,0.295,0.261,0.535,0.582,0.535
				c0.322,0,0.582-0.24,0.582-0.535C22.719,20.48,22.458,20.241,22.137,20.241z M22.137,21.126c-0.223,0-0.403-0.166-0.403-0.371
				c0-0.204,0.18-0.371,0.403-0.371c0.223,0,0.404,0.167,0.404,0.371C22.541,20.96,22.36,21.126,22.137,21.126z"/>
		</g>
	</g>
	<g>
		<g>
			<path fill="#BC2686" d="M22.919,21.896c-0.32,0-0.582,0.24-0.582,0.535c0,0.295,0.261,0.534,0.582,0.534
				c0.322,0,0.583-0.238,0.583-0.534C23.502,22.136,23.241,21.896,22.919,21.896z M22.919,22.783c-0.222,0-0.402-0.167-0.402-0.371
				s0.18-0.37,0.402-0.37c0.224,0,0.404,0.166,0.404,0.37S23.143,22.783,22.919,22.783z"/>
		</g>
	</g>
	<g>
		<g>
			<path fill="#BC2686" d="M24.814,23.33c-0.089-0.281-0.41-0.43-0.716-0.333c-0.306,0.097-0.482,0.404-0.393,0.686
				s0.411,0.43,0.716,0.333C24.728,23.918,24.904,23.611,24.814,23.33z M24.366,23.841c-0.212,0.067-0.435-0.036-0.497-0.231
				c-0.063-0.195,0.06-0.408,0.272-0.475c0.213-0.068,0.435,0.035,0.498,0.231C24.701,23.561,24.579,23.774,24.366,23.841z"/>
		</g>
	</g>
	<g>
		<g>
			<path fill="#BC2686" d="M24.556,21.468c-0.26-0.039-0.498,0.112-0.53,0.335c-0.033,0.224,0.153,0.434,0.414,0.473
				c0.261,0.037,0.499-0.114,0.531-0.336C25.002,21.717,24.816,21.505,24.556,21.468z M24.459,22.138
				c-0.181-0.027-0.31-0.173-0.287-0.327c0.022-0.155,0.187-0.259,0.368-0.233c0.181,0.026,0.31,0.172,0.287,0.327
				C24.805,22.06,24.641,22.163,24.459,22.138z"/>
		</g>
	</g>
	<g>
		<g>
			<path fill="#BC2686" d="M25.767,22.364c-0.292,0-0.528,0.24-0.528,0.535c0,0.294,0.237,0.533,0.528,0.533
				c0.292,0,0.528-0.239,0.528-0.533C26.295,22.604,26.059,22.364,25.767,22.364z M25.767,23.249c-0.203,0-0.366-0.165-0.366-0.37
				c0-0.204,0.164-0.37,0.366-0.37c0.202,0,0.366,0.166,0.366,0.37C26.133,23.084,25.969,23.249,25.767,23.249z"/>
		</g>
	</g>
	<g>
		<g>
			<path fill="#BC2686" d="M26.749,20.587c-0.322,0-0.582,0.24-0.582,0.535s0.259,0.534,0.582,0.534
				c0.321,0,0.582-0.239,0.582-0.534S27.069,20.587,26.749,20.587z M26.749,21.474c-0.223,0-0.404-0.166-0.404-0.371
				c0-0.205,0.182-0.37,0.404-0.37s0.403,0.166,0.403,0.37C27.152,21.308,26.971,21.474,26.749,21.474z"/>
		</g>
	</g>
	<g>
		<g>
			<path fill="#BC2686" d="M25.588,19.245c-0.322,0-0.582,0.239-0.582,0.533c0,0.295,0.26,0.535,0.582,0.535s0.583-0.24,0.583-0.535
				C26.171,19.484,25.91,19.245,25.588,19.245z M25.588,20.13c-0.223,0-0.403-0.166-0.403-0.371c0-0.204,0.18-0.37,0.403-0.37
				c0.224,0,0.403,0.166,0.403,0.37C25.992,19.964,25.812,20.13,25.588,20.13z"/>
		</g>
	</g>
	<g>
		<g>
			<path fill="#BC2686" d="M28.065,21.992c-0.169-0.209-0.51-0.213-0.763-0.01c-0.252,0.203-0.319,0.538-0.151,0.748
				c0.169,0.208,0.51,0.213,0.763,0.009C28.167,22.536,28.234,22.202,28.065,21.992z M27.81,22.61
				c-0.174,0.141-0.412,0.139-0.529-0.006c-0.116-0.146-0.07-0.378,0.106-0.519c0.174-0.141,0.411-0.138,0.528,0.007
				C28.032,22.237,27.985,22.469,27.81,22.61z"/>
		</g>
	</g>
	<g>
		<g>
			<path fill="#BC2686" d="M23.13,18.358c-0.268,0-0.485,0.199-0.485,0.445c0,0.246,0.217,0.445,0.485,0.445
				s0.484-0.199,0.484-0.445C23.615,18.557,23.398,18.358,23.13,18.358z M23.13,19.096c-0.186,0-0.336-0.139-0.336-0.309
				c0-0.17,0.15-0.309,0.336-0.309c0.185,0,0.335,0.138,0.335,0.309C23.466,18.958,23.315,19.096,23.13,19.096z"/>
		</g>
	</g>
	<g>
		<g>
			<path fill="#BC2686" d="M24.177,19.496c-0.227-0.133-0.503-0.084-0.618,0.11c-0.114,0.194-0.022,0.46,0.206,0.594
				c0.227,0.133,0.504,0.083,0.618-0.111S24.404,19.629,24.177,19.496z M24.263,20.002c-0.079,0.134-0.271,0.169-0.428,0.077
				s-0.221-0.277-0.142-0.412c0.079-0.134,0.271-0.169,0.428-0.077C24.278,19.684,24.342,19.868,24.263,20.002z"/>
		</g>
	</g>
	<path fill="#BC2686" d="M21.401,18.777c0,0-0.219,2.004-0.342,2.222l0.161,0.151c0,0,0.295-1.557,0.286-2.203L21.401,18.777z"/>
	<path fill="#BC2686" d="M21.914,20.296c0,0,0.009-0.712,0.038-0.883l0.104,0.104l0.019,0.712L21.914,20.296z"/>
	<path fill="#BC2686" d="M22.579,20.087l0.341,1.809l0.163,0.014c0,0-0.209-1.511-0.333-1.766L22.579,20.087z"/>
	<path fill="#BC2686" d="M23.187,20.477c0,0,0.846,2.242,0.836,2.545l0.133-0.047c0,0-0.361-1.396-0.713-2.336L23.187,20.477z"/>
	<path fill="#BC2686" d="M25.038,21.445c0,0,0.457,0.77,0.466,0.998l0.113-0.085c0,0-0.294-0.779-0.322-0.865
		C25.267,21.407,25.038,21.445,25.038,21.445z"/>
	<path fill="#BC2686" d="M22.635,18.738c0,0-0.417,0.152-0.931-0.304l0.028,0.209c0,0,0.294,0.38,0.922,0.285L22.635,18.738z"/>
	<path fill="#BC2686" d="M24.022,20.542c0,0,0.627,0.047,1.073-0.465l0.171,0.152c0,0-0.589,0.465-0.931,0.476
		c-0.342,0.009-0.029,0-0.029,0L24.022,20.542z"/>
	<polygon fill="#BC2686" points="25.238,21.179 26.167,21.122 26.226,21.369 25.542,21.465 	"/>
	<path fill="#BC2686" d="M25.732,21.587c0,0,1.045,0.57,1.472,0.466l-0.114,0.266c0,0-0.485-0.133-1.53-0.665L25.732,21.587z"/>
	<path fill="#BC2686" d="M8.472,12.619c0,0-1.801-0.33-2.663-0.203c-0.863,0.127-1.548-0.431-1.142-1.369
		c0.406-0.939,0.787-2.005,0.608-3.323c0,0-0.151-0.812,1.345-0.736c1.496,0.077,1.852,0.305,1.902,1.167
		c0.051,0.863,0.076,1.75,0.331,2.131c0,0-0.559-0.685-0.458-2.055c0,0,0.076-0.735-0.913-0.964C6.494,7.038,5.555,7.19,5.53,7.52
		c-0.026,0.33,0,0.33,0,0.812c0,0.481-0.254,1.978-0.686,2.714c-0.431,0.735-0.05,1.217,0.66,1.191
		C6.215,12.212,7.382,12.111,8.472,12.619z"/>
	<path fill="#BC2686" d="M11.389,8.585c0,0-0.126-0.862,0.204-1.547c0.33-0.685-0.305-1.928-0.305-1.928s-0.254-0.583,0.583-0.532
		c0.837,0.05,2.41,0.837,2.537,1.522c0.127,0.685,0.229,1.319-0.077,2.106c-0.304,0.786-0.811,2.156-0.811,2.156
		s0.686-1.953,0.735-2.284c0.051-0.33,0.406-1.826-0.203-2.257c-0.608-0.431-0.964-1.091-2.511-1.014c0,0-0.228,0-0.05,0.278
		c0.177,0.279,0.532,0.989,0.304,1.573C11.567,7.241,11.365,8.535,11.389,8.585z"/>
	<path fill="#BC2686" d="M15.248,10.466c0,0,0.755-0.447,1.34-0.416c0.586,0.031,1.943,0.155,2.359,0.031
		c0.416-0.124,1.033-0.54,1.695,0.57c0.664,1.11,0.664,2.575-0.323,2.744c-0.987,0.169-2.451-0.386-3.299-0.555
		c-0.848-0.169-1.758-0.2-1.758-0.2s0.956-0.201,2.528,0.277c1.572,0.478,2.744,0.462,2.867-0.324
		c0.124-0.787-0.016-2.328-0.863-2.328c-0.848,0-1.28,0.093-2.02,0.077c-0.74-0.015-0.555-0.216-1.248-0.138
		C15.834,10.281,15.248,10.466,15.248,10.466z"/>
	<path fill="#BC2686" d="M14.308,15.322c0,0,0.725,1.542,1.772,2.035c1.048,0.493,1.11,1.11,0.817,1.264
		c-0.292,0.154-1.233,0.031-1.51,0.293c-0.277,0.262-0.756,0.494-1.372,0.494c-0.617,0-0.679-0.169-0.956-0.833
		c-0.278-0.663-0.278-1.125-0.786-1.619c-0.509-0.493-0.339-1.064-0.339-1.064s-0.03,0.524,0.462,0.972
		c0.493,0.447,0.647,1.095,0.848,1.634c0.2,0.539,0.339,1.125,1.603,0.524c1.264-0.602,0.863-0.463,1.418-0.524
		c0.554-0.063,0.216-0.524,0.062-0.632C16.173,17.757,14.678,16.54,14.308,15.322z"/>
	<path fill="#BC2686" d="M9.945,16.076c0,0-0.231,0.386-0.571,0.741c-0.339,0.354-0.417,0.848-0.678,1.464
		c-0.262,0.617-0.401,0.848-0.986,0.678c-0.586-0.169-2.738-1.029-2.174-2.157C5.567,16.74,6.03,16.169,6.6,15.784
		c0.571-0.385,0.771-0.894,0.925-1.018c0.154-0.123,0.555-0.385,1.11-0.416c0,0-0.895,0.277-1.064,0.539
		c-0.169,0.262-0.631,0.848-1.079,1.156c-0.446,0.309-0.878,0.571-0.816,1.156c0.062,0.587,1.696,1.711,2.235,1.527
		c0.54-0.186,0.479-0.154,0.571-0.509c0.092-0.354,0.585-1.249,0.908-1.587C9.714,16.292,9.945,16.076,9.945,16.076z"/>
</g>
</svg>
