<?xml version="1.0" encoding="utf-8"?>
<!-- Generator: Adobe Illustrator 15.0.0, SVG Export Plug-In . SVG Version: 6.00 Build 0)  -->
<!DOCTYPE svg PUBLIC "-//W3C//DTD SVG 1.1//EN" "http://www.w3.org/Graphics/SVG/1.1/DTD/svg11.dtd">
<svg version="1.1" id="レイヤー_1" xmlns="http://www.w3.org/2000/svg" xmlns:xlink="http://www.w3.org/1999/xlink" x="0px"
	 y="0px" width="307px" height="263px" viewBox="0 0 307 263" enable-background="new 0 0 307 263" xml:space="preserve">
<rect x="-51" y="-48" display="none" width="400" height="366"/>
<g display="none" opacity="0.16">
	<path display="inline" fill="#FFFFFF" d="M205.145,109.846c0,0-2.068-12.609,3.101-19.019s10.956-15.711,10.956-20.26
		c0-4.548,0.207-13.851,0.207-13.851s3.516,1.241,7.649-1.034c4.135-2.274,9.51-7.856,9.51-9.097s-2.275-3.927-3.722-2.687
		s-6.408,4.962-9.096,6.202s-5.169,0.62-5.169,0.62s-1.24-8.27-0.413-10.131c0.827-1.86,3.928-5.582,6.615-5.168
		s4.756,2.481,1.034,4.135c-3.721,1.654-6.614,4.134-4.341,6.408c2.273,2.275,8.889-3.721,9.716-6.615c0,0,0.826-1.033,2.894,1.24
		c2.068,2.274,5.169,5.375,5.169,5.375s-1.653,3.309-3.721,5.169c-2.068,1.86-5.583,6.202-11.991,8.063c0,0-1.653,0.414-1.033,4.549
		c0.62,4.134,6.409,3.928,10.75,1.24c4.342-2.688,11.37-12.404,11.99-19.434l9.923,1.654c0,0-0.826,14.264,8.89,17.572
		c9.716,3.308,12.197-3.309,12.197-4.342s-1.032-6.408-7.028-3.927c-5.996,2.48-7.442-3.722-6.409-7.442
		c0,0,8.476,4.133,11.784,3.307c3.308-0.826,2.273,1.447,2.273,1.447s1.034,6.202,3.516,6.202c2.48,0,0.205,2.48,0.205,2.48
		s-4.754,5.788-13.437,5.375s-13.646-11.578-13.852-15.505c0,0-1.241-3.516-4.135-3.101c-2.894,0.414-3.721,1.24-4.341,3.721
		s-3.103,10.338,14.678,19.021c0,0,16.953,4.753,24.602-3.516c0,0,5.789,6.409,5.582,8.27c0,0-10.131,5.789-10.131,11.164
		c0,5.374,3.721,5.167,5.375,4.134s2.687-7.442,4.961-7.855l0.415,7.855c0,0-10.752,3.307-11.578,5.582
		c0,0-2.893-8.683-0.206-12.817c2.688-4.134,8.889-7.235,8.889-8.476s-0.826-4.343-3.307-4.135
		c-2.48,0.207-16.539,2.274-14.059,27.082c0,0-13.024,7.235-21.5,19.64c-8.476,12.403-30.39,11.37-30.39,11.37
		s-1.653-2.067,0.62-2.067c2.274,0,18.4,1.241,28.116-19.64c0,0,3.307-8.684,15.091-16.539c11.783-7.855,5.996-10.956,5.996-10.956
		S252.278,66.02,241.528,66.64c-10.749,0.62-13.229,5.582-13.229,5.582s-3.309,6.821-10.131,13.644s-11.576,17.16-11.576,20.054
		S205.558,113.361,205.145,109.846z"/>
	<path display="inline" fill="#FFFFFF" d="M196.048,106.54c0,0-0.827-13.229,4.135-21.087c4.962-7.856,9.716-15.092,6.822-22.534
		c-2.895-7.442-10.545-18.399-12.611-21.294c-2.066-2.894-16.125-11.989-16.125-17.984c0-5.996,1.448-7.029,4.756-4.342
		c3.307,2.688,2.066,6.202,2.066,6.202s0.62,2.273,1.86,1.653s0.414-5.375-0.413-7.235c-0.827-1.861-6.203-6.823-10.75-5.789
		c0,0-1.655,1.034,0.62,8.063c2.274,7.028,7.649,12.609,8.27,13.23c0.62,0.62,10.543,7.236,9.303,12.818c0,0-1.654,2.893-8.27-2.896
		s-14.265-19.226-14.265-19.226l-5.167-9.303l0.62-6.202c0,0-2.895,2.481-8.684-0.62C152.428,6.895,153.048,4,153.048,4
		s-2.273,4.341-7.235,6.409s-8.683,1.24-8.683,1.24s6.822,17.986-1.448,26.669c-8.27,8.683-19.019,0.413-19.019,0.413
		s-2.687-2.896-0.62-5.169s5.167,0,5.167,0s7.237,3.515,9.718-2.48c2.48-5.994-1.24-15.711-1.24-15.711l-9.303,7.442
		c0,0,2.688,4.963,4.961,3.309s-0.826-4.342,0.62-5.168c1.446-0.827,3.308,1.859,3.308,4.754s1.447,6.824-5.375,6.41
		c-6.822-0.415-6.822-7.236-6.822-7.236s-5.013,8.891-9.409,11.29c-3.296,1.8-4.515,0.227-4.92-0.673
		c-0.134-0.301-0.178-0.526-0.178-0.526s0.6,1.101,0.6,4.398s-1.5,13.095,3.898,17.692c0,0,1.2,0.699,3.499-1.699
		s3.697-3.1,5.896-2.999c2.2,0.101,8.098,1.3,7.997,7.097l-3.198-0.898c0,0-0.999-1.201-2.799-1.201s-2.898,2.499-2.898,2.499
		l11.095,3.5c0,0,1.499-10.096-5.997-12.495c-7.497-2.399-10.396,3.498-14.094-1.899s11.495-8.798,18.092-4.099
		c6.597,4.698,10.994,10.295,11.994,22.891c0,0,12.289,5.697,19.287,17.492s6.196,13.992,6.196,13.992l19.091,13.895
		c0,0,1.1-0.001,0.3-1c-0.8-1-14.294-11.596-15.493-15.394s0.503-9.594-4.596-16.491s-20.894-16.392-23.892-23.889
		c-2.998-7.496-3.101-14.392,2.098-18.091c5.142-3.659,10.87-6.437,23.089-1.853c0.134,0.051,0.267,0.102,0.401,0.153
		c0,0,1.699,1.499,1.3-2.499c-0.4-3.998-2.296-8.996-5.395-11.194c-3.099-2.199-6.897-2.8-9.196-0.601s-0.898,3.398,0.5,2.1
		c1.399-1.299,5.399-2.398,6.897,0.9c1.499,3.298,0.1,5.998-3.799,6.497c-3.897,0.499-10.796-1.199-10.896-8.497
		c-0.1-7.297,2.098-11.695,8.296-11.695c6.199,0,11.098,2.099,16.794,12.395c5.697,10.297,6.797,16.894,6.797,16.894
		s11.893,8.296,16.291,12.395c4.398,4.098,9.195,8.396,8.496,15.893c-0.698,7.496-2.401,10.892-4.5,17.089
		C192.624,92.445,196.048,106.54,196.048,106.54z"/>
	<path display="inline" fill="#FFFFFF" d="M217.253,136.87c0,0-4.312-1.382-3.187-2.788c0.456-0.569,3.813,0.996,3.813,0.996
		s7.317,2.473,13.933,1.439c7.627-1.19,16.876-4.184,16.876-4.184s1.936,10.386,15.374,9.766s10.442-8.685,10.442-8.685
		s-2.791-5.991-8.167-3.925s-1.55,7.439,0.312,6.199c1.86-1.24,2.273,0.929,1.653,1.136c-0.62,0.208-0.931,1.551-4.858,1.448
		c-3.365-0.089-6.615-1.24-8.684-7.546c0,0,8.062-1.65,10.129-2.479c2.068-0.827,9.717-2.688,9.717-2.688s-0.463,6.264,3.949,11.524
		c4.413,5.261,10.521,10.691,20.365,9.503c0,0,4.582-1.526-0.509-4.072s-19.349-7.977-19.518-17.649c0,0,9.334-3.563,11.2-5.771
		c0,0,1.696,1.527,1.018,4.413c-0.678,2.885,2.039,3.733,2.039,3.733s5.939,3.223,5.77,4.072c-0.17,0.849-3.732,1.527-6.108,0.339
		c-2.377-1.188-6.11-7.637-9.335-5.43s3.904,9.163,5.94,10.013c2.036,0.849,6.787,3.394,14.595,3.733v9.334
		c0,0-19.519-0.171-19.688,6.108c-0.169,6.28,12.05,7.638,12.05,7.638s6.617-1.357,0.339-4.752s2.545-5.432,6.788-4.582
		c0,0-3.563,22.57-1.188,37.844l-12.388-0.509c0,0-5.941-6.45-5.602-14.426c0.341-7.976,6.958-8.144,7.977-6.617
		s1.188,3.393,0,3.054c-1.188-0.34-1.188-3.394-3.563-1.188s-1.528,7.296,2.715,8.146c4.243,0.849,7.807-1.868,7.807-8.316
		c0-6.447-5.939-7.466-5.939-7.466s-9.264-4.723-13.746,4.243c-4.241,8.485-2.715,16.291-2.715,16.291l-5.77,6.788
		c0,0-1.02,5.09,0.339,6.108c1.357,1.019,4.072,1.697,4.242-0.339c0.169-2.036-1.356-6.277,2.885-8.146l0.509,2.885
		c0,0,1.867,1.357,1.697,3.563s-1.356,1.868-1.356,0.68s-1.697-4.412-2.207-3.563c-0.51,0.848,0,0.168,0,3.223
		c0,3.056-0.68,5.261-3.225,4.922s-3.903-4.411-5.431-2.715c-1.527,1.697,3.395,5.261,1.697,7.298
		c-1.697,2.036-5.431-1.867-6.958,0.169s4.921,2.206,3.563,3.733c-1.356,1.527-6.617-1.866-5.938-4.072s4.073-1.867,6.788-1.358
		c0,0,1.188-1.018-0.339-2.545c-1.528-1.527-4.243-2.037-4.243-2.037s-4.825,4.05-5.584,4.808c-0.758,0.759-10.62-1.264-10.789-1.77
		c-0.168-0.507-4.637-0.843-6.996,2.022c-2.359,2.866-5.647,8.683-0.505,14.92c5.142,6.237,10.199,3.541,11.8,2.108
		c1.602-1.434,2.529-6.744-0.59-8.177s-4.805,0.672-4.973,1.264c-0.169,0.591,0.086,1.603,1.349,1.938c0,0,0.843,1.096-0.843,0.759
		c-1.687-0.337-3.033-3.034-1.602-4.636s4.468-3.371,8.935-1.602c4.468,1.77,8.43,5.815,8.767,7.502c0,0-3.708-2.359-10.789,5.563
		c-7.082,7.923-9.862,9.861-9.862,9.861s-0.674-0.59-0.591-3.034c0.084-2.444,0.002-8.43-4.214-11.043
		c-4.215-2.612-5.144-1.264-8.768-5.899s-8.513-9.778-6.658-10.79c1.854-1.011,5.732,5.9,6.406,6.744
		c0.674,0.843,3.709,7.08,6.322,5.057c2.612-2.022,1.515-9.861-1.771-12.391s-8.005-7.922-8.005-7.922s-5.818-0.168-7.082-2.276
		c-1.264-2.107-1.01-8.428-2.527-16.1c-1.519-7.671-3.454-12.573-10.896-20.636c0,0-0.31-1.705,1.086-0.931
		c1.396,0.775,8.527,6.202,13.799,21.087s8.063,19.381,11.318,22.638c3.257,3.256,6.513,5.736,11.009,3.101
		c4.497-2.636,10.233-10.854,10.233-10.854s2.016-0.31,1.86,1.24c-0.155,1.551-2.48,5.271-4.962,7.133
		c-2.48,1.86,2.016,2.636,2.016,2.636s5.737,1.705,8.838-1.706c3.102-3.411,2.481-6.667,2.481-6.667s-4.807-0.775-5.582-3.411
		s-0.31-4.031,1.24-5.116c1.551-1.086,4.807-0.775,5.737,0.775c0.93,1.55,1.395,2.791,1.085,4.807s4.651,0.62,4.651,0.62
		l6.667-6.513c0,0-0.62-4.807-0.31-6.047c0.31-1.24-0.775-1.86-1.396-1.24s-1.396,4.651-5.116,6.357
		c-3.722,1.705-5.117-1.241-3.722-2.481s4.962-2.016,6.978-5.116s9.612-13.334,9.923-15.97c0.31-2.637,3.101-15.195,1.396-15.815
		c-1.706-0.62-4.754-2.429-8.785-1.964c-4.031,0.466-12.301,4.548-23.566-2.17c0,0-4.754-0.917-14.577-0.628
		C226.273,139.687,217.253,136.87,217.253,136.87z"/>
	<path display="inline" fill="#FFFFFF" d="M198.74,160.068c0,0,4.824,3.057,4.503,10.616c-0.32,7.56-2.412,19.139,0.161,24.769
		c2.574,5.631,6.756,10.777,6.756,10.777s-8.363,8.042-10.294,12.867c-1.931,4.824-9.007,21.712,2.896,27.503
		s15.118-4.503,15.118-7.077c0-2.573-2.252-10.293-7.881-9.007s-4.663,6.273-1.93,7.078c2.734,0.804,2.735,1.608,1.608,2.09
		c-1.126,0.482-7.077-0.803-5.63-6.433c1.447-5.631,4.827-14.798,9.329-17.05c4.503-2.252,4.825,4.182,4.986,6.272
		s0.321,4.824-1.608,3.699s-1.931-2.092-1.609-3.86c0.322-1.769,0.483-4.826-1.769-3.057c-2.251,1.771-3.378,5.148-0.965,8.525
		c2.413,3.378,7.881,5.309,7.881,5.309s1.126,15.439-7.237,25.412c0,0-1.126-1.288-1.287-3.057s-4.986-8.042-13.028-7.237
		s-17.371,2.092-29.755,8.525c0,0-6.272,3.215-10.938,1.607c0,0-0.805-0.642,1.286-3.859c2.091-3.217,0.644-7.079-3.217-10.134
		s-8.45-7.68-8.45-7.68l-0.395-28.187c0,0-1.609-10.294-7.561-12.385s-11.097-0.966-14.957,3.217s-2.896,16.246,3.538,18.015
		s7.881-4.023,7.881-7.078s-2.895-5.468-4.985-3.377c0,0-2.252,0.16-0.805-1.608s5.307-2.735,7.237,1.447
		c1.932,4.183,1.771,21.715,0.805,25.574c0,0-4.343,0.321-8.847-4.021c0,0,0.483-3.538,3.057-2.252c2.572,1.287-0.16,1.93,2.413,3.7
		c2.572,1.77,4.824-5.146,3.377-7.077s-5.146-5.629-11.58-1.447s-5.31,1.447-4.826-1.608c0.483-3.057-0.642-8.044-4.663-12.063
		c-4.022-4.021-6.112-1.287-5.309-3.7c0.805-2.412,3.698-1.769,5.468-2.733c1.77-0.966,10.769-10.404,13.825-11.852
		c3.056-1.447,7.407-0.532,10.141-2.624c2.734-2.092,3.218-4.824,5.147-4.504c1.93,0.321,3.699,1.93,2.091,4.825
		c-1.608,2.895-6.112,3.217-6.112,3.217s-3.379,0.16-2.896,3.217c0.483,3.056,7.238,6.596,11.902,1.931
		c4.665-4.665,4.664-12.867-0.965-20.104c0,0,2.894-14.154,7.72-19.141c4.825-4.985,13.51-9.81,12.546-7.881
		c-0.965,1.93-2.252,1.771-3.539,3.057c-1.286,1.286-9.488,9.973-9.972,17.692c-0.482,7.72,1.284,14.793-0.324,20.744
		s-6.067,11.031-6.872,13.122c-0.804,2.091-1.009,3.123-0.365,6.822c0.643,3.699,0.52,21.749,0.52,21.749
		s4.466,18.301,22.158,18.944c17.692,0.643,21.874-16.084,21.874-18.336s-1.287-8.364,0-9.812c1.288-1.448,5.631-4.826,5.631-9.169
		s-1.61-9.005-2.735-18.173c-1.125-9.169,1.93-13.832,2.895-20.588C201.15,167.465,198.74,160.068,198.74,160.068z"/>
	<path display="inline" fill="#FFFFFF" d="M191.59,231.908c0,0-5.376-6.378-6.558-5.61c0,0-2.244,0.647-2.48,2.007
		s0.651,4.609-1.771,7.443c-2.423,2.835-5.139,5.078-10.987,4.252c-5.848-0.826-9.687-7.678-9.51-11.754s1.063-5.14,2.362-5.375
		c1.3-0.236,4.134-1.064,4.784,3.189c0.65,4.253,1.95,7.738,5.376,7.62c3.426-0.119,6.496-3.604,5.847-7.738
		c0,0-1.83-1.478-5.847-0.354c0,0-0.591,1.536,1.181,1.595c1.772,0.06,2.067-0.237,2.126,0.413c0.06,0.65,0.4,4.223-2.805,4.12
		c-3.206-0.104-3.617-5.789-3.722-7.133c-0.104-1.343-1.654-3.515-3.618-4.031c-1.964-0.516-6.202-2.687-6.202-2.687
		s-1.241-0.104-2.067,1.033c-0.826,1.138-1.757,1.345-4.444,1.448c-2.688,0.103-0.93,1.653,0.207,1.653
		c1.136,0,4.443,0.827,4.547,2.791c0.104,1.963,0.415,4.548-2.687,5.479c-3.101,0.93-0.621,1.965,0.517,1.551
		c1.137-0.415,3.307,0.516,4.651,2.583c1.345,2.068,0.311,4.859-0.826,6.822c-1.138,1.964,0.826,1.964,1.343,1.033
		c0.518-0.93,2.17-3.308,4.444-1.86c2.275,1.447,1.653,4.756,1.551,5.686c-0.103,0.931,1.034,1.137,1.654,0.206
		c0.621-0.93-0.31-4.341,5.065-4.341c0,0,3.1,0.827,3.514,3.308c0.414,2.481,1.965,1.033,2.067,0.724
		c0.104-0.311-2.688-4.341,0-7.028c2.688-2.688,7.133,0.724,7.133,0.724s1.034-0.104,0.517-1.138
		c-0.517-1.033-5.581-2.896-2.998-5.892c2.584-2.997,6.822-0.206,6.822-0.206S192.299,232.926,191.59,231.908z"/>
	<path display="inline" fill="#FFFFFF" d="M172.847,121.687c0,0-0.462-4.93-9.857-6.47c-9.396-1.539-21.873-0.31-39.124-20.177
		c0,0-1.54-0.614-1.694,1.081c-0.153,1.694-3.387,15.248-15.556,23.873c-12.169,8.626-13.402-0.77-10.167-3.08
		c3.235-2.31,18.638-7.854,16.789-27.108c0,0-15.556-2.772-22.025-1.54c-6.47,1.231-3.081,2.926-1.541,2.772
		c1.541-0.154,3.852,1.849,1.695,6.931c-2.156,5.083-1.849,11.552-1.849,11.552s8.626-2.618,12.63-6.622
		c4.005-4.005,1.541-7.239,0.771-6.161s-0.154,2.001-1.54,2.771s-6.162,1.387-6.777-3.388c-0.616-4.775,4.004-6.47,7.854-6.47
		c3.852,0,10.012,2.157,7.702,11.091c-2.311,8.934-14.479,13.708-18.791,16.172c0,0-0.771,3.85,1.078,6.161
		c1.848,2.311,2.31,8.163,1.848,11.09c-0.461,2.926-2.157,6.468-7.701,6.777c0,0-1.077,1.229,0.155,1.538
		c1.231,0.309,0.616,6.315,0.616,6.315s4.776,0.002,5.699,0.925s10.936,8.471,11.244,11.243c0.308,2.772,0.924,7.855-0.771,10.782
		c-1.695,2.927-5.083,5.852-9.241,5.544c-4.159-0.308-7.087-4.928-6.316-7.854c0.771-2.926,4.006-4.622,5.392-3.235
		s1.85,2.928,1.695,4.313c-0.155,1.386,2.925-0.924,2.617-4.929s-2.465-9.087-8.626-9.55H84.59v7.548c0,0,4.466-0.31,3.234-2.312
		c-1.232-2.002-0.308-2.927-0.308-2.927s2.003-1.23,3.543,1.233c1.539,2.464-1.849,6.47-6.777,6.932c0,0-0.462,12.784,14.786,16.942
		c0,0,8.934,1.694,6.932,8.934c0,0,6.527,0.111,10.994-4.049c0,0,3.008-2.741,2.252-8.735c0,0,3.388-2.004,6.007,0.461
		c2.618,2.466-3.389,1.849-3.389,1.849s-1.232,0.925,0.308,1.849c1.541,0.924,8.01,0.308,7.855-2.772
		c-0.153-3.081-3.54-4.952-14.036-4.819c-7.1,0.09-9.067,1.277-7.682,2.509c0,0,2.665-0.167,4.472-0.234
		c1.806-0.068,3.074,0.667,3.142,2.874c0.068,2.207-1.136,6.284-5.148,5.816c-4.012-0.467-7.164-3.296-8.022-4.546
		c-1.604-2.34-1.472-5.281,0.735-8.022c3.98-4.943,10.832-4.346,13.507-4.279c2.674,0.066,12.503-0.668,18.252,4.948
		c0,0,4.269-6.292,5.899-10.431c1.63-4.14,4.515-15.176,12.164-18.436s12.039-2.383,12.039-2.383s5.016-1.129,5.769-2.884
		c0,0-2.008,0.378-4.265,1.004c-2.256,0.627-12.663-3.639-24.953,9.654s-12.164,16.302-21.694,16.052
		c-9.53-0.251-16.052-2.885-13.167-9.781c2.884-6.897,4.764-4.265,2.758-7.399s-4.638-7.273-3.26-12.415
		c1.379-5.141,6.02-10.156,8.652-8.902c2.634,1.253,2.76,8.149,0,8.275c-2.759,0.126-0.752-2.383-0.752-2.383
		s-1.13-1.755-1.756,0.377c-0.627,2.132-1.88,6.021,1.255,8.527c0,0,1.378,0.751,3.009-1.756c1.63-2.508,5.141-10.534,2.633-16.804
		c0,0-1.63-2.509-5.894-0.377c-4.127,2.064-9.78,6.268-9.78,15.927c0,7.775,2.633,10.784,2.633,10.784s1.253,1.507-0.753,3.387
		s-5.643-1.255-5.643-1.255s-6.771-4.89-4.766-16.553c2.006-11.662,10.534-15.3,13.418-17.056
		c2.885-1.755,10.534-8.902,10.534-8.902s3.009-3.262,9.153-1.882c6.146,1.38,8.78,4.14,13.67,5.895
		c4.891,1.755,14.046,1.38,14.046,1.38S169.183,115.693,172.847,121.687z"/>
	<path display="inline" fill="#FFFFFF" d="M190.156,124.318c0,0-0.31-11.163-5.271-19.536c0,0,0.931-1.705,2.326,0.311
		c1.395,2.016,7.132,11.783,6.356,20.932c0,0,3.411-2.791,3.411-6.978s1.396-5.427,1.396-5.427s1.551,0.931,1.551,3.566
		s-2.171,13.024-2.171,13.024s14.885-8.063,16.59-22.482c0,0,0.775-2.016,0.775,1.551c0,3.565-3.101,16.745-12.869,23.723
		c0,0,3.102,0.62,6.357-2.791s2.636-1.706,2.636-1.706s-0.155,3.256-3.411,5.582c-3.256,2.325-0.465,3.411-0.465,3.411
		s13.489,5.736,16.435,10.543c0,0,0.775,0.931-3.256-1.396c-4.031-2.325-13.645-6.512-13.645-6.512s7.598,4.962,7.442,6.667
		c-0.154,1.706-7.132-3.721-7.132-3.721s-2.171,0.465-0.465,2.79c1.705,2.326,16.9,17.986,15.814,21.707c0,0-0.31,1.551-1.551-2.016
		c-1.24-3.565-19.69-21.396-19.69-21.396s-2.791-0.311-2.171,1.085s2.791,4.652,2.171,8.684s-1.551,2.636-1.551,0.31
		c0-2.325-3.256-8.373-3.256-8.373s-8.528,22.948-12.56,26.979c0,0-1.55,0.62-0.31-2.171s8.218-22.638,7.752-28.219
		c0,0-0.775-2.171-1.86,0c-1.085,2.17-11.318,14.574-15.505,15.659c0,0-2.016-0.154,0.62-2.325s11.784-13.334,12.249-15.195
		c0.465-1.86-0.979-2.223-2.428-0.982c-1.447,1.241-9.511,4.755-9.097,2.274c0.414-2.481,2.689,0.208,7.856-4.548
		c0,0-7.855-0.001-15.505-1.034s-13.646-3.516-12.818-4.342s5.376,1.653,10.131,1.861c4.754,0.207,19.639-0.826,19.639-0.826
		s-5.787-1.861-8.269-2.481c-2.48-0.62-7.443-4.134-6.616-4.961c0.827-0.828,9.923,3.927,14.265,3.927s0.414-2.273,0.414-2.273
		s-9.303-11.578-17.572-14.472c-8.27-2.895-39.073-19.02-45.688-27.702S81.313,62.504,81.313,62.504s-24.189-4.96-38.246-0.826
		c-7.35,2.161-15.265,7.15-19.419,9.368c-3.792,2.024-4.149,1.381-4.149,1.381S32.938,60.749,43.895,58.68
		c10.956-2.067,31.735-3.721,49.822,4.444c15.838,7.149,31.836,17.986,31.836,17.986s13.438,11.989,23.362,16.745
		C158.838,102.612,180.129,111.501,190.156,124.318z"/>
	<path display="inline" fill="#FFFFFF" d="M169.633,89.373c0,0,0-17.337-12.281-23.84c-12.282-6.502-15.893-14.448-13.364-18.422
		c2.527-3.973,9.752-9.391,28.535,2.167c18.782,11.559,22.033,16.616,19.866,24.201s-2.167,16.977-2.167,16.977
		s-1.445-9.753,0.361-16.615c1.806-6.862,0.001-9.029-2.528-10.113s-21.312-19.867-30.343-18.062
		c-9.03,1.807-13.364,3.614-9.752,8.309c3.612,4.695,9.754,4.334,15.894,13.365C169.994,76.37,171.078,86.845,169.633,89.373z"/>
	<path display="inline" fill="#FFFFFF" d="M214.784,102.375c0,0,5.418-10.837,9.391-15.532c3.974-4.694,13.366-18.422,23.479-13.364
		s16.255,7.587,11.197,12.643s-12.281,10.113-14.448,15.171c-2.167,5.057-8.308,18.061-18.783,20.228c0,0,10.835-4.696,11.92-10.836
		c1.084-6.141,9.03-17.338,14.81-20.589c5.778-3.252,5.057-8.67,2.89-10.476c-2.167-1.807-10.476-7.946-15.894-4.334
		c-5.418,3.611-11.558,9.751-14.086,14.086C222.73,93.707,214.784,102.375,214.784,102.375z"/>
	<path display="inline" fill="#FFFFFF" d="M228.871,144.638c0,0,15.171-0.723,18.783,1.083s20.227,6.504,26.007,4.335
		c5.78-2.168,2.168,5.058,0.362,7.586c-1.806,2.527-7.585,15.894-19.144,22.033c-11.559,6.141-10.837,9.752-12.643,12.28
		c-1.807,2.529-7.585,4.698-11.559-1.082c-3.973-5.781-10.476-20.589-10.476-20.589s8.671,13.724,9.754,16.253
		s5.417,9.391,10.474,0.361c5.058-9.029,11.561-8.67,17.34-13.364c5.778-4.695,15.531-15.17,13.725-17.699
		c-1.806-2.529-12.281-0.362-21.673-6.863S228.871,144.638,228.871,144.638z"/>
	<path display="inline" fill="#FFFFFF" d="M166.834,163.601c0,0-3.954,3.65-3.193,11.859s-0.151,13.53-2.736,18.091
		s-5.93,11.402-0.608,16.571c5.321,5.168,21.283,14.441,28.429,5.016c7.146-9.425,3.346-17.025,3.193-22.499
		c-0.153-5.474-0.761-11.401,1.671-17.787c2.433-6.386,0.608-11.251,0.608-11.251s0.54,5.651-2.955,11.884
		c-3.496,6.231-2.914,10.852-1.241,18.605s0.588,20.795-8.838,21.707c-9.425,0.912-21.513-4.243-19.536-14.885
		c1.978-10.642,5.394-15.918,3.722-21.087S166.834,163.601,166.834,163.601z"/>
	<path display="inline" fill="#FFFFFF" d="M160.853,123.233c0,0-8.528,0.62-15.04-0.465c-6.512-1.086-11.629-6.667-15.04-6.667
		s-8.527-0.931-7.287,7.287s3.566,6.667,2.171,12.869s-11.784,15.35-10.854,19.381c0.93,4.031,3.876,11.474,12.869,2.791
		c8.992-8.683,10.078-15.04,16.435-16.9c6.357-1.86,10.854-3.876,10.854-3.876s-6.667,0.465-10.698,2.325s-6.356,3.102-11.009,9.148
		c-4.651,6.047-9.923,13.644-13.644,11.783c-3.722-1.86-4.651-5.736-0.931-10.078c3.722-4.341,8.683-12.249,8.683-16.125
		s-3.256-7.287-2.636-11.629c0.62-4.341,2.326-6.512,6.047-4.961c3.722,1.55,7.287,6.201,16.28,6.047
		C156.046,124.008,160.853,123.233,160.853,123.233z"/>
	<g display="inline">
		<g>
			<path fill="#FFFFFF" d="M6.256,55.546C2.8,55.546,0,58.278,0,61.649c0,3.37,2.8,6.102,6.256,6.102
				c3.455,0,6.256-2.731,6.256-6.102C12.512,58.278,9.711,55.546,6.256,55.546z M6.256,66.106c-2.231,0-4.038-1.763-4.038-3.938
				c0-2.175,1.807-3.938,4.038-3.938c2.229,0,4.037,1.763,4.037,3.938C10.293,64.343,8.485,66.106,6.256,66.106z"/>
		</g>
	</g>
	<g display="inline">
		<g>
			<path fill="#FFFFFF" d="M21.148,53.208c-2.794,0-5.058,2.731-5.058,6.103c0,3.37,2.264,6.102,5.058,6.102
				c2.793,0,5.057-2.731,5.057-6.102C26.205,55.94,23.941,53.208,21.148,53.208z M21.148,63.768c-1.804,0-3.265-1.763-3.265-3.938
				c0-2.175,1.461-3.938,3.265-3.938c1.802,0,3.264,1.763,3.264,3.938C24.412,62.005,22.95,63.768,21.148,63.768z"/>
		</g>
	</g>
	<g display="inline">
		<g>
			<path fill="#FFFFFF" d="M36.945,44.229c-1.206-3.147-4.296-4.89-6.905-3.891c-2.609,0.998-3.746,4.358-2.541,7.508
				c1.205,3.147,4.295,4.888,6.904,3.89S38.15,47.377,36.945,44.229z M33.814,50.2c-1.684,0.645-3.679-0.479-4.456-2.511
				s-0.044-4.2,1.642-4.844c1.684-0.645,3.679,0.479,4.456,2.51S35.499,49.555,33.814,50.2z"/>
		</g>
	</g>
	<g display="inline">
		<g>
			<path fill="#FFFFFF" d="M59.819,47.277c-0.951-2.481-3.834-3.685-6.443-2.686c-2.608,0.998-3.953,3.819-3.002,6.303
				c0.949,2.48,3.833,3.683,6.442,2.685S60.77,49.759,59.819,47.277z M56.353,52.367c-1.684,0.645-3.545-0.131-4.159-1.733
				c-0.613-1.601,0.254-3.422,1.938-4.066s3.546,0.131,4.159,1.732C58.905,49.902,58.036,51.722,56.353,52.367z"/>
		</g>
	</g>
	<g display="inline">
		<g>
			<path fill="#FFFFFF" d="M46.966,48.451c-0.656-1.713-2.752-2.503-4.686-1.763c-1.932,0.739-2.966,2.727-2.31,4.441
				c0.655,1.711,2.752,2.5,4.685,1.761C46.588,52.152,47.621,50.164,46.966,48.451z M44.335,52.054
				c-1.246,0.478-2.601-0.031-3.024-1.137c-0.423-1.105,0.244-2.388,1.492-2.865c1.246-0.478,2.601,0.03,3.023,1.137
				C46.25,50.294,45.582,51.578,44.335,52.054z"/>
		</g>
	</g>
	<g display="inline">
		<g>
			<path fill="#FFFFFF" d="M37.48,56.955c-0.451-1.176-2.381-1.531-4.313-0.791c-1.933,0.739-3.133,2.292-2.682,3.47
				c0.449,1.175,2.38,1.528,4.312,0.79C36.73,59.684,37.93,58.131,37.48,56.955z M34.578,59.849
				c-1.247,0.477-2.494,0.249-2.785-0.511c-0.291-0.758,0.484-1.761,1.732-2.238c1.246-0.478,2.493-0.249,2.783,0.51
				C36.6,58.37,35.824,59.372,34.578,59.849z"/>
		</g>
	</g>
	<g display="inline">
		<g>
			<path fill="#FFFFFF" d="M63.599,67.672c-0.951-2.482-3.834-3.686-6.443-2.686c-2.608,0.998-3.953,3.819-3.002,6.302
				c0.949,2.481,3.833,3.683,6.442,2.685S64.549,70.154,63.599,67.672z M60.132,72.762c-1.684,0.645-3.545-0.131-4.159-1.733
				c-0.613-1.602,0.254-3.422,1.938-4.066s3.546,0.131,4.159,1.732C62.685,70.297,61.815,72.118,60.132,72.762z"/>
		</g>
	</g>
	<g display="inline">
		<g>
			<path fill="#FFFFFF" d="M49.152,67.234c-0.876-2.287-3.698-3.331-6.308-2.332c-2.608,0.998-4.014,3.66-3.138,5.948
				c0.875,2.286,3.699,3.329,6.309,2.331C48.624,72.183,50.028,69.521,49.152,67.234z M45.588,72.066
				c-1.684,0.644-3.507-0.029-4.072-1.506c-0.565-1.476,0.341-3.193,2.026-3.838c1.684-0.645,3.507,0.028,4.071,1.504
				C48.179,69.703,47.271,71.421,45.588,72.066z"/>
		</g>
	</g>
	<g display="inline">
		<g>
			<path fill="#FFFFFF" d="M40.373,79.877c-0.951-2.482-3.834-3.685-6.443-2.686c-2.609,0.998-3.953,3.819-3.003,6.303
				c0.95,2.48,3.834,3.682,6.443,2.684S41.322,82.359,40.373,79.877z M36.906,84.967c-1.684,0.645-3.546-0.131-4.16-1.733
				c-0.612-1.602,0.255-3.422,1.939-4.066c1.684-0.645,3.546,0.131,4.158,1.732C39.458,82.502,38.59,84.323,36.906,84.967z"/>
		</g>
	</g>
	<g display="inline">
		<g>
			<path fill="#FFFFFF" d="M13.104,80.804c-0.95-2.482-3.834-3.686-6.442-2.686c-2.609,0.998-3.954,3.819-3.003,6.303
				c0.949,2.48,3.834,3.682,6.442,2.684C12.711,86.107,14.055,83.286,13.104,80.804z M9.638,85.894
				c-1.684,0.645-3.545-0.131-4.159-1.733c-0.613-1.602,0.254-3.422,1.939-4.066c1.684-0.645,3.545,0.131,4.158,1.732
				C12.19,83.429,11.321,85.25,9.638,85.894z"/>
		</g>
	</g>
	<g display="inline">
		<g>
			<path fill="#FFFFFF" d="M23.771,85.28c-0.951-2.482-3.834-3.685-6.443-2.686c-2.608,0.998-3.953,3.819-3.003,6.303
				c0.95,2.48,3.834,3.683,6.443,2.685C23.377,90.583,24.72,87.762,23.771,85.28z M20.304,89.417
				c-1.684,0.645-3.546-0.131-4.16-1.733c-0.612-1.602,0.255-3.422,1.939-4.066c1.684-0.645,3.546,0.131,4.159,1.732
				C22.856,86.953,21.987,88.773,20.304,89.417z"/>
		</g>
	</g>
	<g display="inline">
		<g>
			<path fill="#FFFFFF" d="M31.005,72.172c-0.67-1.748-3.325-2.355-5.935-1.355c-2.609,0.998-4.182,3.223-3.513,4.973
				c0.67,1.746,3.326,2.354,5.936,1.355C30.103,76.146,31.673,73.92,31.005,72.172z M27.166,76.292
				c-1.684,0.645-3.399,0.254-3.831-0.876c-0.432-1.127,0.582-2.563,2.268-3.207c1.684-0.645,3.398-0.255,3.83,0.873
				C29.864,74.21,28.85,75.647,27.166,76.292z"/>
		</g>
	</g>
	<path display="inline" fill="#FFFFFF" d="M55.058,58.164l-0.206-5.064c0,0,1.032-0.724,1.137,0
		c0.104,0.723,0.414,4.754,0.414,4.754L55.058,58.164z"/>
	<polygon display="inline" fill="#FFFFFF" points="57.643,59.093 57.953,65.813 59.193,65.606 59.709,58.991 	"/>
	<polygon display="inline" fill="#FFFFFF" points="50.406,59.404 46.479,65.4 44.722,64.985 47.822,59.818 	"/>
	<polygon display="inline" fill="#FFFFFF" points="46.995,59.405 43.274,52.79 44.655,52.89 47.408,58.165 	"/>
	<polygon display="inline" fill="#FFFFFF" points="35.417,62.505 34.797,78.218 36.245,77.597 36.658,62.092 	"/>
	<polygon display="inline" fill="#FFFFFF" points="21.98,70.361 9.989,78.423 11.179,79.802 23.139,70.876 	"/>
	<polygon display="inline" fill="#FFFFFF" points="20.105,83.048 21.045,71.772 19.294,72.969 18.696,82.792 	"/>
	<polygon display="inline" fill="#FFFFFF" points="21.429,71.474 8.659,66.306 10.409,64.298 22.924,69.851 	"/>
	<polygon display="inline" fill="#FFFFFF" points="27.407,67.246 24.076,63.274 25.229,61.138 28.987,66.221 	"/>
	<polygon display="inline" fill="#FFFFFF" points="27.449,71.004 28.773,66.605 30.866,65.367 29.201,71.559 	"/>
	<polygon display="inline" fill="#FFFFFF" points="34.488,51.135 37.589,61.265 38.726,60.956 35.624,50.309 	"/>
</g>
<g opacity="0.15">
	<path fill="#FFFFFF" d="M21.442,113.95c0,0,18.434-1.87,16.831-34.463c0,0,20.306-4.808,21.374-14.96c0,0,0.802-6.144-9.885-5.61
		c-10.686,0.534-9.617,6.145-9.617,6.145l7.212,0.268c0,0,3.74,5.075-5.877,7.212c0,0-5.076,1.604-5.076-6.144
		c0-7.748,4.541-15.496,4.541-15.496s-0.266,5.877,1.337,6.145s7.479-0.267,11.754-2.671c4.275-2.404,13.892,1.87,10.42,9.885
		c-3.474,8.015-15.495,13.358-23.242,16.564c0,0-1.338,2.671,0,3.74c1.335,1.069,6.41,1.336,12.556-1.335
		c6.145-2.671,14.962-8.282,19.236-22.708c0,0,2.403-1.87,5.075-0.267c2.673,1.603,13.091,1.87,13.091,1.87
		s-4.811,5.611-8.817,6.145s-6.411,0-5.609-1.603c0,0,1.316-0.77,2.024-0.32c0.707,0.45,2.441-0.579,2.441-0.579
		s-0.642-1.672-1.543-2.379c-0.898-0.707-3.6-1.735-5.4,0.193c-1.8,1.929-2.764,6.558,1.672,8.358
		c4.436,1.8,15.109,1.222,20.703-7.137c0,0,3.686-1.607,9.888,4.492s7.34,8.373,7.547,11.887c0.206,3.515-0.62,24.292-0.62,24.292
		s0.516,5.582,4.341,7.752c0,0,1.239,1.344-0.828,0.93c-2.066-0.414-5.892-4.238-6.408-8.89c-0.516-4.651,0.827-22.223-1.136-24.704
		c-1.965-2.481-7.857-8.062-15.3-7.339s-6.821,1.446-11.888,1.653c-5.063,0.208-7.338-1.447-8.992-0.93
		c-1.652,0.518-3.41,1.758-9.095,5.996c-5.687,4.238-22.226,7.442-24.603,13.334c-2.376,5.892,0.62,10.957,0.62,10.957
		s5.272,6.099,12.715,8.27c7.442,2.171,9.509-2.895,7.647-4.755c-1.86-1.86-12.195-5.789-11.989-9.717s9.819-10.026,17.262-10.646
		c0,0,0.724,0.104,0.62,1.447c-0.103,1.344-0.103,10.75-0.103,10.75s-3.721,0.103-3.515-1.757c0.206-1.861,0.827-2.584,0.827-2.584
		V92.24c0,0-7.339-1.654-10.13,2.895c0,0-2.275,4.134,0.93,5.995c3.205,1.861,5.168,2.895,10.854,3.205c0,0,1.034,1.551,0.104,2.895
		c-0.931,1.344-4.78,7.891-5.376,10.44c-1.137,4.858-0.103,9.406-0.103,9.406s0.638,8.461,9.612,9.716
		c9.613,1.344,16.125,0.104,16.125,0.104s9.406-1.654,14.265-0.724c4.858,0.93,10.337,5.892,10.337,5.892s-8.993-4.031-14.368-3.721
		c-4.734,0.273-12.403,0.826-21.396,6.512c0,0-1.447-6.202-7.753-7.235c-6.305-1.034-8.063,0.104-10.336,4.031
		c-2.274,3.928,4.548,3.824,4.548,3.824s5.479,0.413,2.998-4.031c0,0,3.307,0,5.064,3.101c1.757,3.101-0.931,2.895-2.481,2.895
		c-1.55,0-13.127,1.034-13.954-1.034c-1.071-2.677,1.551-4.858,2.791-8.373s3.101-12.817,0.414-18.606
		c-3.452-7.437-9.097-8.683-12.921-9.509s-9.614,2.584-10.75,8.373s2.48,11.267,9.2,9.923c0,0,5.271-1.758,3.204-6.616
		c0,0-1.965-2.791-4.962-2.171c0,0-2.376-1.756,1.138-2.273c3.514-0.518,7.235,3.101,7.545,5.582
		c0.311,2.481,3.722,10.75-4.341,20.053c0,0-6.616-4.34-6.822-5.788s4.031-1.551,4.651,0.723s1.758,1.24,2.378,0.414
		s2.791-5.583,0.931-7.236c-1.861-1.653-6.202-0.103-10.544,2.378c0,0-1.033,0-1.653-3.515s-1.86-7.959-4.341-10.13
		C26.009,117.462,21.442,113.95,21.442,113.95z"/>
	<path fill="#FFFFFF" d="M108.789,48.975c0,0,3.153,4.413,3.405,6.682s1.891,6.683-0.883,6.935c-2.774,0.252-7.818-2.9-7.313-4.917
		c0.504-2.018,2.773,0.378,3.277,1.387s2.9,1.639,2.9,0.126c0-1.513-1.008-5.8-3.152-5.8c-2.144,0-2.27,2.143-5.8,2.521
		c-3.529,0.378-8.573-1.891-14.499-8.069s-9.205-12.104-7.188-14.248c0,0,1.893-1.26,2.396,1.261c0.504,2.521,3.025,5.8,4.54,5.8
		c1.512,0,4.033-2.899,6.808-5.169c2.773-2.27,7.313-3.783,12.104-3.152c4.792,0.63,8.321-6.431,8.321-6.431s0.883-0.88,2.019,0.884
		c1.135,1.765,3.908,5.548,7.061,6.557c3.151,1.008,7.187,1.765,9.331-4.161c0,0,0.756-4.54-2.271-7.817
		c-3.025-3.278-4.54-4.665-6.809-3.656c-2.269,1.009,0.631,3.656,0.631,3.656s2.774,3.783,1.134,5.043
		c-1.639,1.261-4.287,0.252-5.926-1.513c-1.639-1.765-2.773-3.026-2.773-3.026s4.918-6.809,8.447-8.7
		c3.53-1.892,9.708-2.774,12.104-2.018c2.396,0.756,1.389,2.018-0.504,2.144c-1.891,0.126-5.169,1.009-5.548,4.161
		c-0.378,3.152,4.035,5.421,4.035,5.421s2.143,5.674-2.269,10.591c-4.414,4.917-11.726,2.269-11.726,2.269s-4.288-2.017-5.928-4.665
		c0,0-3.068-0.687-4.664,2.774c-0.756,1.639,1.261,4.161,1.261,4.161s2.666,5.015,8.951,6.178c6.198,1.147,9.38,0.596,12.517-0.792
		c6.263-2.771,9.623-10.182,10.53-11.861c1.496-2.771,1.036-7.646,1.036-7.646s0.626-1.165,2.677-0.722s12.471,3.658,13.191,4.545
		c0.72,0.887-0.036,4.372-0.036,4.837c0,0.465,0,6.512,3.256,8.063s6.356-1.396,9.613-4.807c0,0,4.031,0,7.597,3.411
		c3.566,3.411,12.714,11.629,12.869,18.296s-1.55,7.287-2.791,7.132c-1.24-0.155-0.774-0.62-0.62-3.256
		c0.155-2.636-1.085-4.341-3.256-3.876s-3.721,2.946-4.031,6.667s0.155,11.474-0.931,13.489c-1.085,2.016-1.86,3.411-2.945,3.876
		c-1.086,0.465-1.86,1.55-1.86,4.496c0,2.946-1.086,4.962-2.016,3.566c-0.931-1.396-2.171-5.427-0.311-7.132
		s4.342-3.101,4.031-6.202s-1.24-3.566-2.791-3.256s-4.496,4.651-4.807,6.667c-0.31,2.016-3.876,9.613-2.325,12.714
		c1.55,3.101,1.55,3.101,1.55,3.101s-6.047,2.636-9.303,9.768s-5.892,11.319-5.892,11.319s-1.86,0.62-0.62-2.791
		s11.938-22.172,15.04-38.762c0,0,6.512-4.341,10.543-11.629c4.031-7.287,3.411-17.055,1.085-20.311
		c-2.325-3.256-6.822-4.031-9.612-2.481c-2.791,1.55-9.148,6.357-8.528,10.388s4.807,0.465,6.667-1.396
		c1.861-1.86,6.822-1.24,6.978,2.636c0.155,3.876,1.705,8.218-8.063,15.04c0,0-4.342-4.807-4.187-6.667
		c0.155-1.861,3.102-3.876,3.566-1.085s0.775,4.497,1.86,3.566c1.086-0.93,2.791-4.186,2.946-5.427
		c0.155-1.24,0.155-4.961-2.636-5.116c-2.791-0.155-8.528,4.806-8.528,4.806s-2.48-2.016-1.86-3.101
		c0.62-1.085,2.946-7.907,1.085-7.132c-1.86,0.775-4.341,4.651-4.961,5.892l-4.187-2.791c0,0,1.705-10.388-1.396-10.543
		c-3.101-0.155-5.427,2.016-6.978,6.357l2.171,0.62c0,0,0.311-2.171,1.86-0.93c1.551,1.24,0.775,3.721,0.775,3.721l-8.838-0.465
		c0,0,3.722-13.179,11.629-11.474c0,0,4.031-0.155,3.566,10.078c0,0,0.155,1.861,1.705,0.31c1.551-1.55,2.946-3.721,2.946-3.721
		s-0.155-7.442-1.085-10.078c-0.931-2.636-1.861-4.807-4.807-5.271c-2.946-0.465-5.737,1.24-8.528,4.651
		c-2.79,3.411-10.854,13.489-10.854,13.489s-7.597-0.31-10.698,3.876c-2.049,2.767,0.078,7.541,2.016,10.233
		c2.791,3.876,4.031,8.063,3.411,13.334c-0.62,5.271-2.325,22.792,0.775,29.77c0,0,0.311,2.636-0.931,0.775
		c-1.24-1.86-4.651-8.838-3.721-21.862s-5.582-14.885-5.582-14.885s2.481-6.977-1.24-15.66c-3.721-8.683-9.923-15.97-20.621-14.11
		c-10.699,1.861-6.202,9.613-6.202,9.613s6.356,9.458,13.954,3.721c0,0,2.016-3.566-1.085-5.271
		c-3.102-1.706-3.722,0.465-3.722,0.465s-3.876-0.62-0.465-2.636S108.789,48.975,108.789,48.975z"/>
	<path fill="#FFFFFF" d="M113.055,145.074c0,0-24.389-1.493-39.648,13.766c0,0-1.79,6.879-5.979,11.367
		c-4.188,4.488-11.22,8.826-16.754,8.527c-5.535-0.299-6.732-5.834-2.394-6.582c4.338-0.748,7.778,1.496,11.817-3.441
		s4.039-9.275,4.039-9.275s-6.731-1.646-8.378,0.598c-1.645,2.244,0.897,4.189,1.646,3.291c0.748-0.897,2.693-1.047,2.394,0.748
		c-0.298,1.795-2.991,5.535-6.132,5.535c-3.143,0-7.032-2.693-4.04-7.48c0,0,1.296-3.699-1.709-4.915
		c-3.39-1.372-5.628-0.872-7.871,1.073c-2.245,1.944-2.089,6.385,0.753,3.692c2.844-2.693,7.481,1.047,4.34,6.133
		c-3.143,5.086-2.784,10.739-1.587,11.786c1.196,1.047,8.544,1.074,11.449,1.074c3.865,0,8.688,0.156,12.726,4.195
		c4.039,4.04,3.591,14.81,3.44,16.904c-0.149,2.094,0.749,8.527-1.047,9.275c-1.795,0.748-2.991,0.449-2.842-4.937
		s-3.292-6.433-3.74-6.433s-4.637-1.347-9.125,3.291c-4.487,4.638-5.452,6.94-1.196,9.275c2.427,1.332,7.928,1.196,8.078,0
		c0.148-1.197-1.497-5.087-3.891-3.441c0,0-0.896,0.748-1.646,0.898c-0.747,0.148-3.44,0.299-1.645-2.244
		c1.795-2.543,4.338-5.386,7.329-5.236c2.992,0.149,3.292,5.984,3.142,7.181c-0.149,1.196,0.3,5.983,4.638,5.983
		s4.04-4.637,4.04-4.637s2.093-2.543,3.739,0.748s0.551,5.851,1.455,7.814c1.214,2.639,2.435,3.256,5.276,2.807
		c2.843-0.449,3.665-3.361,6.888-5.051c2.586-1.355,5.539-0.197,5.775,2.16c0.301,3.018-0.786,5.697-3.261,4.283
		c-2.477-1.414-2.989-2.665-4.009-0.942c-0.511,0.864,1.336,2.396,1.336,2.396s5.422,3.653,7.976-0.157
		c2.948-4.401,1.062-8.213-0.746-9.509s-4.754-2.356-9.272,0.354s-4.665,3.526-6.051,3.339c-1.453-0.196-2.003-2.278-0.55-4.439
		c2.43-3.609,5.177-3.653,8.49-6.202c3.313-2.548,3.863-5.728,6.754-5.225c2.932,0.51,10.067-0.382,14.401-4.078
		c0,0,2.804-1.274,3.569-1.147c0.766,0.127,8.411,0.382,8.411,0.382l-1.657-12.49c0,0-3.313-0.254-3.568,2.804
		c-0.255,3.059,2.423,4.078,2.423,4.078l0.381,3.951c0,0-8.793,0.765-8.155-8.667c0.637-9.431,8.283-8.921,8.283-8.921l0.766-5.098
		c0,0,9.939-10.706,9.686-18.48c0,0-1.912,3.187-2.805,4.716s-9.672,12.396-12.986,16.092c-3.313,3.696-4.729,10.29-4.983,15.132
		s-0.602,6.866-5.863,8.794c-7.646,2.803-5.988,0.126-10.194,1.528c-2.923,0.975-9.942,11.854-17.334,6.373
		c-7.392-5.48-2.421-14.02-1.784-14.912c0.638-0.892,0.893-3.186-2.549-5.99s-7.01-5.863-5.353-12.235
		c1.657-6.373,5.734-9.304,7.009-9.941s9.432-6.118,14.02-12.108c4.589-5.99,11.98-6.754,11.98-6.754L113.055,145.074z"/>
	<path fill="#FFFFFF" d="M46.594,208.266c0,0-5.734-3.951-5.352-6.372s1.657-4.46,2.039-3.313s1.275,3.951,2.804,3.568
		c1.529-0.383,3.569-3.696,6.117-5.608c3.488-2.615,4.716-1.656,5.99-3.313s0.515-5.407-0.637-6.245
		c-1.401-1.02-3.951-1.656-5.607,0.255c-1.657,1.911-0.604,3.281,1.146,2.931c1.912-0.382,2.04,1.402,0.766,2.931
		c-0.878,1.055-4.205,1.912-5.226-2.548c-1.02-4.461-0.892-5.481-0.892-5.481s8.793-0.636,9.558-0.509
		c0.766,0.127,9.814,2.04,10.324,9.049s-0.383,5.48-0.383,5.48s-1.911-3.058-4.587-3.441c-2.678-0.383-5.991,0.637-9.305,3.441
		C48.256,203.399,46.594,208.266,46.594,208.266z"/>
	<path fill="#FFFFFF" d="M99.294,210.078c0,0,11.991-7.236,24.188-4.962c0,0,1.24,5.581-1.86,12.61
		c-3.102,7.029-9.715,11.577-9.715,11.577l-0.414-13.645c0,0,3.101-7.441,6.616-1.446c0,0-0.829,1.446-1.449,0.206
		s-2.272-0.62-2.687,0.413s-2.067,3.929,1.446,5.582c3.516,1.654,7.029-7.856,6.202-11.371c-0.826-3.513-5.168-1.859-5.168-1.859
		s-8.476,2.48-8.889,6.822c-0.414,4.341-1.034,18.605-1.034,18.605s-4.341,4.961-14.059,3.515c0,0,8.477-3.102,10.338-8.477
		C104.67,222.275,107.15,211.731,99.294,210.078z"/>
	<path fill="#FFFFFF" d="M134.854,159.221c0,0,0.412,10.129,1.446,13.23s6.822,9.303,7.236,13.024
		c0.413,3.721,1.033,19.226,10.956,20.88h6.615c0,0,2.273,8.063,9.924,7.856c7.649-0.207,8.683-9.097,8.683-9.097
		s-1.241-5.582-5.582-1.861c0,0-0.504,3.454-3.983,4.112c-3.479,0.658-6.865-3.198-5.549-4.985c1.317-1.787,5.549-2.163,5.174-0.47
		c-0.377,1.693-1.693,1.693-1.693,1.693s-1.315,0.659-0.47,1.505c0.845,0.846,4.325,1.128,5.172-3.198s3.951-4.421,4.986-4.139
		c1.034,0.282,6.395,0.752,4.138,8.465c-2.258,7.713-7.055,10.534-11.382,10.346c-4.325-0.188-8.088-2.633-11.474-7.617
		c0,0-1.316-1.129-3.668,0.752s0.752,8.182,0.752,8.182s5.644,7.148,15.708,6.114c10.063-1.035,18.434-9.782,18.434-14.767
		c0-4.985,0.375-12.979,0.375-13.354s3.388-6.302,3.104-8.747c-0.28-2.445-4.513-10.627-9.216-13.072
		c-4.702-2.445-23.607-13.731-24.642-24.548c0,0,0.847-1.128,1.316,0.282c0.471,1.411,4.327,11.099,15.049,14.484
		c10.722,3.386,19.467,4.137,22.383,12.884c0,0,1.503,0.847-0.282,3.95c-1.788,3.104-4.327,9.405-4.986,15.331
		c-0.657,5.925,0.942,14.483,7.995,18.246c7.055,3.762,13.544,0.188,14.86-4.044c1.316-4.232,0.564-9.123-3.198-11.192
		c-3.762-2.069-7.711-1.223-8.652,0.188c-0.94,1.411-1.316,4.044,0.658,5.549c1.976,1.505,3.479,0.095,3.479,0.095
		s0.753-1.035,1.693-0.282c0.941,0.752,0.188,1.787-1.222,2.257c-1.411,0.47-4.609,0.939-7.242-3.104
		c-2.634-4.044-3.293-15.424,3.104-18.623c0,0,4.984,5.738,4.984,7.148c0,1.41-1.975,0.188-2.352-0.564
		c-0.377-0.752-2.54-3.292-3.291-2.728c-0.753,0.564-4.702,4.515-0.188,6.396c4.514,1.88,9.028,0.376,9.028,0.376
		s2.164,2.069,4.327,0.282c2.163-1.788,1.693-3.856,1.693-3.856s2.164,2.257,2.257,5.173c0.093,2.916-0.188,12.132-4.045,16.742
		c-3.856,4.607-8.37,4.514-10.438,4.326c-2.069-0.188-9.97-2.916-12.603-6.302c0,0-0.659-1.317-3.293,0.847
		c-2.633,2.163-7.712,7.43-6.678,9.781s3.669,1.976,4.703,0.377c1.035-1.6,2.444-4.515,4.983-4.891
		c2.54-0.377,4.892,1.504,2.729,2.162c-2.164,0.658-5.926,2.445-6.584,5.361c-0.657,2.916,1.692,5.36,4.984,4.514
		c3.293-0.846,1.224,2.164-0.188,2.164s-5.36,1.316-11.756-2.634s-9.594-2.446-9.594-2.446s-4.702-0.376-14.953,7.055
		c0,0-3.575,0.47-1.787-2.822c1.787-3.291,6.019-2.445,6.019-2.445s2.916,0,2.163-2.539c-0.752-2.539-4.419-2.539-4.796-2.539
		s-5.83,0.471-7.9,5.83c-2.07,5.361-0.47,6.49-3.198,7.995c-2.728,1.505-9.122,3.48-14.389-1.129c0,0-3.763-3.198-7.054-2.54
		c-3.291,0.659-3.575,3.481-2.634,4.422c0.941,0.939,1.882,1.222,1.882,1.222s1.034,1.222-0.471,1.222s-7.994-3.197-3.01-12.227
		c4.984-9.028,9.593-13.73,9.593-13.73s7.055,2.445,8.089,1.316s-1.881-6.396-3.573-5.173c-1.693,1.223-0.659,1.223-0.659,1.223
		s0.095,1.88-0.847,1.786s-3.48-1.222-1.223-3.762c2.259-2.539,4.703-1.693,6.02-0.471c1.316,1.224,7.054,7.901,5.549,12.228
		c-1.504,4.326-5.644,4.985-8.37,4.232c0,0-1.224-1.505,0.752-1.787s3.574-1.786,3.104-3.479c-0.47-1.693-2.915-3.104-5.454-2.633
		c-2.539,0.469-6.115,1.316-8.184,6.207c-2.069,4.891,5.455,8.182,5.455,8.182s11.758,3.951,17.119-3.668
		c5.359-7.618,1.691-15.424,1.691-15.424s-4.231-9.121-14.014-14.764c0,0-0.188-1.599,0.471-4.891c0.658-3.292-0.94-8.559-1.6-9.499
		c-0.657-0.941-4.138-6.487-3.761-13.542S134.854,159.221,134.854,159.221z"/>
	<path fill="#FFFFFF" d="M160.798,115.962c0,0,6.356-14.42,22.017-17.366s25.894-0.93,25.894-0.93s22.792,3.721,31.785-3.411
		c8.992-7.132,11.783-7.908,8.992-13.489c0,0-1.705-1.396-4.341,0.155c-2.636,1.55-7.598,8.217-13.8,9.147
		c-6.202,0.931-21.552,1.241-24.343-0.62c0,0-1.085-0.775,1.24-2.946c2.326-2.171,4.497-6.822,4.497-6.822s6.667,0,9.303,0
		s6.047-2.636,5.892-4.651s-2.636-4.961-4.807-4.961c-2.17,0-1.86,2.48-1.86,2.48s0.775,2.171-0.62,2.791s-4.342,1.24-4.651-0.465
		c-0.311-1.706,6.047-7.752,7.442-8.527c1.396-0.775,9.303-5.427,8.993-3.876c-0.311,1.551-5.893,4.807-5.893,4.807
		s0,2.326,1.706,3.876c1.705,1.551,8.218,0.931,8.218,0.931s-2.791,4.806-8.218,7.752c-5.427,2.946-14.265,2.326-14.265,2.326
		s-2.326,5.737,4.187,6.047c6.512,0.31,15.194-1.551,20.156-5.582c4.961-4.031,7.442-8.217,7.442-8.217s8.218,3.256,10.388,16.125
		c2.171,12.869,0.311,12.559,5.737,14.109c0,0,2.791-0.465,3.566-2.636c0,0,3.876,0.31,1.396,5.427
		c-2.481,5.117-10.078,10.698-9.148,21.862c0,0-21.707,3.411-31.32,19.846c0,0-4.806,7.908-0.31,11.939s7.442-5.737,7.442-5.737
		s9.923-17.521,27.443-17.366v12.559c0,0-0.154,0.62-1.705,1.241c-1.551,0.62-9.458,1.705-14.42,7.907
		c-4.961,6.202-4.031,6.667-2.636,7.908c1.396,1.24,4.031-3.256,8.527-6.202c4.497-2.946,8.993-2.791,6.048-1.085
		c-2.946,1.706-5.582,5.892-4.962,6.978c0.62,1.085,4.962,0.775,5.736,0c0,0,1.706-1.861,2.326-0.775s-0.62,4.031-3.566,4.807
		c-2.945,0.775-9.923,2.636-19.071-1.241c0,0-3.721-3.411,3.102-9.923c6.822-6.512,17.985-9.148,17.985-11.319
		c0-2.17-0.155-5.427-3.721-5.117c-3.566,0.31-10.698,1.706-15.195,7.288c-4.496,5.582-9.147,15.97-9.147,15.97L211.653,155.5
		c0,0-0.93-2.791,1.086-2.326c2.016,0.465,6.356,4.497,6.977,4.497s2.171,0.31,2.171-3.101s-2.945-6.047-3.566-6.357
		c-0.62-0.31-6.821-1.55-9.768,0.155s-4.807,5.116-6.822,4.031c-2.016-1.085-14.729-9.768-20.621-12.094
		c-5.893-2.326-17.056-3.876-17.056-3.876s12.714-0.93,18.761,1.55c6.047,2.481,15.04,7.442,28.064,7.442
		c13.023,0,17.985-2.636,21.086-8.527c3.102-5.892-1.085-16.28,0.466-18.606c1.55-2.326,6.047-4.497,6.356-5.892
		c0.311-1.396,0.155-3.101-1.085-3.256c-1.24-0.155-8.063,0.93-5.737,2.636c0,0,1.746,0.08,2.117,1.26
		c0.371,1.181-2.427,4.477-6.148,0.911c-3.721-3.566,6.667-7.288,6.667-7.288s11.164-3.101,15.04,3.411s-3.566,12.559-5.427,12.559
		s-1.86-0.775-0.31-1.861c1.55-1.085,3.41-3.721,1.085-6.047c-2.326-2.326-5.582-0.62-8.373,2.016
		c-2.79,2.636-2.17,8.683,0.155,11.009c2.326,2.326,9.613,6.357,15.815-0.775s7.597-15.35,4.651-21.397
		c-2.946-6.047-12.094-7.907-17.521-7.287s-12.094,5.582-16.28,4.341c0,0-2.791-2.17-7.907-1.86
		c-5.117,0.31-8.218,1.86-13.645,2.326c-5.427,0.465-19.227,0-24.498,1.706S171.031,105.419,160.798,115.962z"/>
	<g>
		<g>
			<path fill="#FFFFFF" d="M85.756,197.549c0,0-3.9-3.245-6.803,0.156c-2.902,3.401,1.062,6.834,1.062,6.834
				c0.78,0.406,3.559,2.433,6.427-0.438C89.313,201.231,85.756,197.549,85.756,197.549z M85.528,203.42
				c-2.163,2.165-4.259,0.636-4.847,0.329c0,0-2.988-2.588-0.801-5.151c2.189-2.564,5.129-0.118,5.129-0.118
				S87.691,201.255,85.528,203.42z"/>
		</g>
	</g>
	<path fill="#FFFFFF" d="M163.506,34.935c0,0-0.077-3.106,2.556-3.091c2.634,0.015,2.77,3.021,2.77,3.021s-0.194,3.017-2.584,2.813
		C163.857,37.474,163.638,35.441,163.506,34.935z"/>
	<path fill="#FFFFFF" d="M125.551,130.541c0,0-15.014-1.475-25.47-15.817c0,0-1.34-0.133-1.071,1.341
		c0.268,1.474,11.259,11.259,17.424,13.806c6.167,2.547,2.683,4.959,2.683,4.959s-6.302,0.938-9.383,0.134
		c-3.084-0.804-1.476,1.475,0.804,2.011c2.279,0.536,11.796,0,11.796,0s-14.075,17.024-13.271,21.849c0,0,1.206,1.608,2.279-0.67
		c1.072-2.279,8.177-17.962,15.817-21.447c0,0,0.268,5.228-2.949,8.042c-3.218,2.815-5.631,5.094-4.826,6.167
		c0.804,1.072,3.887-1.877,4.424-2.413c0.536-0.536,5.495-4.29,5.897-7.774c0,0,1.742,2.146-1.877,9.651
		c-3.618,7.506-7.239,11.929-6.299,13.404c0.938,1.475,11.796-13.001,12.197-20.508c0,0,2.011-0.134,2.011,1.609
		c0,1.742,0.402,6.702,0.402,6.702s1.207,1.207,1.207-0.402c0-1.608,0.401-5.362,0.401-5.362s5.228,19.972,16.621,25.2
		c0,0,0.938-1.875,0-2.412s-14.477-13.672-11.661-25.334c0,0,5.763,2.547,7.505,6.434c1.743,3.887,2.815,9.785,2.815,9.785
		s1.341,0.671,1.341-0.268c0-0.938-0.135-10.589-6.569-16.487c-6.433-5.898-1.205-4.423-1.205-4.423s26.917,9.949,33.739,14.084
		s35.429,25.417,35.429,25.417s15.222,19.857,22.663,26.059c7.443,6.203,19.227,16.126,35.145,17.779c0,0-5.789-5.995-10.543-7.855
		c-4.755-1.861-21.021-9.583-28.463-23.228c-7.442-13.644-14.744-18.945-15.984-20.186c-1.24-1.24-25.223-19.847-33.49-22.12
		c-8.271-2.274-34.318-11.99-34.731-13.438c0,0,8.184-4.826,10.82-12.31c0,0-0.98-1.534-2.084,0.184
		c-1.105,1.718-5.95,9.569-13.679,9.753c0,0,1.963-3.251,5.826-6.625c3.864-3.374,11.348-6.256,11.348-6.256s0.49-1.411-2.086-0.675
		c-2.575,0.736-14.046,7.176-16.561,8.955s0.553-1.717,1.104-2.331c0.553-0.613,2.146-3.864,2.146-4.048
		c0-0.184-1.41-0.613-1.962,0.246c-0.553,0.859-2.394,4.048-3.129,4.478s-1.902-0.981-0.553-2.331s4.6-14.046,3.313-21.223
		c0,0-1.228-1.35-1.657,0.429c-0.429,1.779,0.308,17.42-5.029,21.469c0,0-1.35,0.368-0.675-2.822s-0.431-10.673-0.431-10.673
		s-0.857-0.184-0.857,1.043c0,1.226,0.613,7.729-0.429,9.323c-1.044,1.595-1.901-0.123-1.718-4.11c0.185-3.987,0-9.445,1.778-13.739
		c1.778-4.294,4.108-8.158,4.108-8.158s0.124-1.595-1.654-0.246c-1.779,1.35-5.521,9.201-6.073,12.574
		c-0.553,3.374-0.981,13.065-0.981,13.065s-0.551,1.412-2.085-0.981c-1.533-2.392-5.195-11.653-6.316-16.745
		c-0.799-3.619-1.105-5.705-1.842-5.397c-1.522,0.636-0.061,7.912,0.245,10.243c0.308,2.332,3.19,13.372,4.416,15.151
		c1.228,1.779,0.492,2.945-0.735,1.534c-1.227-1.411-4.478-6.257-4.478-6.257s-2.086-0.613-1.41,1.595
		C119.715,122.15,125.551,130.541,125.551,130.541z"/>
	<g>
		<g>
			<path fill="#FFFFFF" d="M223.465,213.803c-3.131,0-5.671,2.331-5.671,5.206s2.54,5.205,5.671,5.205
				c3.133,0,5.673-2.33,5.673-5.205S226.598,213.803,223.465,213.803z M223.465,222.433c-2.172,0-3.932-1.615-3.932-3.609
				c0-1.993,1.76-3.609,3.932-3.609s3.934,1.616,3.934,3.609C227.398,220.818,225.637,222.433,223.465,222.433z"/>
		</g>
	</g>
	<g>
		<g>
			<path fill="#FFFFFF" d="M237.149,207.268c-3.132,0-5.671,2.331-5.671,5.206s2.539,5.205,5.671,5.205
				c3.133,0,5.672-2.33,5.672-5.205S240.282,207.268,237.149,207.268z M237.149,215.898c-2.173,0-3.932-1.615-3.932-3.609
				c0-1.992,1.759-3.609,3.932-3.609c2.172,0,3.932,1.617,3.932,3.609C241.081,214.283,239.321,215.898,237.149,215.898z"/>
		</g>
	</g>
	<g>
		<g>
			<path fill="#FFFFFF" d="M244.778,223.409c-3.132,0-5.671,2.331-5.671,5.206s2.539,5.205,5.671,5.205
				c3.133,0,5.672-2.33,5.672-5.205S247.911,223.409,244.778,223.409z M244.778,232.04c-2.173,0-3.932-1.616-3.932-3.61
				c0-1.992,1.759-3.608,3.932-3.608c2.172,0,3.932,1.616,3.932,3.608C248.71,230.423,246.95,232.04,244.778,232.04z"/>
		</g>
	</g>
	<g>
		<g>
			<path fill="#FFFFFF" d="M263.234,237.371c-0.871-2.74-3.998-4.191-6.982-3.243s-4.7,3.938-3.829,6.679s3.998,4.191,6.982,3.244
				C262.391,243.1,264.105,240.111,263.234,237.371z M258.866,242.351c-2.07,0.659-4.237-0.349-4.841-2.248
				c-0.603-1.898,0.584-3.973,2.654-4.631s4.237,0.35,4.842,2.25C262.125,239.621,260.937,241.695,258.866,242.351z"/>
		</g>
	</g>
	<g>
		<g>
			<path fill="#FFFFFF" d="M260.717,219.23c-2.541-0.367-4.854,1.099-5.17,3.272c-0.313,2.174,1.495,4.231,4.036,4.599
				c2.542,0.366,4.856-1.099,5.17-3.273C265.065,221.654,263.259,219.595,260.717,219.23z M263.36,223.486
				c-0.216,1.508-1.821,2.523-3.582,2.269c-1.764-0.253-3.015-1.681-2.8-3.188c0.219-1.507,1.822-2.523,3.585-2.271
				C262.325,220.55,263.578,221.979,263.36,223.486z"/>
		</g>
	</g>
	<g>
		<g>
			<path fill="#FFFFFF" d="M272.513,227.958c-2.842,0-5.147,2.331-5.147,5.207c0,2.875,2.306,5.205,5.147,5.205
				c2.843,0,5.148-2.33,5.148-5.205C277.661,230.29,275.355,227.958,272.513,227.958z M272.513,236.589
				c-1.972,0-3.568-1.615-3.568-3.609c0-1.993,1.597-3.609,3.568-3.609s3.568,1.616,3.568,3.609
				C276.081,234.974,274.484,236.589,272.513,236.589z"/>
		</g>
	</g>
	<g>
		<g>
			<path fill="#FFFFFF" d="M282.077,210.653c-3.132,0-5.671,2.331-5.671,5.206s2.539,5.205,5.671,5.205
				c3.133,0,5.672-2.33,5.672-5.205S285.21,210.653,282.077,210.653z M282.077,219.284c-2.173,0-3.932-1.616-3.932-3.61
				c0-1.992,1.759-3.608,3.932-3.608c2.172,0,3.933,1.616,3.933,3.608C286.01,217.667,284.249,219.284,282.077,219.284z"/>
		</g>
	</g>
	<g>
		<g>
			<path fill="#FFFFFF" d="M270.78,197.566c-3.132,0-5.671,2.331-5.671,5.206s2.539,5.206,5.671,5.206
				c3.133,0,5.672-2.331,5.672-5.206S273.913,197.566,270.78,197.566z M270.78,206.197c-2.173,0-3.932-1.616-3.932-3.61
				c0-1.993,1.759-3.609,3.932-3.609c2.172,0,3.933,1.616,3.933,3.609C274.713,204.581,272.952,206.197,270.78,206.197z"/>
		</g>
	</g>
	<g>
		<g>
			<path fill="#FFFFFF" d="M294.914,224.338c-1.646-2.038-4.971-2.084-7.43-0.101c-2.456,1.982-3.116,5.242-1.472,7.281
				c1.646,2.039,4.971,2.084,7.43,0.102C295.898,229.638,296.559,226.377,294.914,224.338z M292.422,230.357
				c-1.704,1.375-4.009,1.345-5.15-0.069c-1.14-1.414-0.683-3.674,1.022-5.049c1.703-1.375,4.01-1.344,5.149,0.069
				C294.584,226.722,294.128,228.982,292.422,230.357z"/>
		</g>
	</g>
	<g>
		<g>
			<path fill="#FFFFFF" d="M246.825,188.93c-2.606,0-4.719,1.939-4.719,4.333s2.112,4.332,4.719,4.332
				c2.607,0,4.721-1.939,4.721-4.332S249.433,188.93,246.825,188.93z M246.825,196.112c-1.807,0-3.272-1.345-3.272-3.004
				s1.466-3.003,3.272-3.003c1.808,0,3.273,1.344,3.273,3.003S248.633,196.112,246.825,196.112z"/>
		</g>
	</g>
	<g>
		<g>
			<path fill="#FFFFFF" d="M257.023,200.01c-2.213-1.3-4.909-0.819-6.022,1.075c-1.112,1.895-0.217,4.483,1.997,5.784
				c2.215,1.3,4.911,0.818,6.023-1.076C260.133,203.899,259.239,201.31,257.023,200.01z M257.862,204.95
				c-0.771,1.313-2.64,1.647-4.175,0.746c-1.537-0.901-2.156-2.697-1.386-4.009c0.771-1.313,2.641-1.647,4.176-0.747
				C258.014,201.841,258.634,203.637,257.862,204.95z"/>
		</g>
	</g>
	<path fill="#FFFFFF" d="M229.974,193.002c0,0-2.13,19.527-3.331,21.656l1.572,1.481c0,0,2.869-15.179,2.776-21.472L229.974,193.002
		z"/>
	<path fill="#FFFFFF" d="M234.972,207.81c0,0,0.092-6.941,0.37-8.607l1.018,1.018l0.186,6.94L234.972,207.81z"/>
	<path fill="#FFFFFF" d="M241.449,205.774l3.329,17.635l1.577,0.136c0,0-2.037-14.717-3.239-17.215L241.449,205.774z"/>
	<path fill="#FFFFFF" d="M247.374,209.568c0,0,8.237,21.843,8.144,24.805l1.297-0.463c0,0-3.517-13.605-6.941-22.768
		L247.374,209.568z"/>
	<path fill="#FFFFFF" d="M265.422,219.008c0,0,4.441,7.496,4.535,9.718l1.109-0.833c0,0-2.868-7.589-3.146-8.423
		C267.644,218.638,265.422,219.008,265.422,219.008z"/>
	<path fill="#FFFFFF" d="M242.007,192.631c0,0-4.072,1.481-9.07-2.961l0.277,2.036c0,0,2.868,3.702,8.978,2.776L242.007,192.631z"/>
	<path fill="#FFFFFF" d="M255.518,210.216c0,0,6.11,0.461,10.459-4.536l1.667,1.481c0,0-5.739,4.535-9.07,4.627
		c-3.331,0.094-0.279,0-0.279,0L255.518,210.216z"/>
	<polygon fill="#FFFFFF" points="267.365,216.416 276.406,215.859 276.99,218.267 270.326,219.193 	"/>
	<path fill="#FFFFFF" d="M272.178,220.395c0,0,10.181,5.554,14.346,4.535l-1.111,2.592c0,0-4.721-1.296-14.9-6.479L272.178,220.395z
		"/>
	<path fill="#FFFFFF" d="M104,133c0,0-17.55-3.213-25.953-1.978c-8.403,1.236-15.078-4.201-11.122-13.347
		c3.954-9.146,7.66-19.527,5.931-32.379c0,0-1.481-7.909,13.102-7.168c14.582,0.741,18.043,2.967,18.537,11.37
		s0.741,17.055,3.214,20.762c0,0-5.439-6.674-4.45-20.021c0,0,0.742-7.168-8.897-9.393s-18.785-0.741-19.032,2.472s0,3.213,0,7.909
		s-2.472,19.28-6.674,26.448c-4.201,7.168-0.494,11.864,6.427,11.617C82.001,129.045,93.372,128.057,104,133z"/>
	<path fill="#FFFFFF" d="M132.424,93.7c0,0-1.236-8.404,1.978-15.077c3.214-6.673-2.966-18.785-2.966-18.785
		s-2.472-5.685,5.686-5.19c8.156,0.494,23.48,8.157,24.716,14.831c1.236,6.673,2.226,12.853-0.741,20.515
		c-2.966,7.662-7.909,21.009-7.909,21.009s6.674-19.032,7.168-22.246c0.494-3.213,3.956-17.795-1.978-21.998
		c-5.933-4.202-9.393-10.628-24.47-9.887c0,0-2.224,0-0.494,2.719s5.19,9.64,2.967,15.325C134.154,80.6,132.177,93.205,132.424,93.7
		z"/>
	<path fill="#FFFFFF" d="M170.02,112.024c0,0,7.359-4.356,13.067-4.056s18.926,1.502,22.981,0.3s10.063-5.257,16.522,5.558
		s6.459,25.084-3.154,26.736s-23.883-3.755-32.144-5.407c-8.262-1.652-17.123-1.953-17.123-1.953s9.313-1.953,24.633,2.704
		c15.321,4.656,26.736,4.506,27.938-3.154c1.201-7.661-0.15-22.681-8.412-22.681c-8.261,0-12.467,0.901-19.677,0.751
		c-7.209-0.15-5.407-2.103-12.166-1.352C175.727,110.222,170.02,112.024,170.02,112.024z"/>
	<path fill="#FFFFFF" d="M160.856,159.338c0,0,7.06,15.02,17.273,19.826c10.214,4.807,10.815,10.815,7.961,12.317
		c-2.854,1.502-12.016,0.3-14.72,2.854c-2.703,2.553-7.36,4.807-13.368,4.807s-6.608-1.652-9.313-8.111
		c-2.704-6.458-2.704-10.964-7.66-15.771c-4.957-4.807-3.305-10.364-3.305-10.364s-0.301,5.107,4.506,9.463
		s6.309,10.664,8.262,15.921c1.952,5.257,3.304,10.965,15.621,5.107c12.316-5.858,8.411-4.506,13.818-5.107
		c5.407-0.601,2.103-5.107,0.601-6.158C179.031,183.07,164.462,171.205,160.856,159.338z"/>
	<path fill="#FFFFFF" d="M118.35,166.698c0,0-2.254,3.755-5.558,7.21c-3.305,3.455-4.056,8.261-6.609,14.269
		c-2.554,6.008-3.905,8.261-9.613,6.609c-5.707-1.652-26.677-10.031-21.179-21.029c0.301-0.601,4.807-6.158,10.364-9.914
		c5.558-3.755,7.511-8.711,9.013-9.913s5.407-3.755,10.814-4.056c0,0-8.712,2.704-10.364,5.257
		c-1.652,2.553-6.158,8.26-10.515,11.265c-4.355,3.004-8.562,5.558-7.96,11.265c0.601,5.708,16.522,16.673,21.779,14.87
		c5.257-1.802,4.656-1.502,5.558-4.957s5.707-12.167,8.861-15.471C116.096,168.801,118.35,166.698,118.35,166.698z"/>
</g>
</svg>
