<?xml version="1.0" encoding="utf-8"?>
<!-- Generator: Adobe Illustrator 15.0.0, SVG Export Plug-In . SVG Version: 6.00 Build 0)  -->
<!DOCTYPE svg PUBLIC "-//W3C//DTD SVG 1.1//EN" "http://www.w3.org/Graphics/SVG/1.1/DTD/svg11.dtd">
<svg version="1.1" id="レイヤー_1" xmlns="http://www.w3.org/2000/svg" xmlns:xlink="http://www.w3.org/1999/xlink" x="0px"
	 y="0px" width="307px" height="263px" viewBox="0 0 307 263" enable-background="new 0 0 307 263" xml:space="preserve">
<rect x="-51" y="-48" display="none" width="400" height="366"/>
<g opacity="0.16">
	<path fill="#FFFFFF" d="M205.145,109.846c0,0-2.068-12.609,3.101-19.019s10.956-15.711,10.956-20.26
		c0-4.548,0.207-13.851,0.207-13.851s3.516,1.241,7.649-1.034c4.135-2.274,9.51-7.856,9.51-9.097s-2.275-3.927-3.722-2.687
		s-6.408,4.962-9.096,6.202s-5.169,0.62-5.169,0.62s-1.24-8.27-0.413-10.131c0.827-1.86,3.928-5.582,6.615-5.168
		s4.756,2.481,1.034,4.135c-3.721,1.654-6.614,4.134-4.341,6.408c2.273,2.275,8.889-3.721,9.716-6.615c0,0,0.826-1.033,2.894,1.24
		c2.068,2.274,5.169,5.375,5.169,5.375s-1.653,3.309-3.721,5.169c-2.068,1.86-5.583,6.202-11.991,8.063c0,0-1.653,0.414-1.033,4.549
		c0.62,4.134,6.409,3.928,10.75,1.24c4.342-2.688,11.37-12.404,11.99-19.434l9.923,1.654c0,0-0.826,14.264,8.89,17.572
		c9.716,3.308,12.197-3.309,12.197-4.342s-1.032-6.408-7.028-3.927c-5.996,2.48-7.442-3.722-6.409-7.442
		c0,0,8.476,4.133,11.784,3.307c3.308-0.826,2.273,1.447,2.273,1.447s1.034,6.202,3.516,6.202c2.48,0,0.205,2.48,0.205,2.48
		s-4.754,5.788-13.437,5.375s-13.646-11.578-13.852-15.505c0,0-1.241-3.516-4.135-3.101c-2.894,0.414-3.721,1.24-4.341,3.721
		s-3.103,10.338,14.678,19.021c0,0,16.953,4.753,24.602-3.516c0,0,5.789,6.409,5.582,8.27c0,0-10.131,5.789-10.131,11.164
		c0,5.374,3.721,5.167,5.375,4.134s2.687-7.442,4.961-7.855l0.415,7.855c0,0-10.752,3.307-11.578,5.582
		c0,0-2.893-8.683-0.206-12.817c2.688-4.134,8.889-7.235,8.889-8.476s-0.826-4.343-3.307-4.135
		c-2.48,0.207-16.539,2.274-14.059,27.082c0,0-13.024,7.235-21.5,19.64c-8.476,12.403-30.39,11.37-30.39,11.37
		s-1.653-2.067,0.62-2.067c2.274,0,18.4,1.241,28.116-19.64c0,0,3.307-8.684,15.091-16.539c11.783-7.855,5.996-10.956,5.996-10.956
		S252.278,66.02,241.528,66.64c-10.749,0.62-13.229,5.582-13.229,5.582s-3.309,6.821-10.131,13.644s-11.576,17.16-11.576,20.054
		S205.558,113.361,205.145,109.846z"/>
	<path fill="#FFFFFF" d="M196.048,106.54c0,0-0.827-13.229,4.135-21.087c4.962-7.856,9.716-15.092,6.822-22.534
		c-2.895-7.442-10.545-18.399-12.611-21.294c-2.066-2.894-16.125-11.989-16.125-17.984c0-5.996,1.448-7.029,4.756-4.342
		c3.307,2.688,2.066,6.202,2.066,6.202s0.62,2.273,1.86,1.653s0.414-5.375-0.413-7.235c-0.827-1.861-6.203-6.823-10.75-5.789
		c0,0-1.655,1.034,0.62,8.063c2.274,7.028,7.649,12.609,8.27,13.23c0.62,0.62,10.543,7.236,9.303,12.818c0,0-1.654,2.893-8.27-2.896
		s-14.265-19.226-14.265-19.226l-5.167-9.303l0.62-6.202c0,0-2.895,2.481-8.684-0.62C152.428,6.895,153.048,4,153.048,4
		s-2.273,4.341-7.235,6.409s-8.683,1.24-8.683,1.24s6.822,17.986-1.448,26.669c-8.27,8.683-19.019,0.413-19.019,0.413
		s-2.687-2.896-0.62-5.169s5.167,0,5.167,0s7.237,3.515,9.718-2.48c2.48-5.994-1.24-15.711-1.24-15.711l-9.303,7.442
		c0,0,2.688,4.963,4.961,3.309s-0.826-4.342,0.62-5.168c1.446-0.827,3.308,1.859,3.308,4.754s1.447,6.824-5.375,6.41
		c-6.822-0.415-6.822-7.236-6.822-7.236s-5.013,8.891-9.409,11.29c-3.296,1.8-4.515,0.227-4.92-0.673
		c-0.134-0.301-0.178-0.526-0.178-0.526s0.6,1.101,0.6,4.398s-1.5,13.095,3.898,17.692c0,0,1.2,0.699,3.499-1.699
		s3.697-3.1,5.896-2.999c2.2,0.101,8.098,1.3,7.997,7.097l-3.198-0.898c0,0-0.999-1.201-2.799-1.201s-2.898,2.499-2.898,2.499
		l11.095,3.5c0,0,1.499-10.096-5.997-12.495c-7.497-2.399-10.396,3.498-14.094-1.899s11.495-8.798,18.092-4.099
		c6.597,4.698,10.994,10.295,11.994,22.891c0,0,12.289,5.697,19.287,17.492s6.196,13.992,6.196,13.992l19.091,13.895
		c0,0,1.1-0.001,0.3-1c-0.8-1-14.294-11.596-15.493-15.394s0.503-9.594-4.596-16.491s-20.894-16.392-23.892-23.889
		c-2.998-7.496-3.101-14.392,2.098-18.091c5.142-3.659,10.87-6.437,23.089-1.853c0.134,0.051,0.267,0.102,0.401,0.153
		c0,0,1.699,1.499,1.3-2.499c-0.4-3.998-2.296-8.996-5.395-11.194c-3.099-2.199-6.897-2.8-9.196-0.601s-0.898,3.398,0.5,2.1
		c1.399-1.299,5.399-2.398,6.897,0.9c1.499,3.298,0.1,5.998-3.799,6.497c-3.897,0.499-10.796-1.199-10.896-8.497
		c-0.1-7.297,2.098-11.695,8.296-11.695c6.199,0,11.098,2.099,16.794,12.395c5.697,10.297,6.797,16.894,6.797,16.894
		s11.893,8.296,16.291,12.395c4.398,4.098,9.195,8.396,8.496,15.893c-0.698,7.496-2.401,10.892-4.5,17.089
		C192.624,92.445,196.048,106.54,196.048,106.54z"/>
	<path fill="#FFFFFF" d="M217.253,136.87c0,0-4.312-1.382-3.187-2.788c0.456-0.569,3.813,0.996,3.813,0.996
		s7.317,2.473,13.933,1.439c7.627-1.19,16.876-4.184,16.876-4.184s1.936,10.386,15.374,9.766s10.442-8.685,10.442-8.685
		s-2.791-5.991-8.167-3.925s-1.55,7.439,0.312,6.199c1.86-1.24,2.273,0.929,1.653,1.136c-0.62,0.208-0.931,1.551-4.858,1.448
		c-3.365-0.089-6.615-1.24-8.684-7.546c0,0,8.062-1.65,10.129-2.479c2.068-0.827,9.717-2.688,9.717-2.688s-0.463,6.264,3.949,11.524
		c4.413,5.261,10.521,10.691,20.365,9.503c0,0,4.582-1.526-0.509-4.072s-19.349-7.977-19.518-17.649c0,0,9.334-3.563,11.2-5.771
		c0,0,1.696,1.527,1.018,4.413c-0.678,2.885,2.039,3.733,2.039,3.733s5.939,3.223,5.77,4.072c-0.17,0.849-3.732,1.527-6.108,0.339
		c-2.377-1.188-6.11-7.637-9.335-5.43s3.904,9.163,5.94,10.013c2.036,0.849,6.787,3.394,14.595,3.733v9.334
		c0,0-19.519-0.171-19.688,6.108c-0.169,6.28,12.05,7.638,12.05,7.638s6.617-1.357,0.339-4.752s2.545-5.432,6.788-4.582
		c0,0-3.563,22.57-1.188,37.844l-12.388-0.509c0,0-5.941-6.45-5.602-14.426c0.341-7.976,6.958-8.144,7.977-6.617
		s1.188,3.393,0,3.054c-1.188-0.34-1.188-3.394-3.563-1.188s-1.528,7.296,2.715,8.146c4.243,0.849,7.807-1.868,7.807-8.316
		c0-6.447-5.939-7.466-5.939-7.466s-9.264-4.723-13.746,4.243c-4.241,8.485-2.715,16.291-2.715,16.291l-5.77,6.788
		c0,0-1.02,5.09,0.339,6.108c1.357,1.019,4.072,1.697,4.242-0.339c0.169-2.036-1.356-6.277,2.885-8.146l0.509,2.885
		c0,0,1.867,1.357,1.697,3.563s-1.356,1.868-1.356,0.68s-1.697-4.412-2.207-3.563c-0.51,0.848,0,0.168,0,3.223
		c0,3.056-0.68,5.261-3.225,4.922s-3.903-4.411-5.431-2.715c-1.527,1.697,3.395,5.261,1.697,7.298
		c-1.697,2.036-5.431-1.867-6.958,0.169s4.921,2.206,3.563,3.733c-1.356,1.527-6.617-1.866-5.938-4.072s4.073-1.867,6.788-1.358
		c0,0,1.188-1.018-0.339-2.545c-1.528-1.527-4.243-2.037-4.243-2.037s-4.825,4.05-5.584,4.808c-0.758,0.759-10.62-1.264-10.789-1.77
		c-0.168-0.507-4.637-0.843-6.996,2.022c-2.359,2.866-5.647,8.683-0.505,14.92c5.142,6.237,10.199,3.541,11.8,2.108
		c1.602-1.434,2.529-6.744-0.59-8.177s-4.805,0.672-4.973,1.264c-0.169,0.591,0.086,1.603,1.349,1.938c0,0,0.843,1.096-0.843,0.759
		c-1.687-0.337-3.033-3.034-1.602-4.636s4.468-3.371,8.935-1.602c4.468,1.77,8.43,5.815,8.767,7.502c0,0-3.708-2.359-10.789,5.563
		c-7.082,7.923-9.862,9.861-9.862,9.861s-0.674-0.59-0.591-3.034c0.084-2.444,0.002-8.43-4.214-11.043
		c-4.215-2.612-5.144-1.264-8.768-5.899s-8.513-9.778-6.658-10.79c1.854-1.011,5.732,5.9,6.406,6.744
		c0.674,0.843,3.709,7.08,6.322,5.057c2.612-2.022,1.515-9.861-1.771-12.391s-8.005-7.922-8.005-7.922s-5.818-0.168-7.082-2.276
		c-1.264-2.107-1.01-8.428-2.527-16.1c-1.519-7.671-3.454-12.573-10.896-20.636c0,0-0.31-1.705,1.086-0.931
		c1.396,0.775,8.527,6.202,13.799,21.087s8.063,19.381,11.318,22.638c3.257,3.256,6.513,5.736,11.009,3.101
		c4.497-2.636,10.233-10.854,10.233-10.854s2.016-0.31,1.86,1.24c-0.155,1.551-2.48,5.271-4.962,7.133
		c-2.48,1.86,2.016,2.636,2.016,2.636s5.737,1.705,8.838-1.706c3.102-3.411,2.481-6.667,2.481-6.667s-4.807-0.775-5.582-3.411
		s-0.31-4.031,1.24-5.116c1.551-1.086,4.807-0.775,5.737,0.775c0.93,1.55,1.395,2.791,1.085,4.807s4.651,0.62,4.651,0.62
		l6.667-6.513c0,0-0.62-4.807-0.31-6.047c0.31-1.24-0.775-1.86-1.396-1.24s-1.396,4.651-5.116,6.357
		c-3.722,1.705-5.117-1.241-3.722-2.481s4.962-2.016,6.978-5.116s9.612-13.334,9.923-15.97c0.31-2.637,3.101-15.195,1.396-15.815
		c-1.706-0.62-4.754-2.429-8.785-1.964c-4.031,0.466-12.301,4.548-23.566-2.17c0,0-4.754-0.917-14.577-0.628
		C226.273,139.687,217.253,136.87,217.253,136.87z"/>
	<path fill="#FFFFFF" d="M198.74,160.068c0,0,4.824,3.057,4.503,10.616c-0.32,7.56-2.412,19.139,0.161,24.769
		c2.574,5.631,6.756,10.777,6.756,10.777s-8.363,8.042-10.294,12.867c-1.931,4.824-9.007,21.712,2.896,27.503
		s15.118-4.503,15.118-7.077c0-2.573-2.252-10.293-7.881-9.007s-4.663,6.273-1.93,7.078c2.734,0.804,2.735,1.608,1.608,2.09
		c-1.126,0.482-7.077-0.803-5.63-6.433c1.447-5.631,4.827-14.798,9.329-17.05c4.503-2.252,4.825,4.182,4.986,6.272
		s0.321,4.824-1.608,3.699s-1.931-2.092-1.609-3.86c0.322-1.769,0.483-4.826-1.769-3.057c-2.251,1.771-3.378,5.148-0.965,8.525
		c2.413,3.378,7.881,5.309,7.881,5.309s1.126,15.439-7.237,25.412c0,0-1.126-1.288-1.287-3.057s-4.986-8.042-13.028-7.237
		s-17.371,2.092-29.755,8.525c0,0-6.272,3.215-10.938,1.607c0,0-0.805-0.642,1.286-3.859c2.091-3.217,0.644-7.079-3.217-10.134
		s-8.45-7.68-8.45-7.68l-0.395-28.187c0,0-1.609-10.294-7.561-12.385s-11.097-0.966-14.957,3.217s-2.896,16.246,3.538,18.015
		s7.881-4.023,7.881-7.078s-2.895-5.468-4.985-3.377c0,0-2.252,0.16-0.805-1.608s5.307-2.735,7.237,1.447
		c1.932,4.183,1.771,21.715,0.805,25.574c0,0-4.343,0.321-8.847-4.021c0,0,0.483-3.538,3.057-2.252c2.572,1.287-0.16,1.93,2.413,3.7
		c2.572,1.77,4.824-5.146,3.377-7.077s-5.146-5.629-11.58-1.447s-5.31,1.447-4.826-1.608c0.483-3.057-0.642-8.044-4.663-12.063
		c-4.022-4.021-6.112-1.287-5.309-3.7c0.805-2.412,3.698-1.769,5.468-2.733c1.77-0.966,10.769-10.404,13.825-11.852
		c3.056-1.447,7.407-0.532,10.141-2.624c2.734-2.092,3.218-4.824,5.147-4.504c1.93,0.321,3.699,1.93,2.091,4.825
		c-1.608,2.895-6.112,3.217-6.112,3.217s-3.379,0.16-2.896,3.217c0.483,3.056,7.238,6.596,11.902,1.931
		c4.665-4.665,4.664-12.867-0.965-20.104c0,0,2.894-14.154,7.72-19.141c4.825-4.985,13.51-9.81,12.546-7.881
		c-0.965,1.93-2.252,1.771-3.539,3.057c-1.286,1.286-9.488,9.973-9.972,17.692c-0.482,7.72,1.284,14.793-0.324,20.744
		s-6.067,11.031-6.872,13.122c-0.804,2.091-1.009,3.123-0.365,6.822c0.643,3.699,0.52,21.749,0.52,21.749
		s4.466,18.301,22.158,18.944c17.692,0.643,21.874-16.084,21.874-18.336s-1.287-8.364,0-9.812c1.288-1.448,5.631-4.826,5.631-9.169
		s-1.61-9.005-2.735-18.173c-1.125-9.169,1.93-13.832,2.895-20.588C201.15,167.465,198.74,160.068,198.74,160.068z"/>
	<path fill="#FFFFFF" d="M191.59,231.908c0,0-5.376-6.378-6.558-5.61c0,0-2.244,0.647-2.48,2.007s0.651,4.609-1.771,7.443
		c-2.423,2.835-5.139,5.078-10.987,4.252c-5.848-0.826-9.687-7.678-9.51-11.754s1.063-5.14,2.362-5.375
		c1.3-0.236,4.134-1.064,4.784,3.189c0.65,4.253,1.95,7.738,5.376,7.62c3.426-0.119,6.496-3.604,5.847-7.738
		c0,0-1.83-1.478-5.847-0.354c0,0-0.591,1.536,1.181,1.595c1.772,0.06,2.067-0.237,2.126,0.413c0.06,0.65,0.4,4.223-2.805,4.12
		c-3.206-0.104-3.617-5.789-3.722-7.133c-0.104-1.343-1.654-3.515-3.618-4.031c-1.964-0.516-6.202-2.687-6.202-2.687
		s-1.241-0.104-2.067,1.033c-0.826,1.138-1.757,1.345-4.444,1.448c-2.688,0.103-0.93,1.653,0.207,1.653
		c1.136,0,4.443,0.827,4.547,2.791c0.104,1.963,0.415,4.548-2.687,5.479c-3.101,0.93-0.621,1.965,0.517,1.551
		c1.137-0.415,3.307,0.516,4.651,2.583c1.345,2.068,0.311,4.859-0.826,6.822c-1.138,1.964,0.826,1.964,1.343,1.033
		c0.518-0.93,2.17-3.308,4.444-1.86c2.275,1.447,1.653,4.756,1.551,5.686c-0.103,0.931,1.034,1.137,1.654,0.206
		c0.621-0.93-0.31-4.341,5.065-4.341c0,0,3.1,0.827,3.514,3.308c0.414,2.481,1.965,1.033,2.067,0.724
		c0.104-0.311-2.688-4.341,0-7.028c2.688-2.688,7.133,0.724,7.133,0.724s1.034-0.104,0.517-1.138
		c-0.517-1.033-5.581-2.896-2.998-5.892c2.584-2.997,6.822-0.206,6.822-0.206S192.299,232.926,191.59,231.908z"/>
	<path fill="#FFFFFF" d="M172.847,121.687c0,0-0.462-4.93-9.857-6.47c-9.396-1.539-21.873-0.31-39.124-20.177
		c0,0-1.54-0.614-1.694,1.081c-0.153,1.694-3.387,15.248-15.556,23.873c-12.169,8.626-13.402-0.77-10.167-3.08
		c3.235-2.31,18.638-7.854,16.789-27.108c0,0-15.556-2.772-22.025-1.54c-6.47,1.231-3.081,2.926-1.541,2.772
		c1.541-0.154,3.852,1.849,1.695,6.931c-2.156,5.083-1.849,11.552-1.849,11.552s8.626-2.618,12.63-6.622
		c4.005-4.005,1.541-7.239,0.771-6.161s-0.154,2.001-1.54,2.771s-6.162,1.387-6.777-3.388c-0.616-4.775,4.004-6.47,7.854-6.47
		c3.852,0,10.012,2.157,7.702,11.091c-2.311,8.934-14.479,13.708-18.791,16.172c0,0-0.771,3.85,1.078,6.161
		c1.848,2.311,2.31,8.163,1.848,11.09c-0.461,2.926-2.157,6.468-7.701,6.777c0,0-1.077,1.229,0.155,1.538
		c1.231,0.309,0.616,6.315,0.616,6.315s4.776,0.002,5.699,0.925s10.936,8.471,11.244,11.243c0.308,2.772,0.924,7.855-0.771,10.782
		c-1.695,2.927-5.083,5.852-9.241,5.544c-4.159-0.308-7.087-4.928-6.316-7.854c0.771-2.926,4.006-4.622,5.392-3.235
		s1.85,2.928,1.695,4.313c-0.155,1.386,2.925-0.924,2.617-4.929s-2.465-9.087-8.626-9.55H84.59v7.548c0,0,4.466-0.31,3.234-2.312
		c-1.232-2.002-0.308-2.927-0.308-2.927s2.003-1.23,3.543,1.233c1.539,2.464-1.849,6.47-6.777,6.932c0,0-0.462,12.784,14.786,16.942
		c0,0,8.934,1.694,6.932,8.934c0,0,6.527,0.111,10.994-4.049c0,0,3.008-2.741,2.252-8.735c0,0,3.388-2.004,6.007,0.461
		c2.618,2.466-3.389,1.849-3.389,1.849s-1.232,0.925,0.308,1.849c1.541,0.924,8.01,0.308,7.855-2.772
		c-0.153-3.081-3.54-4.952-14.036-4.819c-7.1,0.09-9.067,1.277-7.682,2.509c0,0,2.665-0.167,4.472-0.234
		c1.806-0.068,3.074,0.667,3.142,2.874c0.068,2.207-1.136,6.284-5.148,5.816c-4.012-0.467-7.164-3.296-8.022-4.546
		c-1.604-2.34-1.472-5.281,0.735-8.022c3.98-4.943,10.832-4.346,13.507-4.279c2.674,0.066,12.503-0.668,18.252,4.948
		c0,0,4.269-6.292,5.899-10.431c1.63-4.14,4.515-15.176,12.164-18.436s12.039-2.383,12.039-2.383s5.016-1.129,5.769-2.884
		c0,0-2.008,0.378-4.265,1.004c-2.256,0.627-12.663-3.639-24.953,9.654s-12.164,16.302-21.694,16.052
		c-9.53-0.251-16.052-2.885-13.167-9.781c2.884-6.897,4.764-4.265,2.758-7.399s-4.638-7.273-3.26-12.415
		c1.379-5.141,6.02-10.156,8.652-8.902c2.634,1.253,2.76,8.149,0,8.275c-2.759,0.126-0.752-2.383-0.752-2.383
		s-1.13-1.755-1.756,0.377c-0.627,2.132-1.88,6.021,1.255,8.527c0,0,1.378,0.751,3.009-1.756c1.63-2.508,5.141-10.534,2.633-16.804
		c0,0-1.63-2.509-5.894-0.377c-4.127,2.064-9.78,6.268-9.78,15.927c0,7.775,2.633,10.784,2.633,10.784s1.253,1.507-0.753,3.387
		s-5.643-1.255-5.643-1.255s-6.771-4.89-4.766-16.553c2.006-11.662,10.534-15.3,13.418-17.056
		c2.885-1.755,10.534-8.902,10.534-8.902s3.009-3.262,9.153-1.882c6.146,1.38,8.78,4.14,13.67,5.895
		c4.891,1.755,14.046,1.38,14.046,1.38S169.183,115.693,172.847,121.687z"/>
	<path fill="#FFFFFF" d="M190.156,124.318c0,0-0.31-11.163-5.271-19.536c0,0,0.931-1.705,2.326,0.311
		c1.395,2.016,7.132,11.783,6.356,20.932c0,0,3.411-2.791,3.411-6.978s1.396-5.427,1.396-5.427s1.551,0.931,1.551,3.566
		s-2.171,13.024-2.171,13.024s14.885-8.063,16.59-22.482c0,0,0.775-2.016,0.775,1.551c0,3.565-3.101,16.745-12.869,23.723
		c0,0,3.102,0.62,6.357-2.791s2.636-1.706,2.636-1.706s-0.155,3.256-3.411,5.582c-3.256,2.325-0.465,3.411-0.465,3.411
		s13.489,5.736,16.435,10.543c0,0,0.775,0.931-3.256-1.396c-4.031-2.325-13.645-6.512-13.645-6.512s7.598,4.962,7.442,6.667
		c-0.154,1.706-7.132-3.721-7.132-3.721s-2.171,0.465-0.465,2.79c1.705,2.326,16.9,17.986,15.814,21.707c0,0-0.31,1.551-1.551-2.016
		c-1.24-3.565-19.69-21.396-19.69-21.396s-2.791-0.311-2.171,1.085s2.791,4.652,2.171,8.684s-1.551,2.636-1.551,0.31
		c0-2.325-3.256-8.373-3.256-8.373s-8.528,22.948-12.56,26.979c0,0-1.55,0.62-0.31-2.171s8.218-22.638,7.752-28.219
		c0,0-0.775-2.171-1.86,0c-1.085,2.17-11.318,14.574-15.505,15.659c0,0-2.016-0.154,0.62-2.325s11.784-13.334,12.249-15.195
		c0.465-1.86-0.979-2.223-2.428-0.982c-1.447,1.241-9.511,4.755-9.097,2.274c0.414-2.481,2.689,0.208,7.856-4.548
		c0,0-7.855-0.001-15.505-1.034s-13.646-3.516-12.818-4.342s5.376,1.653,10.131,1.861c4.754,0.207,19.639-0.826,19.639-0.826
		s-5.787-1.861-8.269-2.481c-2.48-0.62-7.443-4.134-6.616-4.961c0.827-0.828,9.923,3.927,14.265,3.927s0.414-2.273,0.414-2.273
		s-9.303-11.578-17.572-14.472c-8.27-2.895-39.073-19.02-45.688-27.702S81.313,62.504,81.313,62.504s-24.189-4.96-38.246-0.826
		c-7.35,2.161-15.265,7.15-19.419,9.368c-3.792,2.024-4.149,1.381-4.149,1.381S32.938,60.749,43.895,58.68
		c10.956-2.067,31.735-3.721,49.822,4.444c15.838,7.149,31.836,17.986,31.836,17.986s13.438,11.989,23.362,16.745
		C158.838,102.612,180.129,111.501,190.156,124.318z"/>
	<path fill="#FFFFFF" d="M169.633,89.373c0,0,0-17.337-12.281-23.84c-12.282-6.502-15.893-14.448-13.364-18.422
		c2.527-3.973,9.752-9.391,28.535,2.167c18.782,11.559,22.033,16.616,19.866,24.201s-2.167,16.977-2.167,16.977
		s-1.445-9.753,0.361-16.615c1.806-6.862,0.001-9.029-2.528-10.113s-21.312-19.867-30.343-18.062
		c-9.03,1.807-13.364,3.614-9.752,8.309c3.612,4.695,9.754,4.334,15.894,13.365C169.994,76.37,171.078,86.845,169.633,89.373z"/>
	<path fill="#FFFFFF" d="M214.784,102.375c0,0,5.418-10.837,9.391-15.532c3.974-4.694,13.366-18.422,23.479-13.364
		s16.255,7.587,11.197,12.643s-12.281,10.113-14.448,15.171c-2.167,5.057-8.308,18.061-18.783,20.228c0,0,10.835-4.696,11.92-10.836
		c1.084-6.141,9.03-17.338,14.81-20.589c5.778-3.252,5.057-8.67,2.89-10.476c-2.167-1.807-10.476-7.946-15.894-4.334
		c-5.418,3.611-11.558,9.751-14.086,14.086C222.73,93.707,214.784,102.375,214.784,102.375z"/>
	<path fill="#FFFFFF" d="M228.871,144.638c0,0,15.171-0.723,18.783,1.083s20.227,6.504,26.007,4.335
		c5.78-2.168,2.168,5.058,0.362,7.586c-1.806,2.527-7.585,15.894-19.144,22.033c-11.559,6.141-10.837,9.752-12.643,12.28
		c-1.807,2.529-7.585,4.698-11.559-1.082c-3.973-5.781-10.476-20.589-10.476-20.589s8.671,13.724,9.754,16.253
		s5.417,9.391,10.474,0.361c5.058-9.029,11.561-8.67,17.34-13.364c5.778-4.695,15.531-15.17,13.725-17.699
		c-1.806-2.529-12.281-0.362-21.673-6.863S228.871,144.638,228.871,144.638z"/>
	<path fill="#FFFFFF" d="M166.834,163.601c0,0-3.954,3.65-3.193,11.859s-0.151,13.53-2.736,18.091s-5.93,11.402-0.608,16.571
		c5.321,5.168,21.283,14.441,28.429,5.016c7.146-9.425,3.346-17.025,3.193-22.499c-0.153-5.474-0.761-11.401,1.671-17.787
		c2.433-6.386,0.608-11.251,0.608-11.251s0.54,5.651-2.955,11.884c-3.496,6.231-2.914,10.852-1.241,18.605
		s0.588,20.795-8.838,21.707c-9.425,0.912-21.513-4.243-19.536-14.885c1.978-10.642,5.394-15.918,3.722-21.087
		S166.834,163.601,166.834,163.601z"/>
	<path fill="#FFFFFF" d="M160.853,123.233c0,0-8.528,0.62-15.04-0.465c-6.512-1.086-11.629-6.667-15.04-6.667
		s-8.527-0.931-7.287,7.287s3.566,6.667,2.171,12.869s-11.784,15.35-10.854,19.381c0.93,4.031,3.876,11.474,12.869,2.791
		c8.992-8.683,10.078-15.04,16.435-16.9c6.357-1.86,10.854-3.876,10.854-3.876s-6.667,0.465-10.698,2.325s-6.356,3.102-11.009,9.148
		c-4.651,6.047-9.923,13.644-13.644,11.783c-3.722-1.86-4.651-5.736-0.931-10.078c3.722-4.341,8.683-12.249,8.683-16.125
		s-3.256-7.287-2.636-11.629c0.62-4.341,2.326-6.512,6.047-4.961c3.722,1.55,7.287,6.201,16.28,6.047
		C156.046,124.008,160.853,123.233,160.853,123.233z"/>
	<g>
		<g>
			<path fill="#FFFFFF" d="M6.256,55.546C2.8,55.546,0,58.278,0,61.649c0,3.37,2.8,6.102,6.256,6.102
				c3.455,0,6.256-2.731,6.256-6.102C12.512,58.278,9.711,55.546,6.256,55.546z M6.256,66.106c-2.231,0-4.038-1.763-4.038-3.938
				c0-2.175,1.807-3.938,4.038-3.938c2.229,0,4.037,1.763,4.037,3.938C10.293,64.343,8.485,66.106,6.256,66.106z"/>
		</g>
	</g>
	<g>
		<g>
			<path fill="#FFFFFF" d="M21.148,53.208c-2.794,0-5.058,2.731-5.058,6.103c0,3.37,2.264,6.102,5.058,6.102
				c2.793,0,5.057-2.731,5.057-6.102C26.205,55.94,23.941,53.208,21.148,53.208z M21.148,63.768c-1.804,0-3.265-1.763-3.265-3.938
				c0-2.175,1.461-3.938,3.265-3.938c1.802,0,3.264,1.763,3.264,3.938C24.412,62.005,22.95,63.768,21.148,63.768z"/>
		</g>
	</g>
	<g>
		<g>
			<path fill="#FFFFFF" d="M36.945,44.229c-1.206-3.147-4.296-4.89-6.905-3.891c-2.609,0.998-3.746,4.358-2.541,7.508
				c1.205,3.147,4.295,4.888,6.904,3.89S38.15,47.377,36.945,44.229z M33.814,50.2c-1.684,0.645-3.679-0.479-4.456-2.511
				s-0.044-4.2,1.642-4.844c1.684-0.645,3.679,0.479,4.456,2.51S35.499,49.555,33.814,50.2z"/>
		</g>
	</g>
	<g>
		<g>
			<path fill="#FFFFFF" d="M59.819,47.277c-0.951-2.481-3.834-3.685-6.443-2.686c-2.608,0.998-3.953,3.819-3.002,6.303
				c0.949,2.48,3.833,3.683,6.442,2.685S60.77,49.759,59.819,47.277z M56.353,52.367c-1.684,0.645-3.545-0.131-4.159-1.733
				c-0.613-1.601,0.254-3.422,1.938-4.066s3.546,0.131,4.159,1.732C58.905,49.902,58.036,51.722,56.353,52.367z"/>
		</g>
	</g>
	<g>
		<g>
			<path fill="#FFFFFF" d="M46.966,48.451c-0.656-1.713-2.752-2.503-4.686-1.763c-1.932,0.739-2.966,2.727-2.31,4.441
				c0.655,1.711,2.752,2.5,4.685,1.761C46.588,52.152,47.621,50.164,46.966,48.451z M44.335,52.054
				c-1.246,0.478-2.601-0.031-3.024-1.137c-0.423-1.105,0.244-2.388,1.492-2.865c1.246-0.478,2.601,0.03,3.023,1.137
				C46.25,50.294,45.582,51.578,44.335,52.054z"/>
		</g>
	</g>
	<g>
		<g>
			<path fill="#FFFFFF" d="M37.48,56.955c-0.451-1.176-2.381-1.531-4.313-0.791c-1.933,0.739-3.133,2.292-2.682,3.47
				c0.449,1.175,2.38,1.528,4.312,0.79C36.73,59.684,37.93,58.131,37.48,56.955z M34.578,59.849
				c-1.247,0.477-2.494,0.249-2.785-0.511c-0.291-0.758,0.484-1.761,1.732-2.238c1.246-0.478,2.493-0.249,2.783,0.51
				C36.6,58.37,35.824,59.372,34.578,59.849z"/>
		</g>
	</g>
	<g>
		<g>
			<path fill="#FFFFFF" d="M63.599,67.672c-0.951-2.482-3.834-3.686-6.443-2.686c-2.608,0.998-3.953,3.819-3.002,6.302
				c0.949,2.481,3.833,3.683,6.442,2.685S64.549,70.154,63.599,67.672z M60.132,72.762c-1.684,0.645-3.545-0.131-4.159-1.733
				c-0.613-1.602,0.254-3.422,1.938-4.066s3.546,0.131,4.159,1.732C62.685,70.297,61.815,72.118,60.132,72.762z"/>
		</g>
	</g>
	<g>
		<g>
			<path fill="#FFFFFF" d="M49.152,67.234c-0.876-2.287-3.698-3.331-6.308-2.332c-2.608,0.998-4.014,3.66-3.138,5.948
				c0.875,2.286,3.699,3.329,6.309,2.331C48.624,72.183,50.028,69.521,49.152,67.234z M45.588,72.066
				c-1.684,0.644-3.507-0.029-4.072-1.506c-0.565-1.476,0.341-3.193,2.026-3.838c1.684-0.645,3.507,0.028,4.071,1.504
				C48.179,69.703,47.271,71.421,45.588,72.066z"/>
		</g>
	</g>
	<g>
		<g>
			<path fill="#FFFFFF" d="M40.373,79.877c-0.951-2.482-3.834-3.685-6.443-2.686c-2.609,0.998-3.953,3.819-3.003,6.303
				c0.95,2.48,3.834,3.682,6.443,2.684S41.322,82.359,40.373,79.877z M36.906,84.967c-1.684,0.645-3.546-0.131-4.16-1.733
				c-0.612-1.602,0.255-3.422,1.939-4.066c1.684-0.645,3.546,0.131,4.158,1.732C39.458,82.502,38.59,84.323,36.906,84.967z"/>
		</g>
	</g>
	<g>
		<g>
			<path fill="#FFFFFF" d="M13.104,80.804c-0.95-2.482-3.834-3.686-6.442-2.686c-2.609,0.998-3.954,3.819-3.003,6.303
				c0.949,2.48,3.834,3.682,6.442,2.684C12.711,86.107,14.055,83.286,13.104,80.804z M9.638,85.894
				c-1.684,0.645-3.545-0.131-4.159-1.733c-0.613-1.602,0.254-3.422,1.939-4.066c1.684-0.645,3.545,0.131,4.158,1.732
				C12.19,83.429,11.321,85.25,9.638,85.894z"/>
		</g>
	</g>
	<g>
		<g>
			<path fill="#FFFFFF" d="M23.771,85.28c-0.951-2.482-3.834-3.685-6.443-2.686c-2.608,0.998-3.953,3.819-3.003,6.303
				c0.95,2.48,3.834,3.683,6.443,2.685C23.377,90.583,24.72,87.762,23.771,85.28z M20.304,89.417
				c-1.684,0.645-3.546-0.131-4.16-1.733c-0.612-1.602,0.255-3.422,1.939-4.066c1.684-0.645,3.546,0.131,4.159,1.732
				C22.856,86.953,21.987,88.773,20.304,89.417z"/>
		</g>
	</g>
	<g>
		<g>
			<path fill="#FFFFFF" d="M31.005,72.172c-0.67-1.748-3.325-2.355-5.935-1.355c-2.609,0.998-4.182,3.223-3.513,4.973
				c0.67,1.746,3.326,2.354,5.936,1.355C30.103,76.146,31.673,73.92,31.005,72.172z M27.166,76.292
				c-1.684,0.645-3.399,0.254-3.831-0.876c-0.432-1.127,0.582-2.563,2.268-3.207c1.684-0.645,3.398-0.255,3.83,0.873
				C29.864,74.21,28.85,75.647,27.166,76.292z"/>
		</g>
	</g>
	<path fill="#FFFFFF" d="M55.058,58.164l-0.206-5.064c0,0,1.032-0.724,1.137,0c0.104,0.723,0.414,4.754,0.414,4.754L55.058,58.164z"
		/>
	<polygon fill="#FFFFFF" points="57.643,59.093 57.953,65.813 59.193,65.606 59.709,58.991 	"/>
	<polygon fill="#FFFFFF" points="50.406,59.404 46.479,65.4 44.722,64.985 47.822,59.818 	"/>
	<polygon fill="#FFFFFF" points="46.995,59.405 43.274,52.79 44.655,52.89 47.408,58.165 	"/>
	<polygon fill="#FFFFFF" points="35.417,62.505 34.797,78.218 36.245,77.597 36.658,62.092 	"/>
	<polygon fill="#FFFFFF" points="21.98,70.361 9.989,78.423 11.179,79.802 23.139,70.876 	"/>
	<polygon fill="#FFFFFF" points="20.105,83.048 21.045,71.772 19.294,72.969 18.696,82.792 	"/>
	<polygon fill="#FFFFFF" points="21.429,71.474 8.659,66.306 10.409,64.298 22.924,69.851 	"/>
	<polygon fill="#FFFFFF" points="27.407,67.246 24.076,63.274 25.229,61.138 28.987,66.221 	"/>
	<polygon fill="#FFFFFF" points="27.449,71.004 28.773,66.605 30.866,65.367 29.201,71.559 	"/>
	<polygon fill="#FFFFFF" points="34.488,51.135 37.589,61.265 38.726,60.956 35.624,50.309 	"/>
</g>
</svg>
